<svg width="22" height="22" viewBox="0 0 22 22" fill="none" xmlns="http://www.w3.org/2000/svg">
<g opacity="0.5">
<path d="M1.83333 10.9997C1.83333 6.67851 1.83333 4.51792 3.17533 3.17501C4.51916 1.83301 6.67883 1.83301 11 1.83301C15.3212 1.83301 17.4817 1.83301 18.8237 3.17501C20.1667 4.51884 20.1667 6.67851 20.1667 10.9997C20.1667 15.3208 20.1667 17.4814 18.8237 18.8234C17.4827 20.1663 15.3212 20.1663 11 20.1663C6.67883 20.1663 4.51824 20.1663 3.17533 18.8234C1.83333 17.4823 1.83333 15.3208 1.83333 10.9997Z" fill="white"/>
<path d="M1.83333 10.9997C1.83333 6.67851 1.83333 4.51792 3.17533 3.17501C4.51916 1.83301 6.67883 1.83301 11 1.83301C15.3212 1.83301 17.4817 1.83301 18.8237 3.17501C20.1667 4.51884 20.1667 6.67851 20.1667 10.9997C20.1667 15.3208 20.1667 17.4814 18.8237 18.8234C17.4827 20.1663 15.3212 20.1663 11 20.1663C6.67883 20.1663 4.51824 20.1663 3.17533 18.8234C1.83333 17.4823 1.83333 15.3208 1.83333 10.9997Z" fill="#5DBE74"/>
</g>
<path d="M16.1113 9.60701C16.2229 9.46642 16.2751 9.28777 16.2567 9.10923C16.2383 8.9307 16.1508 8.76644 16.0129 8.65154C15.875 8.53664 15.6977 8.48021 15.5188 8.49431C15.3398 8.50842 15.1735 8.59193 15.0553 8.72701L13.4081 10.7033C13.0689 11.1113 12.859 11.3597 12.6876 11.5146C12.643 11.5584 12.5927 11.596 12.5382 11.6264L12.5281 11.631L12.5208 11.6273L12.518 11.6264C12.4631 11.5961 12.4125 11.5584 12.3677 11.5146C12.1963 11.3588 11.9873 11.1113 11.6472 10.7033L11.3795 10.3825C11.0779 10.0204 10.8066 9.69501 10.5536 9.46585C10.2777 9.21651 9.93026 8.99468 9.47192 8.99468C9.01359 8.99468 8.66709 9.21651 8.39026 9.46585C8.13726 9.69501 7.86592 10.0204 7.56526 10.3825L5.88776 12.3937C5.82998 12.4631 5.78643 12.5432 5.7596 12.6294C5.73278 12.7156 5.7232 12.8063 5.73141 12.8962C5.748 13.0779 5.83606 13.2454 5.97622 13.3621C6.11637 13.4788 6.29714 13.5351 6.47876 13.5185C6.66039 13.5019 6.82798 13.4138 6.94467 13.2737L8.59192 11.2973C8.93109 10.8894 9.14101 10.641 9.31242 10.4861C9.35705 10.4424 9.4073 10.4048 9.46184 10.3743L9.46826 10.3715L9.47192 10.3706C9.47467 10.3706 9.47742 10.3724 9.48201 10.3743C9.53688 10.4047 9.58744 10.4423 9.63234 10.4861C9.80376 10.6419 10.0128 10.8894 10.3528 11.2973L10.6205 11.6182C10.9221 11.9803 11.1934 12.3057 11.4464 12.5348C11.7223 12.7842 12.0698 13.006 12.5281 13.006C12.9864 13.006 13.3329 12.7842 13.6098 12.5348C13.8628 12.3057 14.1341 11.9803 14.4348 11.6182L16.1113 9.60701Z" fill="white"/>
<path d="M16.1113 9.60701C16.2229 9.46642 16.2751 9.28777 16.2567 9.10923C16.2383 8.9307 16.1508 8.76644 16.0129 8.65154C15.875 8.53664 15.6977 8.48021 15.5188 8.49431C15.3398 8.50842 15.1735 8.59193 15.0553 8.72701L13.4081 10.7033C13.0689 11.1113 12.859 11.3597 12.6876 11.5146C12.643 11.5584 12.5927 11.596 12.5382 11.6264L12.5281 11.631L12.5208 11.6273L12.518 11.6264C12.4631 11.5961 12.4125 11.5584 12.3677 11.5146C12.1963 11.3588 11.9873 11.1113 11.6472 10.7033L11.3795 10.3825C11.0779 10.0204 10.8066 9.69501 10.5536 9.46585C10.2777 9.21651 9.93026 8.99468 9.47192 8.99468C9.01359 8.99468 8.66709 9.21651 8.39026 9.46585C8.13726 9.69501 7.86592 10.0204 7.56526 10.3825L5.88776 12.3937C5.82998 12.4631 5.78643 12.5432 5.7596 12.6294C5.73278 12.7156 5.7232 12.8063 5.73141 12.8962C5.748 13.0779 5.83606 13.2454 5.97622 13.3621C6.11637 13.4788 6.29714 13.5351 6.47876 13.5185C6.66039 13.5019 6.82798 13.4138 6.94467 13.2737L8.59192 11.2973C8.93109 10.8894 9.14101 10.641 9.31242 10.4861C9.35705 10.4424 9.4073 10.4048 9.46184 10.3743L9.46826 10.3715L9.47192 10.3706C9.47467 10.3706 9.47742 10.3724 9.48201 10.3743C9.53688 10.4047 9.58744 10.4423 9.63234 10.4861C9.80376 10.6419 10.0128 10.8894 10.3528 11.2973L10.6205 11.6182C10.9221 11.9803 11.1934 12.3057 11.4464 12.5348C11.7223 12.7842 12.0698 13.006 12.5281 13.006C12.9864 13.006 13.3329 12.7842 13.6098 12.5348C13.8628 12.3057 14.1341 11.9803 14.4348 11.6182L16.1113 9.60701Z" fill="#5DBE74"/>
</svg>
