<svg width="22" height="22" viewBox="0 0 22 22" fill="none" xmlns="http://www.w3.org/2000/svg">
<path opacity="0.5" d="M1.83337 10.9997C1.83337 6.67851 1.83337 4.51792 3.17537 3.17501C4.51921 1.83301 6.67887 1.83301 11 1.83301C15.3212 1.83301 17.4818 1.83301 18.8238 3.17501C20.1667 4.51884 20.1667 6.67851 20.1667 10.9997C20.1667 15.3208 20.1667 17.4814 18.8238 18.8234C17.4827 20.1663 15.3212 20.1663 11 20.1663C6.67887 20.1663 4.51829 20.1663 3.17537 18.8234C1.83337 17.4823 1.83337 15.3208 1.83337 10.9997Z" fill="#9999A0"/>
<path d="M16.1113 9.60701C16.2229 9.46642 16.275 9.28777 16.2566 9.10923C16.2382 8.9307 16.1507 8.76644 16.0129 8.65154C15.875 8.53664 15.6976 8.48021 15.5187 8.49431C15.3398 8.50842 15.1735 8.59193 15.0553 8.72701L13.408 10.7033C13.0689 11.1113 12.859 11.3597 12.6875 11.5146C12.643 11.5584 12.5927 11.596 12.5381 11.6264L12.528 11.631L12.5207 11.6273L12.518 11.6264C12.4631 11.5961 12.4125 11.5584 12.3676 11.5146C12.1962 11.3588 11.9872 11.1113 11.6471 10.7033L11.3795 10.3825C11.0779 10.0204 10.8065 9.69501 10.5535 9.46585C10.2776 9.21651 9.93021 8.99468 9.47188 8.99468C9.01354 8.99468 8.66704 9.21651 8.39021 9.46585C8.13721 9.69501 7.86588 10.0204 7.56521 10.3825L5.88771 12.3937C5.82993 12.4631 5.78638 12.5432 5.75956 12.6294C5.73273 12.7156 5.72315 12.8063 5.73137 12.8962C5.74796 13.0779 5.83601 13.2454 5.97617 13.3621C6.11633 13.4788 6.2971 13.5351 6.47872 13.5185C6.66034 13.5019 6.82793 13.4138 6.94463 13.2737L8.59188 11.2973C8.93104 10.8894 9.14096 10.641 9.31238 10.4861C9.35701 10.4424 9.40725 10.4048 9.46179 10.3743L9.46821 10.3715L9.47188 10.3706C9.47463 10.3706 9.47738 10.3724 9.48196 10.3743C9.53683 10.4047 9.58739 10.4423 9.6323 10.4861C9.80371 10.6419 10.0127 10.8894 10.3528 11.2973L10.6205 11.6182C10.922 11.9803 11.1934 12.3057 11.4464 12.5348C11.7223 12.7842 12.0697 13.006 12.528 13.006C12.9864 13.006 13.3329 12.7842 13.6097 12.5348C13.8627 12.3057 14.134 11.9803 14.4347 11.6182L16.1113 9.60701Z" fill="#9999A0"/>
</svg>
