<svg width="20" height="20" viewBox="0 0 20 20" fill="none" xmlns="http://www.w3.org/2000/svg">
<path d="M15 13.333L15 9.16634C15 6.60801 13.6333 4.46634 11.25 3.89967L11.25 3.33301C11.25 2.64134 10.6917 2.08301 9.99999 2.08301C9.30832 2.08301 8.74999 2.64134 8.74999 3.33301L8.74999 3.89967C6.35832 4.46634 4.99999 6.59968 4.99999 9.16634L4.99999 13.333L3.92499 14.408C3.39999 14.933 3.76665 15.833 4.50832 15.833L15.4833 15.833C16.225 15.833 16.6 14.933 16.075 14.408L15 13.333Z" fill="#9999A0"/>
<path opacity="0.5" d="M11.6667 16.667C11.6667 17.5837 10.9167 18.3337 9.99999 18.3337C9.55796 18.3337 9.13404 18.1581 8.82148 17.8455C8.50892 17.5329 8.33332 17.109 8.33332 16.667H11.6667Z" fill="#9999A0"/>
</svg>
