<svg width="42" height="36" viewBox="0 0 42 36" fill="none" xmlns="http://www.w3.org/2000/svg">
<g clip-path="url(#clip0_1078_12180)">
<path d="M13.6149 29.6162L14.1503 30.8182C14.2783 31.1058 14.5513 31.2874 14.8521 31.2874H26.1424C26.4048 31.2874 26.7269 31.0949 26.9295 30.9155C27.3753 30.5199 27.6185 29.5708 27.6185 29.5708C27.9534 29.0238 27.578 28.3039 26.9594 28.3126L14.3082 28.4531C13.7451 28.4596 13.376 29.0779 13.6149 29.614V29.6162Z" fill="url(#paint0_linear_1078_12180)"/>
<path d="M12.5292 29.7872C12.5292 29.8196 12.5292 29.852 12.5292 29.8823C12.5292 29.8974 12.5292 29.9104 12.5292 29.9255C12.5292 29.9536 12.5292 29.9817 12.5271 30.012C12.5271 30.0228 12.5271 30.0336 12.5271 30.0444C12.5271 30.0747 12.5249 30.105 12.5228 30.1352C12.5228 30.1806 12.5185 30.2239 12.5143 30.2693C12.5121 30.3082 12.5079 30.3471 12.5057 30.386C12.4993 30.4509 12.4929 30.5157 12.4865 30.5784C12.4844 30.6044 12.4801 30.6303 12.478 30.6563C12.4759 30.6822 12.4716 30.7081 12.4673 30.7341C12.4652 30.7514 12.4631 30.7687 12.4609 30.7838C12.4524 30.8487 12.4417 30.9114 12.4311 30.9741C12.4247 31.0108 12.4183 31.0497 12.4097 31.0865C12.4033 31.1254 12.3948 31.1621 12.3863 31.2011C12.3777 31.24 12.3713 31.2767 12.3607 31.3156C12.3543 31.3437 12.3479 31.374 12.3393 31.4021C12.3287 31.4475 12.3159 31.4929 12.3052 31.5405C12.2988 31.5643 12.2924 31.5859 12.286 31.6097C12.2839 31.6183 12.2818 31.6291 12.2775 31.6378C12.2711 31.6615 12.2647 31.6853 12.2562 31.7113C12.2498 31.7351 12.2412 31.7588 12.2348 31.7826C12.2178 31.8367 12.2007 31.8907 12.1836 31.9426C12.1687 31.9858 12.1559 32.0269 12.141 32.068C12.1367 32.0831 12.1303 32.0982 12.126 32.1134C12.1175 32.135 12.1111 32.1545 12.1026 32.1761C12.0898 32.2107 12.077 32.2453 12.0642 32.2777C12.0556 32.3015 12.045 32.3231 12.0364 32.3469C12.0173 32.3944 11.9981 32.4398 11.9767 32.4874C11.9575 32.5328 11.9383 32.576 11.917 32.6193C11.8935 32.669 11.8701 32.7166 11.8466 32.7663C11.8381 32.7836 11.8295 32.8009 11.821 32.8182C11.8103 32.8398 11.7997 32.8614 11.7869 32.883C11.7762 32.9046 11.7655 32.9263 11.7528 32.9479C11.7528 32.9479 11.7528 32.9479 11.7528 32.95C11.7421 32.9717 11.7293 32.9911 11.7186 33.0127C11.708 33.0344 11.6952 33.056 11.6824 33.0776C11.6696 33.0992 11.6589 33.1187 11.6461 33.1403C11.6162 33.19 11.5864 33.2397 11.5565 33.2895C11.5224 33.3435 11.4883 33.3976 11.4541 33.4494C11.4435 33.4667 11.4328 33.4819 11.4221 33.4992C11.388 33.551 11.3517 33.6029 11.3133 33.6548C10.7353 34.4612 9.98018 35.1033 9.11202 35.5119C8.9755 35.5767 8.83472 35.6351 8.69394 35.687C8.66834 35.6957 8.64061 35.7065 8.61502 35.7151C8.57022 35.7302 8.52756 35.7454 8.48703 35.7583C8.44224 35.7713 8.39958 35.7843 8.35478 35.7973C8.32492 35.8059 8.09455 35.8643 8.06469 35.8729L6.55661 35.9962C6.55661 35.9962 6.54595 35.9962 6.53955 35.9962C6.41796 35.9875 5.20638 36.0026 5.11253 35.9962C5.072 35.994 5.03147 35.9897 4.99094 35.9853C2.1945 35.7108 0.00170898 33.0408 0.00170898 29.7872C0.00170898 29.6294 0.00597511 29.4737 0.0166404 29.3202C0.0443702 28.903 0.106229 28.4965 0.20435 28.1052C0.210749 28.0771 0.219281 28.049 0.225681 28.0209C0.893329 25.4461 2.988 23.5674 5.46875 23.5674C5.70765 23.5674 5.94442 23.5847 6.17693 23.6193C6.18332 23.6193 6.18972 23.6193 6.19612 23.6171C6.22812 23.6128 6.26225 23.6085 6.29424 23.6041C6.31771 23.602 6.33904 23.5976 6.3625 23.5955C6.37957 23.5955 6.3945 23.5912 6.41156 23.5912C6.43076 23.5912 6.44996 23.5868 6.47129 23.5868C6.51822 23.5825 6.56728 23.5804 6.6142 23.576C6.63767 23.576 6.66113 23.5739 6.68673 23.5717C6.71019 23.5717 6.73365 23.5695 6.75499 23.5695C6.77418 23.5695 6.79338 23.5695 6.81471 23.5695C6.84457 23.5695 6.87444 23.5695 6.9043 23.5695C9.41705 23.5695 11.5458 25.392 12.2668 27.9063C12.286 27.9712 12.3031 28.0382 12.3201 28.1052C12.3308 28.1485 12.3415 28.1895 12.35 28.2328C12.4673 28.73 12.5292 29.2532 12.5292 29.7915V29.7872Z" fill="url(#paint1_linear_1078_12180)"/>
<path d="M12.3586 28.2169C12.3031 27.9553 12.222 27.7023 12.1239 27.4537C12.0258 27.2051 11.9063 26.9651 11.7762 26.7295C11.7101 26.6106 11.6418 26.4938 11.5693 26.3793C11.4968 26.2647 11.4221 26.1501 11.3454 26.0355C11.2707 25.9188 11.1918 25.8042 11.1086 25.6939C11.0254 25.5837 10.9379 25.4777 10.8462 25.3761C10.3961 24.8767 9.82875 24.4789 9.24429 24.1352C9.12484 24.0725 9.00112 24.0141 8.8774 23.9601C8.75582 23.9104 8.62997 23.8628 8.50412 23.8217C7.99645 23.6553 7.46105 23.5666 6.90645 23.5666C6.87659 23.5666 6.84673 23.5666 6.81686 23.5666C6.79767 23.5666 6.77847 23.5666 6.75714 23.5666C6.73367 23.5666 6.71234 23.5666 6.68888 23.5688C6.66542 23.5688 6.64195 23.5709 6.61636 23.5731C6.56943 23.5753 6.52037 23.5796 6.47344 23.5839C6.45424 23.5839 6.43291 23.5882 6.41371 23.5882C6.39665 23.5882 6.37959 23.5926 6.36465 23.5926C6.34119 23.5947 6.31986 23.5969 6.2964 23.6012C6.2644 23.6055 6.23027 23.6099 6.19828 23.6142C6.19828 23.6142 6.18548 23.6142 6.17908 23.6163C5.94657 23.5817 5.7098 23.5645 5.4709 23.5645C2.99228 23.5645 0.897616 25.4431 0.227835 28.018C0.225702 28.0266 0.223569 28.0353 0.221436 28.0418C0.253431 27.9726 0.285427 27.9034 0.321689 27.8364C0.549927 27.1273 0.938144 26.5133 1.48847 25.9966C2.00041 25.4388 2.60407 25.0454 3.30371 24.814C3.97562 24.4552 4.70087 24.2909 5.4773 24.3211C5.73113 24.3211 5.98284 24.3384 6.22814 24.3708C6.35186 24.3881 6.47344 24.4076 6.59289 24.4314C7.72128 24.5719 8.63636 25.0129 9.50239 25.7588C9.76049 25.9815 9.99939 26.2301 10.1487 26.5046C10.6798 27.3845 10.9657 28.3142 11.0702 29.3475C11.0937 29.5702 11.1043 29.7951 11.1065 30.0177C11.1086 30.1539 11.1065 30.2901 11.1022 30.4263C11.0958 30.5625 11.0851 30.7009 11.0702 30.8371C11.0617 30.9495 11.051 31.0576 11.0361 31.1635C11.0211 31.2651 11.0041 31.3646 10.9827 31.464C10.9209 31.7645 10.8356 32.0607 10.7225 32.3483C10.6713 32.4888 10.6137 32.625 10.5519 32.7612C10.4836 32.8995 10.4111 33.0357 10.33 33.1698C10.249 33.3017 10.1636 33.4314 10.0719 33.5568C9.98019 33.6822 9.87994 33.8011 9.77542 33.9178C9.52585 34.1405 9.35307 34.361 9.07364 34.5988C9.00112 34.6572 8.92646 34.7134 8.8518 34.7674C8.62357 34.9317 8.38253 35.0766 8.13083 35.1998C8.01138 35.2603 7.88766 35.3166 7.76181 35.3663C7.63596 35.416 7.50584 35.4614 7.37359 35.5003C7.22854 35.5479 7.07923 35.5911 6.92992 35.6279C6.63555 35.6992 6.33692 35.7446 6.0383 35.7684C5.44104 35.8138 4.83738 35.7619 4.24226 35.6171C3.96283 35.5522 3.68766 35.4679 3.4189 35.3598C3.15013 35.2517 2.88776 35.1241 2.6318 34.9728C2.28197 34.6983 1.93215 34.4237 1.58233 34.1513C2.11346 34.7653 2.75765 35.2539 3.47436 35.5738C3.71326 35.6798 3.96069 35.7684 4.21453 35.8376C4.73926 36.0019 5.30026 36.017 5.86125 36.0084C6.14282 36.004 6.42225 35.9911 6.69741 35.9889C6.99177 35.9911 7.28827 35.9738 7.58477 35.9349C7.73195 35.9154 7.87913 35.8895 8.02631 35.8592C8.14576 35.8311 8.26521 35.8008 8.38466 35.7662C8.50412 35.7316 8.62143 35.6949 8.73875 35.6538C9.83728 35.2495 10.7097 34.4994 11.3496 33.5914C11.4221 33.4919 11.4947 33.3925 11.5629 33.2909C11.6312 33.1655 11.6973 33.0401 11.7592 32.9147C11.8061 32.8217 11.8509 32.7288 11.8936 32.6358C12.0535 32.3093 12.1836 31.9678 12.286 31.6197C12.3202 31.503 12.35 31.3862 12.3778 31.2695C12.446 30.9776 12.4908 30.6814 12.5164 30.3831C12.5292 30.2339 12.5377 30.0848 12.5399 29.9356C12.542 29.7864 12.5399 29.6372 12.5335 29.4881C12.5377 29.1616 12.4929 28.8979 12.4439 28.6082C12.4226 28.4763 12.397 28.3466 12.3671 28.2212L12.3586 28.2169Z" fill="url(#paint2_linear_1078_12180)"/>
<path d="M5.46658 33.5961C7.27137 33.5961 8.73443 31.9313 8.73443 29.8777C8.73443 27.824 7.27137 26.1592 5.46658 26.1592C3.6618 26.1592 2.19873 27.824 2.19873 29.8777C2.19873 31.9313 3.6618 33.5961 5.46658 33.5961Z" fill="url(#paint3_linear_1078_12180)"/>
<path d="M41.9974 29.7743C41.9974 29.8067 41.9974 29.8391 41.9974 29.8716C41.9974 29.8867 41.9974 29.8997 41.9974 29.9148C41.9974 29.9429 41.9974 29.971 41.9953 30.0013C41.9953 30.0121 41.9953 30.0229 41.9953 30.0337C41.9953 30.064 41.9932 30.0942 41.991 30.1245C41.991 30.1699 41.9868 30.2131 41.9825 30.2585C41.9804 30.2975 41.9761 30.3364 41.974 30.3753C41.9676 30.4401 41.9612 30.505 41.9548 30.5677C41.9527 30.5936 41.9484 30.6196 41.9463 30.6455C41.9441 30.6715 41.9399 30.6974 41.9356 30.7233C41.9335 30.7406 41.9313 30.7579 41.9292 30.7731C41.9207 30.8379 41.91 30.9006 41.8993 30.9633C41.8929 31.0001 41.8865 31.039 41.878 31.0757C41.8716 31.1147 41.8631 31.1514 41.8545 31.1903C41.846 31.2292 41.8396 31.266 41.8289 31.3049C41.8225 31.333 41.8161 31.3633 41.8076 31.3914C41.7969 31.4368 41.7841 31.4822 41.7735 31.5297C41.7671 31.5535 41.7607 31.5751 41.7543 31.5989C41.7521 31.6076 41.75 31.6184 41.7457 31.627C41.7393 31.6508 41.7329 31.6746 41.7244 31.7005C41.718 31.7243 41.7095 31.7481 41.7031 31.7719C41.686 31.8259 41.669 31.88 41.6519 31.9319C41.637 31.9751 41.6242 32.0162 41.6092 32.0572C41.605 32.0724 41.5986 32.0875 41.5943 32.1026C41.5858 32.1243 41.5794 32.1437 41.5708 32.1653C41.558 32.1999 41.5452 32.2345 41.5324 32.2669C41.5239 32.2907 41.5132 32.3123 41.5047 32.3361C41.4855 32.3837 41.4663 32.4291 41.445 32.4767C41.4258 32.5221 41.4066 32.5653 41.3853 32.6085C41.3618 32.6583 41.3383 32.7058 41.3149 32.7555C41.3063 32.7728 41.2978 32.7901 41.2893 32.8074C41.2786 32.829 41.2679 32.8507 41.2551 32.8723C41.2445 32.8939 41.2338 32.9155 41.221 32.9371C41.221 32.9371 41.221 32.9371 41.221 32.9393C41.2103 32.9609 41.1975 32.9804 41.1869 33.002C41.1762 33.0236 41.1634 33.0452 41.1506 33.0668C41.1378 33.0885 41.1272 33.1079 41.1144 33.1295C41.0845 33.1793 41.0546 33.229 41.0248 33.2787C40.9906 33.3328 40.9565 33.3868 40.9224 33.4387C40.9117 33.456 40.9011 33.4711 40.8904 33.4884C40.8563 33.5403 40.82 33.5922 40.7816 33.6441C40.2035 34.4505 39.4484 35.0926 38.5803 35.5012C38.4438 35.566 38.303 35.6244 38.1622 35.6763C38.1366 35.6849 38.1089 35.6957 38.0833 35.7044C38.0385 35.7195 37.9958 35.7346 37.9553 35.7476C37.9105 35.7606 37.8678 35.7736 37.823 35.7865C37.7932 35.7952 37.5628 35.8535 37.5329 35.8622L36.0249 35.9854C36.0249 35.9854 36.0142 35.9854 36.0078 35.9854C35.8862 35.9768 34.6746 35.9919 34.5808 35.9854C34.5403 35.9833 34.4997 35.9789 34.4592 35.9746C31.6628 35.7 29.47 33.0301 29.47 29.7764C29.47 29.6186 29.4742 29.463 29.4849 29.3095C29.5126 28.8922 29.5745 28.4858 29.6726 28.0945C29.679 28.0664 29.6875 28.0383 29.6939 28.0102C30.3616 25.4353 32.4563 23.5566 34.937 23.5566C35.1759 23.5566 35.4127 23.5739 35.6452 23.6085C35.6516 23.6085 35.658 23.6085 35.6644 23.6064C35.6964 23.602 35.7305 23.5977 35.7625 23.5934C35.786 23.5912 35.8073 23.5869 35.8308 23.5847C35.8478 23.5847 35.8628 23.5804 35.8798 23.5804C35.899 23.5804 35.9182 23.5761 35.9395 23.5761C35.9865 23.5718 36.0355 23.5696 36.0825 23.5653C36.1059 23.5653 36.1294 23.5631 36.155 23.561C36.1785 23.561 36.2019 23.5588 36.2232 23.5588C36.2424 23.5588 36.2616 23.5588 36.283 23.5588C36.3128 23.5588 36.3427 23.5588 36.3726 23.5588C38.8853 23.5588 41.0141 25.3813 41.7351 27.8956C41.7543 27.9604 41.7713 28.0275 41.7884 28.0945C41.7991 28.1377 41.8097 28.1788 41.8183 28.222C41.9356 28.7193 41.9974 29.2424 41.9974 29.7808V29.7743Z" fill="url(#paint4_linear_1078_12180)"/>
<path d="M41.8268 28.2022C41.7714 27.9406 41.6903 27.6877 41.5922 27.4391C41.4941 27.1904 41.3746 26.9505 41.2445 26.7148C41.1784 26.5959 41.1101 26.4792 41.0376 26.3646C40.9651 26.25 40.8904 26.1354 40.8136 26.0209C40.739 25.9041 40.66 25.7895 40.5768 25.6793C40.4937 25.569 40.4062 25.4631 40.3145 25.3615C39.8644 24.8621 39.297 24.4643 38.7126 24.1205C38.5931 24.0579 38.4694 23.9995 38.3457 23.9454C38.2241 23.8957 38.0982 23.8481 37.9724 23.8071C37.4647 23.6406 36.9293 23.552 36.3747 23.552C36.3449 23.552 36.315 23.552 36.2851 23.552C36.2659 23.552 36.2467 23.552 36.2254 23.552C36.2019 23.552 36.1806 23.552 36.1571 23.5541C36.1337 23.5541 36.1102 23.5541 36.0846 23.5585C36.0377 23.5606 35.9886 23.5649 35.9417 23.5693C35.9225 23.5693 35.9012 23.5736 35.882 23.5736C35.8649 23.5736 35.8478 23.5779 35.8329 23.5779C35.8095 23.5801 35.7881 23.5822 35.7647 23.5866C35.7327 23.5909 35.6985 23.5952 35.6665 23.5995C35.6665 23.5995 35.6537 23.5995 35.6473 23.6017C35.4148 23.5671 35.1781 23.5498 34.9392 23.5498C32.4605 23.5498 30.3659 25.4285 29.6961 28.0033C29.694 28.012 29.6918 28.0206 29.6897 28.0271C29.7217 27.9579 29.7537 27.8887 29.79 27.8217C30.0182 27.1126 30.4064 26.4986 30.9567 25.9819C31.4687 25.4242 32.0723 25.0307 32.772 24.7994C33.4439 24.4405 34.1691 24.2762 34.9456 24.3065C35.1994 24.3065 35.4511 24.3238 35.6964 24.3562C35.8201 24.3735 35.9417 24.3929 36.0612 24.4167C37.1895 24.5573 38.1046 24.9983 38.9706 25.7441C39.2287 25.9668 39.4677 26.2154 39.617 26.49C40.1481 27.3699 40.4339 28.2995 40.5385 29.3329C40.5619 29.5556 40.5726 29.7804 40.5747 30.0031C40.5768 30.1393 40.5747 30.2755 40.5704 30.4117C40.564 30.5479 40.5534 30.6862 40.5385 30.8224C40.5299 30.9349 40.5193 31.043 40.5043 31.1489C40.4894 31.2505 40.4723 31.3499 40.451 31.4494C40.3891 31.7499 40.3038 32.0461 40.1908 32.3336C40.1396 32.4741 40.082 32.6103 40.0201 32.7465C39.9519 32.8849 39.8793 33.0211 39.7983 33.1551C39.7172 33.287 39.6319 33.4167 39.5402 33.5421C39.4485 33.6675 39.3482 33.7864 39.2437 33.9032C38.9941 34.1258 38.8213 34.3463 38.5419 34.5842C38.4694 34.6425 38.3947 34.6987 38.3201 34.7528C38.0918 34.9171 37.8508 35.0619 37.5991 35.1852C37.4796 35.2457 37.3559 35.3019 37.2301 35.3516C37.1042 35.4014 36.9741 35.4468 36.8419 35.4857C36.6968 35.5332 36.5475 35.5765 36.3982 35.6132C36.1038 35.6846 35.8052 35.73 35.5066 35.7537C34.9093 35.7991 34.3056 35.7473 33.7105 35.6024C33.4311 35.5375 33.1559 35.4532 32.8872 35.3451C32.6184 35.237 32.356 35.1095 32.1001 34.9582C31.7502 34.6836 31.4004 34.409 31.0506 34.1366C31.5817 34.7506 32.2259 35.2392 32.9426 35.5592C33.1815 35.6651 33.429 35.7537 33.6828 35.8229C34.2075 35.9872 34.7685 36.0024 35.3295 35.9937C35.6111 35.9894 35.8905 35.9764 36.1657 35.9743C36.46 35.9764 36.7565 35.9591 37.053 35.9202C37.2002 35.9007 37.3474 35.8748 37.4946 35.8445C37.614 35.8164 37.7335 35.7862 37.8529 35.7516C37.9724 35.717 38.0897 35.6802 38.207 35.6392C39.3055 35.2349 40.178 34.4847 40.8179 33.5767C40.8904 33.4773 40.9629 33.3778 41.0312 33.2762C41.0994 33.1508 41.1656 33.0254 41.2274 32.9C41.2744 32.8071 41.3192 32.7141 41.3618 32.6211C41.5218 32.2947 41.6519 31.9531 41.7543 31.6051C41.7884 31.4883 41.8183 31.3716 41.846 31.2548C41.9143 30.9651 41.9591 30.6668 41.9847 30.3684C41.9975 30.2193 42.006 30.0701 42.0081 29.9209C42.0103 29.7718 42.0081 29.6226 42.0017 29.4734C42.006 29.147 41.9612 28.8832 41.9121 28.5935C41.8908 28.4616 41.8652 28.3319 41.8354 28.2065L41.8268 28.2022Z" fill="url(#paint5_linear_1078_12180)"/>
<path d="M34.9349 33.4841C36.7656 33.4841 38.2497 31.796 38.2497 29.7137C38.2497 27.6314 36.7656 25.9434 34.9349 25.9434C33.1042 25.9434 31.6201 27.6314 31.6201 29.7137C31.6201 31.796 33.1042 33.4841 34.9349 33.4841Z" fill="url(#paint6_linear_1078_12180)"/>
<path d="M33.5763 22.3351C32.6485 21.8941 31.5734 21.8552 29.532 21.8314C29.6792 22.761 29.7518 23.362 29.7048 23.4269C29.6024 23.5631 29.0948 24.0041 28.5018 24.4797L23.8858 24.5814L22.4716 24.8775C22.5313 24.6851 22.7382 24.1338 22.7041 22.6335C21.051 23.0702 19.9162 23.4269 18.1244 22.9124C14.9099 21.9871 15.2085 19.8727 11.3391 18.8372C8.38059 18.0459 7.44844 19.0793 5.56068 18.074C4.47495 17.4946 3.78597 16.6234 3.30816 15.6895C2.51466 16.6147 1.92381 17.579 1.78942 17.8297C0.437061 20.3462 0.014714 24.4084 0.52025 24.4084C1.02579 24.4084 7.94331 24.1511 8.44885 24.2376C8.95438 24.3241 12.7726 29.5797 13.0243 29.5797C13.276 29.5797 27.0918 29.53 28.3823 29.5018C28.4421 29.5018 28.5018 29.4824 28.553 29.45C29.2441 29.0133 35.7329 25.5607 35.9696 25.5607C36.0315 25.5607 36.3515 25.5499 36.7973 25.5348C35.944 24.0798 34.8498 22.9405 33.5763 22.3351Z" fill="url(#paint7_linear_1078_12180)"/>
<path d="M31.635 3.95439H24.0968C23.7768 3.95439 23.5166 3.69064 23.5166 3.36636C23.5166 3.04207 23.7768 2.77832 24.0968 2.77832H31.635C31.955 2.77832 32.2152 3.04207 32.2152 3.36636C32.2152 3.69064 31.955 3.95439 31.635 3.95439Z" fill="url(#paint8_linear_1078_12180)"/>
<path d="M22.4607 24.9639C22.4754 24.9815 22.4827 24.9639 22.4827 24.9639H22.4607Z" fill="#EFAF70"/>
<path d="M31.1194 2.52518C31.1194 2.75867 30.9359 2.94891 30.7097 2.94891C30.4835 2.94891 30.2999 2.75867 30.2999 2.52518C30.2999 2.29169 29.8389 1.58691 30.0652 1.58691C30.2914 1.58691 31.1194 2.29169 31.1194 2.52518Z" fill="#EC928C"/>
<path d="M33.9898 2.33301H30.69C30.4261 2.33301 30.2122 2.54982 30.2122 2.81727V3.30154C30.2122 3.56899 30.4261 3.78581 30.69 3.78581H33.9898C34.2537 3.78581 34.4676 3.56899 34.4676 3.30154V2.81727C34.4676 2.54982 34.2537 2.33301 33.9898 2.33301Z" fill="url(#paint9_linear_1078_12180)"/>
<path d="M24.7025 2.62012H21.4026C21.1387 2.62012 20.9248 2.83693 20.9248 3.10438V3.58865C20.9248 3.8561 21.1387 4.07292 21.4026 4.07292H24.7025C24.9663 4.07292 25.1803 3.8561 25.1803 3.58865V3.10438C25.1803 2.83693 24.9663 2.62012 24.7025 2.62012Z" fill="url(#paint10_linear_1078_12180)"/>
<path d="M30.861 2.35044C30.861 2.35044 30.861 2.34396 30.861 2.3418H30.5579C30.3531 2.3418 30.1887 2.58177 30.1887 2.87795V3.22818C30.1887 3.5222 30.3509 3.76 30.5515 3.76433H30.8247C30.8247 3.76433 30.8247 3.76433 30.8247 3.76217C31.0125 3.73839 31.1619 3.50706 31.1619 3.22818V2.87795C31.1619 2.6142 31.0317 2.39801 30.861 2.35044Z" fill="#BDCBD4"/>
<path d="M40.9607 24.9548C40.8818 24.4489 40.3421 23.275 39.3502 22.4405C38.5674 21.7833 38.1642 21.4547 37.9168 21.2796C37.8443 21.2277 37.7952 21.152 37.7782 21.0634C37.7483 20.9078 37.695 20.6375 37.6182 20.2808C37.5926 20.1619 37.5648 20.0343 37.5329 19.896C37.4689 19.6257 37.375 19.2885 37.3195 18.9815C37.279 18.815 37.2364 18.6421 37.1916 18.4648C37.0444 17.8465 36.9015 17.1741 36.6647 16.5234C36.622 16.3959 36.5794 16.2661 36.5367 16.1386C36.4514 15.8813 36.3639 15.6219 36.2807 15.3625C36.2402 15.2457 36.2018 15.1268 36.1613 15.0079C36.0802 14.7701 35.997 14.5301 35.9032 14.2902C35.8435 14.1345 35.7837 13.981 35.7219 13.8297C35.4766 13.2222 35.2121 12.6493 34.9326 12.1412C33.913 10.2928 33.0342 8.66274 32.5521 7.78933C32.8124 7.39803 33.0364 7.01321 33.0364 6.92673L30.3935 0.188085C30.3338 0.0799904 30.2292 0 30.1034 0H27.2451C26.8547 1.60845 27.676 7.12347 27.6824 7.16022C27.7357 7.44559 27.9533 9.53615 28.0173 9.53183C28.0173 9.53183 28.8406 9.35671 29.7258 9.1643C29.856 9.32212 29.9989 9.50156 30.1525 9.70694C30.9246 10.8246 31.7309 11.884 32.3431 13.0709C32.5138 13.3843 32.6759 13.7 32.8294 14.0221C33.1771 14.7463 33.4843 15.4922 33.7424 16.2618C33.8277 16.5191 33.9088 16.7764 33.9834 17.0401C34.073 17.3255 34.1605 17.613 34.2458 17.9005C34.7193 19.1934 34.8239 20.1619 35.2441 21.1737C35.291 21.2861 35.3699 21.379 35.4424 21.4742C35.547 21.5563 35.6536 21.632 35.7539 21.7185C37.4881 23.234 37.9915 24.596 38.2986 25.491C39.1902 25.4607 40.1245 25.4283 40.6557 25.4088C40.8818 25.4002 40.9969 25.184 40.9628 24.9592L40.9607 24.9548Z" fill="url(#paint11_linear_1078_12180)"/>
<path d="M30.3742 6.30788C31.1263 6.12107 31.5169 5.06335 31.2465 3.94539C30.9762 2.82744 30.1474 2.07259 29.3953 2.2594C28.6432 2.44622 28.2526 3.50394 28.5229 4.62189C28.7932 5.73985 29.6221 6.49469 30.3742 6.30788Z" fill="url(#paint12_linear_1078_12180)"/>
<path d="M31.2481 3.94825C31.5191 5.06596 31.2075 6.10367 30.5502 6.26581C29.895 6.42795 29.1438 5.65399 28.8749 4.53629C28.6038 3.41859 28.9154 2.38087 29.5728 2.21873C30.228 2.05659 30.9792 2.83055 31.2481 3.94825Z" fill="url(#paint13_linear_1078_12180)"/>
<path d="M21.4817 16.0505C21.1532 14.6712 19.6686 12.3537 19.6686 12.3537L11.8232 11.1992L9.29335 11.8824C9.29335 11.8824 9.84368 12.3191 10.6137 12.9201C10.1295 12.8682 9.70077 12.8055 9.34881 12.7255C9.27415 12.7082 9.20163 12.7471 9.12484 12.7536C7.47811 12.866 5.61808 13.7027 4.69447 14.3621C4.1996 14.7166 3.72392 15.1944 3.30371 15.683C3.78365 16.6169 4.47263 17.4882 5.55623 18.0676C7.44399 19.075 8.37827 18.0416 11.3347 18.8307C15.2041 19.8641 14.9054 21.9785 18.12 22.9059C19.9117 23.4226 21.0465 23.0659 22.6996 22.627C22.6933 22.32 22.6762 21.9763 22.6442 21.5828C22.4565 19.2177 21.9573 17.4298 21.4774 16.0484L21.4817 16.0505Z" fill="url(#paint14_linear_1078_12180)"/>
<path d="M35.7518 21.7165C35.6537 21.63 35.5449 21.5544 35.4404 21.4722C35.3679 21.3771 35.289 21.2841 35.242 21.1717C34.8218 20.1599 34.7173 19.1914 34.2438 17.8986C34.1584 17.6111 34.071 17.3235 33.9814 17.0382C33.9067 16.7766 33.8257 16.5171 33.7404 16.2599C33.4823 15.4924 33.1751 14.7444 32.8274 14.0201C32.6738 13.698 32.5117 13.3802 32.3411 13.0689C31.7289 11.882 30.9226 10.8227 30.1504 9.70499C29.9499 9.43907 29.7686 9.21424 29.6086 9.02615C29.2908 8.64998 29.0668 8.42298 28.9666 8.33434C28.1091 7.57335 27.8552 7.32906 27.7635 7.21231C27.7571 7.20583 27.755 7.2015 27.7507 7.19502C27.7507 7.19502 27.7486 7.19069 27.7464 7.19069C27.7464 7.18637 27.7422 7.18205 27.7422 7.17988C27.74 6.84911 27.3092 2.55774 27.2857 2.24643C27.2814 2.1059 27.2793 1.96322 27.275 1.82053C27.2665 1.39464 27.2601 0.966579 27.2558 0.532037C27.2516 0.352599 27.2473 0.175323 27.2409 -0.00195312H26.9103C26.7652 -0.00195312 26.6394 0.0953325 26.5989 0.235856C26.5754 0.318008 26.5477 0.423942 26.5157 0.549332C26.3685 1.23898 26.1893 1.93079 26.0037 2.62908C25.9675 2.76961 25.9291 2.90797 25.8928 3.04849C25.6539 4.09053 25.2742 5.10014 25.1121 6.14217C25.0737 6.30215 25.0375 6.45132 25.0033 6.5832C24.9052 6.98315 24.8433 7.24907 24.8305 7.30528C24.8135 7.39391 25.1036 7.64469 25.511 7.94736C25.5921 8.00789 25.6795 8.07059 25.7691 8.13545C26.2042 8.45325 26.6628 8.73429 27.1193 9.03912C27.7081 11.9923 29.0369 18.7374 29.5276 21.8268C31.5668 21.8506 32.6418 21.8895 33.5718 22.3305C34.8453 22.9358 35.9395 24.0751 36.7928 25.5301C37.213 25.515 37.7484 25.4955 38.288 25.4761C37.9809 24.581 37.4775 23.2234 35.7476 21.7122L35.7518 21.7165Z" fill="url(#paint15_linear_1078_12180)"/>
<path d="M19.3743 9.61236C18.9519 9.5475 7.29259 9.38104 6.12794 9.68803C5.45816 9.8653 6.77639 11.7094 8.91159 12.5893C9.01398 12.6325 9.13343 12.6715 9.26781 12.7082C9.99092 12.9028 11.1342 13.0087 12.4226 13.0541C15.8398 13.1752 19.6772 13.0022 19.963 12.7774C20.3747 12.4509 19.7987 9.67938 19.3743 9.61236Z" fill="url(#paint16_linear_1078_12180)"/>
</g>
<defs>
<linearGradient id="paint0_linear_1078_12180" x1="20.6434" y1="48.5782" x2="20.6434" y2="28.8747" gradientUnits="userSpaceOnUse">
<stop offset="0.13" stop-color="#4D2C89"/>
<stop offset="1" stop-color="#1A0559"/>
</linearGradient>
<linearGradient id="paint1_linear_1078_12180" x1="6.26438" y1="15.8083" x2="6.26438" y2="76.32" gradientUnits="userSpaceOnUse">
<stop offset="0.13" stop-color="#4D2C89"/>
<stop offset="1" stop-color="#1A0559"/>
</linearGradient>
<linearGradient id="paint2_linear_1078_12180" x1="6.37532" y1="3.37445" x2="6.37532" y2="50.0867" gradientUnits="userSpaceOnUse">
<stop offset="0.13" stop-color="#4D2C89"/>
<stop offset="1" stop-color="#1A0559"/>
</linearGradient>
<linearGradient id="paint3_linear_1078_12180" x1="5.46658" y1="7.1647" x2="5.46658" y2="42.4124" gradientUnits="userSpaceOnUse">
<stop offset="0.13" stop-color="#4D2C89"/>
<stop offset="1" stop-color="#1A0559"/>
</linearGradient>
<linearGradient id="paint4_linear_1078_12180" x1="35.7326" y1="16.7012" x2="35.7326" y2="71.8449" gradientUnits="userSpaceOnUse">
<stop offset="0.13" stop-color="#4D2C89"/>
<stop offset="1" stop-color="#1A0559"/>
</linearGradient>
<linearGradient id="paint5_linear_1078_12180" x1="35.8436" y1="2.55341" x2="35.8436" y2="49.7499" gradientUnits="userSpaceOnUse">
<stop offset="0.13" stop-color="#4D2C89"/>
<stop offset="1" stop-color="#1A0559"/>
</linearGradient>
<linearGradient id="paint6_linear_1078_12180" x1="34.9349" y1="6.48841" x2="34.9349" y2="42.3003" gradientUnits="userSpaceOnUse">
<stop offset="0.13" stop-color="#4D2C89"/>
<stop offset="1" stop-color="#1A0559"/>
</linearGradient>
<linearGradient id="paint7_linear_1078_12180" x1="10.1212" y1="32.602" x2="48.358" y2="-12.3592" gradientUnits="userSpaceOnUse">
<stop stop-color="#0C4AE3"/>
<stop offset="1" stop-color="#90C5FF"/>
</linearGradient>
<linearGradient id="paint8_linear_1078_12180" x1="24.6557" y1="3.36636" x2="93.5322" y2="3.36636" gradientUnits="userSpaceOnUse">
<stop offset="0.13" stop-color="#4D2C89"/>
<stop offset="1" stop-color="#1A0559"/>
</linearGradient>
<linearGradient id="paint9_linear_1078_12180" x1="32.341" y1="14.1781" x2="32.341" y2="2.78052" gradientUnits="userSpaceOnUse">
<stop offset="0.13" stop-color="#4D2C89"/>
<stop offset="1" stop-color="#1A0559"/>
</linearGradient>
<linearGradient id="paint10_linear_1078_12180" x1="23.0536" y1="14.022" x2="23.0536" y2="3.0979" gradientUnits="userSpaceOnUse">
<stop offset="0.13" stop-color="#4D2C89"/>
<stop offset="1" stop-color="#1A0559"/>
</linearGradient>
<linearGradient id="paint11_linear_1078_12180" x1="-32.3506" y1="92.8645" x2="57.6198" y2="-12.9273" gradientUnits="userSpaceOnUse">
<stop stop-color="#0C4AE3"/>
<stop offset="0.89" stop-color="#90C5FF"/>
</linearGradient>
<linearGradient id="paint12_linear_1078_12180" x1="29.8835" y1="10.845" x2="29.8814" y2="-8.38616" gradientUnits="userSpaceOnUse">
<stop stop-color="#5597EA"/>
<stop offset="1" stop-color="#B2CBFB"/>
</linearGradient>
<linearGradient id="paint13_linear_1078_12180" x1="2.66493" y1="80.4904" x2="31.5303" y2="2.20087" gradientUnits="userSpaceOnUse">
<stop stop-color="#5597EA"/>
<stop offset="1" stop-color="#B2CBFB"/>
</linearGradient>
<linearGradient id="paint14_linear_1078_12180" x1="3.42743" y1="30.7255" x2="31.8467" y2="-2.6913" gradientUnits="userSpaceOnUse">
<stop stop-color="#0C4AE3"/>
<stop offset="0.89" stop-color="#90C5FF"/>
</linearGradient>
<linearGradient id="paint15_linear_1078_12180" x1="14.2335" y1="34.8371" x2="45.8617" y2="-2.35304" gradientUnits="userSpaceOnUse">
<stop stop-color="#0C4AE3"/>
<stop offset="0.89" stop-color="#90C5FF"/>
</linearGradient>
<linearGradient id="paint16_linear_1078_12180" x1="13.0305" y1="29.3592" x2="13.0305" y2="9.97772" gradientUnits="userSpaceOnUse">
<stop offset="0.13" stop-color="#4D2C89"/>
<stop offset="1" stop-color="#1A0559"/>
</linearGradient>
<clipPath id="clip0_1078_12180">
<rect width="42" height="36" fill="white"/>
</clipPath>
</defs>
</svg>
