<svg width="22" height="22" viewBox="0 0 22 22" fill="none" xmlns="http://www.w3.org/2000/svg">
<path opacity="0.5" fill-rule="evenodd" clip-rule="evenodd" d="M13.0891 1.97234C12.7499 1.83301 12.3191 1.83301 11.4583 1.83301C10.5976 1.83301 10.1667 1.83301 9.82758 1.97234C9.37608 2.1577 9.01668 2.51479 8.82842 2.96509C8.74225 3.16951 8.70925 3.40876 8.6955 3.75617C8.68939 4.00789 8.61917 4.2539 8.49149 4.47092C8.36381 4.68794 8.18289 4.86881 7.96583 4.99642C7.74468 5.11935 7.49608 5.18447 7.24306 5.18576C6.99005 5.18704 6.7408 5.12444 6.51842 5.00376C6.20858 4.84059 5.984 4.75076 5.76217 4.72142C5.27684 4.6577 4.78598 4.78816 4.39633 5.08442C4.10483 5.30626 3.88942 5.67659 3.4595 6.41634C3.02867 7.15609 2.81417 7.52551 2.76558 7.88759C2.70142 8.36976 2.83342 8.85742 3.13225 9.24334C3.26792 9.41934 3.4595 9.56692 3.75558 9.75209C4.19283 10.0243 4.47333 10.4882 4.47333 10.9997C4.47333 11.5112 4.19283 11.975 3.7565 12.2463C3.4595 12.4324 3.26792 12.58 3.13133 12.756C2.98383 12.9466 2.87555 13.1646 2.81278 13.3973C2.75 13.63 2.73396 13.8728 2.76558 14.1118C2.81417 14.4729 3.02867 14.8433 3.4595 15.583C3.89033 16.3228 4.10483 16.6922 4.39633 16.9149C4.785 17.211 5.27633 17.3412 5.76217 17.2779C5.984 17.2486 6.20858 17.1588 6.51842 16.9956C6.74091 16.8747 6.99033 16.8121 7.24352 16.8133C7.49672 16.8146 7.74549 16.8798 7.96675 17.0029C8.41225 17.2596 8.67625 17.7317 8.6955 18.2432C8.70925 18.5915 8.74225 18.8298 8.82842 19.0343C9.01542 19.4834 9.37475 19.8409 9.82758 20.027C10.1667 20.1663 10.5976 20.1663 11.4583 20.1663C12.3191 20.1663 12.7499 20.1663 13.0891 20.027C13.5406 19.8416 13.9 19.4846 14.0883 19.0343C14.1744 18.8298 14.2074 18.5915 14.2212 18.2432C14.2395 17.7317 14.5044 17.2587 14.9508 17.0029C15.172 16.88 15.4206 16.8149 15.6736 16.8136C15.9266 16.8123 16.1759 16.8749 16.3982 16.9956C16.7081 17.1588 16.9327 17.2486 17.1545 17.2779C17.6403 17.3421 18.1317 17.211 18.5203 16.9149C18.8118 16.6931 19.0272 16.3228 19.4572 15.583C19.888 14.8433 20.1025 14.4738 20.1511 14.1118C20.1826 13.8728 20.1664 13.6299 20.1035 13.3972C20.0405 13.1645 19.9321 12.9466 19.7844 12.756C19.6487 12.58 19.4572 12.4324 19.1611 12.2473C18.7238 11.975 18.4433 11.5112 18.4433 10.9997C18.4433 10.4882 18.7238 10.0243 19.1602 9.75301C19.4572 9.56693 19.6487 9.41934 19.7853 9.24334C19.9328 9.05273 20.0411 8.83477 20.1039 8.60207C20.1667 8.36937 20.1827 8.12653 20.1511 7.88759C20.1025 7.52642 19.888 7.15609 19.4572 6.41634C19.0263 5.67659 18.8118 5.30717 18.5203 5.08442C18.1307 4.78816 17.6398 4.6577 17.1545 4.72142C16.9327 4.75076 16.7081 4.84059 16.3982 5.00376C16.1758 5.1246 15.9263 5.18729 15.6731 5.18601C15.4199 5.18473 15.1712 5.11951 14.9499 4.99642C14.733 4.8687 14.5523 4.68778 14.4248 4.47076C14.2973 4.25375 14.2272 4.00781 14.2212 3.75617C14.2074 3.40784 14.1744 3.16951 14.0883 2.96509C13.9951 2.7421 13.8589 2.53965 13.6874 2.36931C13.516 2.19897 13.3127 2.06408 13.0891 1.97234Z" fill="#9999A0"/>
<path d="M14.2294 11C14.2294 12.5189 12.9883 13.75 11.4583 13.75C9.92751 13.75 8.68726 12.5189 8.68726 11C8.68726 9.48108 9.92751 8.25 11.4583 8.25C12.9892 8.25 14.2294 9.48108 14.2294 11Z" fill="#9999A0"/>
</svg>
