<svg width="22" height="22" viewBox="0 0 22 22" fill="none" xmlns="http://www.w3.org/2000/svg">
<path opacity="0.5" fill-rule="evenodd" clip-rule="evenodd" d="M13.0891 1.97234C12.75 1.83301 12.3191 1.83301 11.4584 1.83301C10.5976 1.83301 10.1668 1.83301 9.82763 1.97234C9.37613 2.1577 9.01673 2.51479 8.82846 2.96509C8.74229 3.16951 8.7093 3.40876 8.69555 3.75617C8.68943 4.00789 8.61922 4.2539 8.49154 4.47092C8.36386 4.68794 8.18294 4.86881 7.96588 4.99642C7.74473 5.11935 7.49613 5.18447 7.24311 5.18576C6.99009 5.18704 6.74085 5.12444 6.51846 5.00376C6.20863 4.84059 5.98405 4.75076 5.76221 4.72142C5.27689 4.6577 4.78603 4.78816 4.39638 5.08442C4.10488 5.30626 3.88946 5.67659 3.45955 6.41634C3.02871 7.15609 2.81421 7.52551 2.76563 7.88759C2.70146 8.36976 2.83346 8.85742 3.1323 9.24334C3.26796 9.41934 3.45955 9.56692 3.75563 9.75209C4.19288 10.0243 4.47338 10.4882 4.47338 10.9997C4.47338 11.5112 4.19288 11.975 3.75655 12.2463C3.45955 12.4324 3.26796 12.58 3.13138 12.756C2.98387 12.9466 2.8756 13.1646 2.81282 13.3973C2.75004 13.63 2.734 13.8728 2.76563 14.1118C2.81421 14.4729 3.02871 14.8433 3.45955 15.583C3.89038 16.3228 4.10488 16.6922 4.39638 16.9149C4.78505 17.211 5.27638 17.3412 5.76221 17.2779C5.98405 17.2486 6.20863 17.1588 6.51846 16.9956C6.74096 16.8747 6.99038 16.8121 7.24357 16.8133C7.49676 16.8146 7.74553 16.8798 7.9668 17.0029C8.4123 17.2596 8.6763 17.7317 8.69555 18.2432C8.7093 18.5915 8.74229 18.8298 8.82846 19.0343C9.01546 19.4834 9.37479 19.8409 9.82763 20.027C10.1668 20.1663 10.5976 20.1663 11.4584 20.1663C12.3191 20.1663 12.75 20.1663 13.0891 20.027C13.5406 19.8416 13.9 19.4846 14.0883 19.0343C14.1745 18.8298 14.2075 18.5915 14.2212 18.2432C14.2395 17.7317 14.5045 17.2587 14.9509 17.0029C15.172 16.88 15.4206 16.8149 15.6736 16.8136C15.9267 16.8123 16.1759 16.8749 16.3983 16.9956C16.7081 17.1588 16.9327 17.2486 17.1545 17.2779C17.6404 17.3421 18.1317 17.211 18.5204 16.9149C18.8119 16.6931 19.0273 16.3228 19.4572 15.583C19.888 14.8433 20.1025 14.4738 20.1511 14.1118C20.1826 13.8728 20.1664 13.6299 20.1035 13.3972C20.0406 13.1645 19.9321 12.9466 19.7845 12.756C19.6488 12.58 19.4572 12.4324 19.1611 12.2473C18.7239 11.975 18.4434 11.5112 18.4434 10.9997C18.4434 10.4882 18.7239 10.0243 19.1602 9.75301C19.4572 9.56693 19.6488 9.41934 19.7854 9.24334C19.9329 9.05273 20.0412 8.83477 20.1039 8.60207C20.1667 8.36937 20.1828 8.12653 20.1511 7.88759C20.1025 7.52642 19.888 7.15609 19.4572 6.41634C19.0264 5.67659 18.8119 5.30717 18.5204 5.08442C18.1307 4.78816 17.6399 4.6577 17.1545 4.72142C16.9327 4.75076 16.7081 4.84059 16.3983 5.00376C16.1758 5.1246 15.9264 5.18729 15.6732 5.18601C15.42 5.18473 15.1712 5.11951 14.95 4.99642C14.7331 4.8687 14.5523 4.68778 14.4248 4.47076C14.2973 4.25375 14.2272 4.00781 14.2212 3.75617C14.2075 3.40784 14.1745 3.16951 14.0883 2.96509C13.9951 2.7421 13.8589 2.53965 13.6875 2.36931C13.516 2.19897 13.3127 2.06408 13.0891 1.97234Z" fill="#DD5858"/>
<path d="M14.2294 11C14.2294 12.5189 12.9883 13.75 11.4583 13.75C9.92751 13.75 8.68726 12.5189 8.68726 11C8.68726 9.48108 9.92751 8.25 11.4583 8.25C12.9892 8.25 14.2294 9.48108 14.2294 11Z" fill="#DD5858"/>
</svg>
