<svg width="72" height="50" viewBox="0 0 72 50" fill="none" xmlns="http://www.w3.org/2000/svg">
<circle cx="38" cy="23" r="23" fill="url(#paint0_linear_1078_12155)"/>
<path d="M59.8825 31.8037C59.8927 31.8037 59.9046 31.8037 59.9148 31.8037H61.8692C65.2198 31.8261 67.9309 35.0941 67.9309 39.122C67.9309 43.1499 65.2198 46.4178 61.8692 46.4402H59.9148C59.9046 46.4402 59.8927 46.4402 59.8825 46.4402C56.5166 46.4402 53.7886 43.1641 53.7886 39.122C53.7886 35.0798 56.5166 31.8037 59.8825 31.8037Z" fill="url(#paint1_linear_1078_12155)"/>
<path d="M60.8628 46.3403C64.1849 45.6927 66.4409 41.9335 65.9016 37.944C65.3624 33.9544 62.2321 31.2453 58.91 31.8929C55.5879 32.5405 53.3319 36.2996 53.8712 40.2891C54.4104 44.2787 57.5407 46.9879 60.8628 46.3403Z" fill="url(#paint2_linear_1078_12155)"/>
<path d="M28.1589 31.8037C28.1691 31.8037 28.181 31.8037 28.1911 31.8037H30.1455C33.4962 31.8261 36.2073 35.0941 36.2073 39.122C36.2073 43.1499 33.4962 46.4178 30.1455 46.4402H28.1911C28.181 46.4402 28.1691 46.4402 28.1589 46.4402C24.793 46.4402 22.0649 43.1641 22.0649 39.122C22.0649 35.0798 24.793 31.8037 28.1589 31.8037Z" fill="url(#paint3_linear_1078_12155)"/>
<path d="M32.4687 44.2978C34.8486 41.4399 34.8486 36.8062 32.4687 33.9483C30.0889 31.0903 26.2304 31.0903 23.8506 33.9483C21.4707 36.8062 21.4707 41.4399 23.8506 44.2978C26.2304 47.1558 30.0889 47.1558 32.4687 44.2978Z" fill="url(#paint4_linear_1078_12155)"/>
<path d="M36.0885 11.7666C40.2196 11.7666 44.9869 15.1486 47.2127 17.3347C49.4369 19.5229 50.8671 21.1141 50.8671 21.1141C50.8671 21.1141 58.1774 22.1287 63.5792 23.7789C68.9827 25.4292 72.0008 30.0418 72.0008 30.0418C72.0008 30.0418 71.5241 34.8643 71.2069 37.411C70.8896 39.9577 69.1405 40.8684 66.4396 40.8684H4.14777C0.810678 40.8684 -0.142777 39.5951 0.0166979 35.4103C0.176173 31.2256 0.6529 23.9806 2.24086 21.5949C4.48538 18.2251 11.1392 11.7666 16.3832 11.7666H36.0885Z" fill="url(#paint5_linear_1078_12155)"/>
<path d="M40.1162 31.8037C40.1264 31.8037 40.1382 31.8037 40.1484 31.8037H42.1028C45.4535 31.8261 48.1645 35.0941 48.1645 39.122C48.1645 43.1499 45.4535 46.4178 42.1028 46.4402H40.1484C40.1382 46.4402 40.1264 46.4402 40.1162 46.4402C36.7502 46.4402 34.0222 43.1641 34.0222 39.122C34.0222 35.0798 36.7502 31.8037 40.1162 31.8037Z" fill="url(#paint6_linear_1078_12155)"/>
<path d="M41.5131 46.2476C44.7887 45.3192 46.8174 41.3777 46.0443 37.444C45.2712 33.5103 41.9891 31.0741 38.7135 32.0025C35.4379 32.931 33.4092 36.8725 34.1823 40.8061C34.9554 44.7398 38.2375 47.1761 41.5131 46.2476Z" fill="url(#paint7_linear_1078_12155)"/>
<path d="M40.116 43.388C42.078 43.388 43.6686 41.4779 43.6686 39.1217C43.6686 36.7655 42.078 34.8555 40.116 34.8555C38.154 34.8555 36.5635 36.7655 36.5635 39.1217C36.5635 41.4779 38.154 43.388 40.116 43.388Z" fill="url(#paint8_linear_1078_12155)"/>
<path d="M8.39279 31.8037C8.40296 31.8037 8.41484 31.8037 8.42502 31.8037H10.3794C13.7301 31.8261 16.4412 35.0941 16.4412 39.122C16.4412 43.1499 13.7301 46.4178 10.3794 46.4402H8.42502C8.41484 46.4402 8.40296 46.4402 8.39279 46.4402C5.02686 46.4402 2.29883 43.1641 2.29883 39.122C2.29883 35.0798 5.02686 31.8037 8.39279 31.8037Z" fill="url(#paint9_linear_1078_12155)"/>
<path d="M9.37307 46.3422C12.6952 45.6946 14.9511 41.9355 14.4119 37.9459C13.8726 33.9564 10.7424 31.2472 7.42025 31.8948C4.09814 32.5424 1.84218 36.3015 2.38144 40.2911C2.92069 44.2806 6.05095 46.9898 9.37307 46.3422Z" fill="url(#paint10_linear_1078_12155)"/>
<path d="M8.39263 43.388C10.3546 43.388 11.9452 41.4779 11.9452 39.1217C11.9452 36.7655 10.3546 34.8555 8.39263 34.8555C6.43062 34.8555 4.84009 36.7655 4.84009 39.1217C4.84009 41.4779 6.43062 43.388 8.39263 43.388Z" fill="url(#paint11_linear_1078_12155)"/>
<path d="M0.015086 35.4103C0.17456 31.2256 0.651286 23.9806 2.23924 21.5949C4.48375 18.2251 11.1376 11.7666 16.3815 11.7666H36.0868C40.2178 11.7666 44.9851 15.1486 47.2109 17.3347C49.4351 19.5229 50.8653 21.1141 50.8653 21.1141C50.8653 21.1141 58.1756 22.1287 63.5774 23.7789C68.9809 25.4292 71.999 30.0418 71.999 30.0418C71.999 30.0418 71.5223 34.8643 71.205 37.411C70.8878 39.9577 69.1386 40.8684 66.4378 40.8684H46.9514C47.0515 40.3041 47.1041 39.7214 47.1041 39.1224C47.1041 34.4935 43.9689 30.7284 40.1143 30.7284C36.2598 30.7284 33.1246 34.4935 33.1246 39.1224C33.1246 39.7214 33.1772 40.3061 33.2773 40.8684H15.2279C15.3382 40.2776 15.3976 39.6623 15.3976 39.0328C15.3976 34.4038 12.2624 30.6388 8.40784 30.6388C4.55331 30.6388 1.41812 34.4038 1.41812 39.0328C1.41812 39.483 1.44866 39.9231 1.50464 40.353C0.288228 39.6521 -0.0884022 38.1587 0.0167829 35.4103H0.015086Z" fill="url(#paint12_linear_1078_12155)"/>
<path d="M44.668 29.5133C34.7365 27.0318 33.4658 31.6118 25.9959 31.6118C18.5261 31.6118 16.9772 26.3166 11.3362 26.3166C5.69521 26.3166 1.75586 22.5394 1.75586 22.5394C1.90346 22.1726 2.06463 21.8528 2.23767 21.592C4.48219 18.2221 11.136 11.7637 16.38 11.7637H36.0852C40.2163 11.7637 44.9836 15.1457 47.2094 17.3318C49.4336 19.52 50.8638 21.1112 50.8638 21.1112C50.8638 21.1112 58.1741 22.1258 63.5759 23.776C68.9793 25.4263 71.9975 30.0389 71.9975 30.0389C71.9975 30.0389 71.95 30.5177 71.8753 31.2532C69.9803 32.007 67.3286 32.6203 63.6946 32.6121C58.8935 32.602 53.205 31.6444 44.6646 29.5113L44.668 29.5133Z" fill="url(#paint13_linear_1078_12155)"/>
<path d="M28.0351 13.3045C27.7976 13.1354 27.9045 12.7197 28.1878 12.7197H35.0146C39.3102 12.7197 44.181 16.222 46.1558 18.0719C47.5333 19.3636 48.6242 20.4516 49.2757 21.1157H36.2378C35.5032 21.1157 34.8043 20.7592 34.3224 20.1358C34.1222 19.877 33.9085 19.604 33.693 19.3249C33.2468 18.7524 32.7871 18.1595 32.4104 17.6665C31.9337 17.041 30.1761 14.8325 28.0334 13.3024L28.0351 13.3045Z" fill="url(#paint14_linear_1078_12155)"/>
<path d="M24.8455 12.7197C26.9831 12.7197 29.3328 15.7187 30.9767 18.2879C31.294 18.783 31.6825 19.3779 32.0574 19.9545C32.0608 19.9585 32.0625 19.9626 32.0659 19.9667C32.3611 20.419 32.1168 21.1178 31.6655 21.1178H19.8237L20.7772 12.7218H24.8472L24.8455 12.7197Z" fill="url(#paint15_linear_1078_12155)"/>
<path d="M8.30938 18.4081C10.8881 15.5374 14.4084 12.7197 17.2603 12.7197H20.0511L19.0976 21.1157H10.2621C10.1043 21.1157 9.94823 21.0648 9.80911 20.9691L8.4451 20.0237C7.97855 19.6998 7.9056 18.8563 8.30768 18.4081H8.30938Z" fill="url(#paint16_linear_1078_12155)"/>
<path d="M47.8031 28.4728L54.3331 30.5814C55.2611 30.8809 55.882 30.6324 55.6292 30.0028L54.4026 26.9488C54.1499 26.3193 53.1998 25.7488 52.3668 25.6856L46.507 25.2476C46.1728 25.2232 46.032 25.4982 46.1762 25.8568L46.8768 27.6008C47.021 27.9614 47.4282 28.3485 47.7998 28.4687L47.8031 28.4728Z" fill="url(#paint17_linear_1078_12155)"/>
<path d="M60.0791 37.4022H67.135C67.4132 37.4022 67.6999 37.0395 67.7746 36.5648L67.9985 35.1468C68.1003 34.505 67.8933 33.9346 67.532 33.9346H58.3639C58.0008 33.9346 58.0127 34.505 58.3571 35.1468L59.1206 36.5648C59.3767 37.0395 59.7992 37.4022 60.0791 37.4022Z" fill="url(#paint18_linear_1078_12155)"/>
<defs>
<linearGradient id="paint0_linear_1078_12155" x1="104" y1="-63.5" x2="9" y2="59.5" gradientUnits="userSpaceOnUse">
<stop stop-color="white"/>
<stop offset="1" stop-color="#B2CBFB"/>
</linearGradient>
<linearGradient id="paint1_linear_1078_12155" x1="60.8597" y1="71.8524" x2="60.8597" y2="21.1625" gradientUnits="userSpaceOnUse">
<stop offset="0.13" stop-color="#4D2C89"/>
<stop offset="1" stop-color="#1A0559"/>
</linearGradient>
<linearGradient id="paint2_linear_1078_12155" x1="59.8808" y1="85.0995" x2="59.8808" y2="46.6033" gradientUnits="userSpaceOnUse">
<stop offset="0.13" stop-color="#4D2C89"/>
<stop offset="1" stop-color="#1A0559"/>
</linearGradient>
<linearGradient id="paint3_linear_1078_12155" x1="29.1361" y1="-71.1246" x2="29.1361" y2="-71.1246" gradientUnits="userSpaceOnUse">
<stop offset="0.13" stop-color="#4D2C89"/>
<stop offset="1" stop-color="#1A0559"/>
</linearGradient>
<linearGradient id="paint4_linear_1078_12155" x1="28.1594" y1="85.0616" x2="28.1594" y2="46.5655" gradientUnits="userSpaceOnUse">
<stop offset="0.13" stop-color="#4D2C89"/>
<stop offset="1" stop-color="#1A0559"/>
</linearGradient>
<linearGradient id="paint5_linear_1078_12155" x1="35.9986" y1="-8.26281" x2="35.9986" y2="84.346" gradientUnits="userSpaceOnUse">
<stop offset="0.13" stop-color="#4D2C89"/>
<stop offset="1" stop-color="#1A0559"/>
</linearGradient>
<linearGradient id="paint6_linear_1078_12155" x1="41.0934" y1="1.49976" x2="41.0934" y2="74.1506" gradientUnits="userSpaceOnUse">
<stop offset="0.13" stop-color="#4D2C89"/>
<stop offset="1" stop-color="#1A0559"/>
</linearGradient>
<linearGradient id="paint7_linear_1078_12155" x1="40.1158" y1="20.4118" x2="40.1158" y2="109.166" gradientUnits="userSpaceOnUse">
<stop offset="0.13" stop-color="#4D2C89"/>
<stop offset="1" stop-color="#1A0559"/>
</linearGradient>
<linearGradient id="paint8_linear_1078_12155" x1="40.1143" y1="1.49957" x2="40.1143" y2="74.1503" gradientUnits="userSpaceOnUse">
<stop offset="0.13" stop-color="#4D2C89"/>
<stop offset="1" stop-color="#1A0559"/>
</linearGradient>
<linearGradient id="paint9_linear_1078_12155" x1="9.36999" y1="1.49976" x2="9.36999" y2="74.1506" gradientUnits="userSpaceOnUse">
<stop offset="0.13" stop-color="#4D2C89"/>
<stop offset="1" stop-color="#1A0559"/>
</linearGradient>
<linearGradient id="paint10_linear_1078_12155" x1="8.39409" y1="20.4882" x2="8.3941" y2="109.242" gradientUnits="userSpaceOnUse">
<stop offset="0.13" stop-color="#4D2C89"/>
<stop offset="1" stop-color="#1A0559"/>
</linearGradient>
<linearGradient id="paint11_linear_1078_12155" x1="8.39263" y1="1.49957" x2="8.39263" y2="74.1503" gradientUnits="userSpaceOnUse">
<stop offset="0.13" stop-color="#4D2C89"/>
<stop offset="1" stop-color="#1A0559"/>
</linearGradient>
<linearGradient id="paint12_linear_1078_12155" x1="17.3282" y1="67.4826" x2="110.586" y2="-58.1506" gradientUnits="userSpaceOnUse">
<stop stop-color="#0C4AE3"/>
<stop offset="1" stop-color="#90C5FF"/>
</linearGradient>
<linearGradient id="paint13_linear_1078_12155" x1="26.7797" y1="72.3512" x2="57.4413" y2="-23.9168" gradientUnits="userSpaceOnUse">
<stop stop-color="#0C4AE3"/>
<stop offset="1" stop-color="#90C5FF"/>
</linearGradient>
<linearGradient id="paint14_linear_1078_12155" x1="39.1219" y1="10.0773" x2="34.3123" y2="53.8505" gradientUnits="userSpaceOnUse">
<stop stop-color="#0C4AE3"/>
<stop offset="1" stop-color="#90C5FF"/>
</linearGradient>
<linearGradient id="paint15_linear_1078_12155" x1="26.9254" y1="8.73666" x2="22.1157" y2="52.51" gradientUnits="userSpaceOnUse">
<stop stop-color="#0C4AE3"/>
<stop offset="1" stop-color="#90C5FF"/>
</linearGradient>
<linearGradient id="paint16_linear_1078_12155" x1="14.6968" y1="7.39403" x2="9.88716" y2="51.1673" gradientUnits="userSpaceOnUse">
<stop stop-color="#0C4AE3"/>
<stop offset="1" stop-color="#90C5FF"/>
</linearGradient>
<linearGradient id="paint17_linear_1078_12155" x1="50.9044" y1="57.7824" x2="50.9044" y2="24.7525" gradientUnits="userSpaceOnUse">
<stop stop-color="#5597EA"/>
<stop offset="1" stop-color="#B2CBFB"/>
</linearGradient>
<linearGradient id="paint18_linear_1078_12155" x1="63.0599" y1="15.2824" x2="63.0599" y2="58.7865" gradientUnits="userSpaceOnUse">
<stop offset="0.13" stop-color="#4D2C89"/>
<stop offset="1" stop-color="#1A0559"/>
</linearGradient>
</defs>
</svg>
