<svg width="74" height="36" viewBox="0 0 74 36" fill="none" xmlns="http://www.w3.org/2000/svg">
<path d="M30.8872 0.500679C27.6161 0.451385 24.7128 3.08976 24.7128 6.90802V24.1018C24.7162 24.7207 24.2528 25.2697 23.5782 25.2697H18.1909C6.53308 25.2836 7.57479 10.4017 17.4977 10.3877C21.909 10.3815 23.4509 10.3877 23.4509 10.3877V6.21811H17.2861C13.4231 6.22434 10.4986 7.69192 8.53147 9.87989C6.56427 12.0679 5.55715 14.9818 5.55871 17.8776C5.56024 20.6654 6.51335 23.5587 8.50425 25.7515C10.4951 27.9443 13.5223 29.4439 17.706 29.4439H27.8746C28.4624 29.4439 28.9608 28.9472 28.9608 28.3679V7.36168C28.9543 6.26319 29.5255 5.38007 30.4437 5.08776H30.4439C31.3346 4.805 32.313 5.17326 32.9027 6.01003L32.9053 6.01376L32.9076 6.01764C34.3366 8.35368 37.9073 14.0843 41.1326 19.2501C42.7452 21.8329 44.2716 24.2748 45.401 26.081C45.9657 26.9841 46.4312 27.7283 46.7586 28.2518C47.0834 28.7711 47.2639 29.0596 47.2841 29.0923C47.5219 29.4276 47.8213 29.5536 48.0707 29.4752H48.0708L48.0711 29.4751C48.2126 29.4312 48.3239 29.3318 48.4072 29.1681C48.4905 29.0045 48.5398 28.7772 48.5398 28.5042V7.3647C48.5364 6.2697 49.104 5.38473 50.0254 5.09408C50.9107 4.8109 51.892 5.17918 52.4758 6.01678L52.4781 6.02009L52.4801 6.02354C53.9123 8.35809 57.4846 14.0887 60.7106 19.2545C63.9348 24.4173 66.8175 29.0233 66.8627 29.095C66.8628 29.0952 66.8629 29.0953 66.863 29.0954C67.0961 29.4287 67.4144 29.5617 67.6803 29.4781C67.8242 29.4327 67.9392 29.3312 68.025 29.1674C68.1107 29.0036 68.162 28.778 68.162 28.5074V0.630872V0.629435H63.945V16.9083C63.945 16.9083 61.3336 12.4906 56.882 4.86588C52.5266 -2.6037 44.3072 0.483606 44.3038 6.91103V16.9053C44.3038 16.9053 41.7551 12.4844 37.3064 4.8597C35.5358 1.82641 33.1254 0.534407 30.8872 0.500679ZM18.048 0.629435C-6.18454 0.626426 -5.95465 35.0683 18.3744 35.084H27.8806C31.9717 35.087 34.5987 32.6663 34.5955 28.2049V19.481C34.5955 19.481 39.9271 28.2997 42.0193 31.7516C45.5789 37.6209 54.1929 36.4669 54.1712 29.1354V19.4872C54.1712 19.4872 59.5026 28.3026 61.5978 31.7592C65.1574 37.6268 73.7719 36.4715 73.75 29.1383V0.629435H69.5394V28.5071V28.5074C69.5424 29.8248 68.8022 30.5611 68.0968 30.7835L68.0964 30.7836C67.2361 31.0572 66.3002 30.6911 65.7183 29.8595L65.7163 29.8566L65.7144 29.8537C65.594 29.662 54.1833 11.4327 51.3304 6.77538C51.0937 6.44007 50.747 6.3023 50.4393 6.39931C50.1199 6.50139 49.9169 6.83867 49.9169 7.36412V28.5008V28.5011C49.9202 29.8238 49.1926 30.5579 48.4903 30.7835L48.4899 30.7836L48.4894 30.7838C47.6417 31.0495 46.7207 30.6841 46.1424 29.8532L46.141 29.8512L46.1397 29.8491C46.1166 29.8134 45.9325 29.5195 45.6032 28.9938C45.274 28.4682 44.8069 27.7221 44.2409 26.8173C43.1088 25.0079 41.5808 22.5639 39.9676 19.9805C36.7426 14.816 33.1793 9.09739 31.7548 6.7692C31.5184 6.43441 31.1685 6.29909 30.8603 6.39644V6.3963C30.5373 6.49855 30.3323 6.83577 30.3353 7.35708V7.35751V28.3677C30.3353 29.7162 29.2272 30.8148 27.8746 30.8148H17.7059C13.0793 30.8148 9.69152 29.1393 7.46901 26.6817C5.2465 24.224 4.18756 20.9915 4.1844 17.8776C4.18124 14.6465 5.30287 11.3942 7.50445 8.94454C9.70602 6.49487 12.9904 4.85332 17.2829 4.84706H17.2831H23.4509V0.629435H18.048Z" fill="#EC1C2E"/>
</svg>
