<svg width="22" height="22" viewBox="0 0 22 22" fill="none" xmlns="http://www.w3.org/2000/svg">
<g opacity="0.5">
<path d="M1.83337 5.69217C1.83337 3.87351 1.83337 2.96326 2.43746 2.39859C3.04154 1.83301 4.01412 1.83301 5.95837 1.83301C7.90262 1.83301 8.87521 1.83301 9.47929 2.39859C10.0834 2.96326 10.0834 3.87351 10.0834 5.69217L10.0834 16.3072C10.0834 18.1258 10.0834 19.0361 9.47929 19.6008C8.87521 20.1663 7.90262 20.1663 5.95837 20.1663C4.01412 20.1663 3.04154 20.1663 2.43746 19.6008C1.83337 19.0361 1.83337 18.1258 1.83337 16.3072L1.83337 5.69217Z" fill="white"/>
<path d="M1.83337 5.69217C1.83337 3.87351 1.83337 2.96326 2.43746 2.39859C3.04154 1.83301 4.01412 1.83301 5.95837 1.83301C7.90262 1.83301 8.87521 1.83301 9.47929 2.39859C10.0834 2.96326 10.0834 3.87351 10.0834 5.69217L10.0834 16.3072C10.0834 18.1258 10.0834 19.0361 9.47929 19.6008C8.87521 20.1663 7.90262 20.1663 5.95837 20.1663C4.01412 20.1663 3.04154 20.1663 2.43746 19.6008C1.83337 19.0361 1.83337 18.1258 1.83337 16.3072L1.83337 5.69217Z" fill="#9999A0"/>
</g>
<path d="M11.9166 14.1163C11.9166 12.2152 11.9166 11.2646 12.5207 10.6733C13.1248 10.083 14.0974 10.083 16.0416 10.083C17.9859 10.083 18.9585 10.083 19.5625 10.6733C20.1666 11.2655 20.1666 12.2152 20.1666 14.1163L20.1666 16.133C20.1666 18.0342 20.1666 18.9848 19.5625 19.576C18.9585 20.1663 17.9859 20.1663 16.0416 20.1663C14.0974 20.1663 13.1248 20.1663 12.5207 19.576C11.9166 18.9838 11.9166 18.0342 11.9166 16.133L11.9166 14.1163ZM11.9166 5.04134C11.9166 4.04492 11.9166 3.54717 12.0734 3.15301C12.2775 2.63468 12.6791 2.21859 13.1899 1.99617C13.5685 1.83301 14.0497 1.83301 15.0104 1.83301L17.0729 1.83301C18.0335 1.83301 18.5148 1.83301 18.8934 1.99617C19.3985 2.21251 19.8009 2.62867 20.0099 3.15301C20.1666 3.54717 20.1666 4.04492 20.1666 5.04134C20.1666 6.03776 20.1666 6.53551 20.0099 6.92967C19.8057 7.44801 19.4041 7.86409 18.8934 8.08651C18.5148 8.24967 18.0335 8.24967 17.0729 8.24967H15.0104C14.0497 8.24967 13.5685 8.24967 13.1899 8.08651C12.6791 7.86409 12.2775 7.44801 12.0734 6.92967C11.9166 6.53551 11.9166 6.03776 11.9166 5.04134Z" fill="#9999A0"/>
</svg>
