<svg width="22" height="22" viewBox="0 0 22 22" fill="none" xmlns="http://www.w3.org/2000/svg">
<path opacity="0.5" d="M2.75 9.16634C2.75 5.70959 2.75 3.98076 3.82433 2.90734C4.89775 1.83301 6.62658 1.83301 10.0833 1.83301L11.9167 1.83301C15.3734 1.83301 17.1022 1.83301 18.1757 2.90734C19.25 3.98076 19.25 5.70959 19.25 9.16634L19.25 12.833C19.25 16.2898 19.25 18.0186 18.1757 19.092C17.1022 20.1663 15.3734 20.1663 11.9167 20.1663H10.0833C6.62658 20.1663 4.89775 20.1663 3.82433 19.092C2.75 18.0186 2.75 16.2898 2.75 12.833L2.75 9.16634Z" fill="#9999A0"/>
<path d="M15.1424 15.1262C15.3028 15.0015 15.4485 14.8558 15.7391 14.5652L19.3664 10.937C19.4544 10.8499 19.414 10.6987 19.2976 10.6574C18.73 10.4596 18.2147 10.1355 17.7906 9.70958C17.3647 9.28546 17.0406 8.77018 16.8428 8.20258C16.8015 8.08617 16.6503 8.04583 16.5632 8.13383L12.9341 11.7611C12.6435 12.0517 12.4978 12.1974 12.3731 12.3578C12.2255 12.5476 12.0981 12.752 11.9955 12.9683C11.9084 13.1517 11.8433 13.3478 11.7131 13.7383L11.5445 14.2425L11.2768 15.0446L11.0265 15.7963C10.9953 15.8905 10.9909 15.9915 11.0138 16.0881C11.0367 16.1846 11.086 16.2729 11.1562 16.3431C11.2264 16.4133 11.3147 16.4626 11.4112 16.4855C11.5078 16.5084 11.6088 16.504 11.703 16.4727L12.4547 16.2225L13.2568 15.9548L13.761 15.7862C14.1515 15.656 14.3476 15.5918 14.531 15.5038C14.7473 15.4003 14.9535 15.2747 15.1424 15.1262ZM20.5021 9.80125C20.6914 9.61835 20.8424 9.3996 20.9463 9.15773C21.0501 8.91587 21.1048 8.65575 21.1071 8.39254C21.1094 8.12933 21.0592 7.8683 20.9596 7.62467C20.8599 7.38104 20.7128 7.1597 20.5267 6.97354C20.3406 6.78739 20.1193 6.64015 19.8757 6.54041C19.6321 6.44068 19.3711 6.39045 19.1079 6.39265C18.8446 6.39485 18.5845 6.44943 18.3426 6.55322C18.1007 6.65701 17.8819 6.80793 17.699 6.99717L17.5825 7.1145C17.527 7.16921 17.4857 7.23661 17.4621 7.31087C17.4384 7.38513 17.4332 7.46403 17.4469 7.54075C17.4652 7.63883 17.4973 7.78367 17.5569 7.95508C17.676 8.29883 17.9015 8.74983 18.326 9.17425C18.6687 9.51977 19.0857 9.78277 19.5451 9.94333C19.7175 10.0029 19.8614 10.035 19.9595 10.0533C20.0362 10.0669 20.1151 10.0617 20.1893 10.038C20.2635 10.0144 20.3309 9.9731 20.3857 9.91767L20.5021 9.80125Z" fill="#9999A0"/>
<path fill-rule="evenodd" clip-rule="evenodd" d="M6.64587 8.25C6.64587 8.06766 6.71831 7.8928 6.84724 7.76386C6.97617 7.63493 7.15104 7.5625 7.33337 7.5625L13.2917 7.5625C13.474 7.5625 13.6489 7.63493 13.7778 7.76386C13.9068 7.8928 13.9792 8.06766 13.9792 8.25C13.9792 8.43234 13.9068 8.6072 13.7778 8.73614C13.6489 8.86507 13.474 8.9375 13.2917 8.9375L7.33337 8.9375C7.15104 8.9375 6.97617 8.86507 6.84724 8.73614C6.71831 8.6072 6.64587 8.43234 6.64587 8.25ZM6.64587 11.9167C6.64587 11.7343 6.71831 11.5595 6.84724 11.4305C6.97617 11.3016 7.15104 11.2292 7.33337 11.2292H10.0834C10.2657 11.2292 10.4406 11.3016 10.5695 11.4305C10.6984 11.5595 10.7709 11.7343 10.7709 11.9167C10.7709 12.099 10.6984 12.2739 10.5695 12.4028C10.4406 12.5317 10.2657 12.6042 10.0834 12.6042H7.33337C7.15104 12.6042 6.97617 12.5317 6.84724 12.4028C6.71831 12.2739 6.64587 12.099 6.64587 11.9167ZM6.64587 15.5833C6.64587 15.401 6.71831 15.2261 6.84724 15.0972C6.97617 14.9683 7.15104 14.8958 7.33337 14.8958H8.70837C8.89071 14.8958 9.06558 14.9683 9.19451 15.0972C9.32344 15.2261 9.39587 15.401 9.39587 15.5833C9.39587 15.7657 9.32344 15.9405 9.19451 16.0695C9.06558 16.1984 8.89071 16.2708 8.70837 16.2708H7.33337C7.15104 16.2708 6.97617 16.1984 6.84724 16.0695C6.71831 15.9405 6.64587 15.7657 6.64587 15.5833Z" fill="#9999A0"/>
</svg>
