<svg width="22" height="22" viewBox="0 0 22 22" fill="none" xmlns="http://www.w3.org/2000/svg">
<path opacity="0.5" d="M2.75 9.16634C2.75 5.70959 2.75 3.98076 3.82433 2.90734C4.89775 1.83301 6.62658 1.83301 10.0833 1.83301L11.9167 1.83301C15.3734 1.83301 17.1022 1.83301 18.1757 2.90734C19.25 3.98076 19.25 5.70959 19.25 9.16634L19.25 12.833C19.25 16.2898 19.25 18.0186 18.1757 19.092C17.1022 20.1663 15.3734 20.1663 11.9167 20.1663H10.0833C6.62658 20.1663 4.89775 20.1663 3.82433 19.092C2.75 18.0186 2.75 16.2898 2.75 12.833L2.75 9.16634Z" fill="#BDAB00"/>
<path d="M15.1425 15.1262C15.3029 15.0015 15.4487 14.8558 15.7392 14.5652L19.3665 10.937C19.4545 10.8499 19.4142 10.6987 19.2977 10.6574C18.7301 10.4596 18.2149 10.1355 17.7907 9.70958C17.3648 9.28546 17.0407 8.77018 16.8429 8.20258C16.8017 8.08617 16.6504 8.04583 16.5633 8.13383L12.9342 11.7611C12.6437 12.0517 12.4979 12.1974 12.3732 12.3578C12.2257 12.5476 12.0982 12.752 11.9956 12.9683C11.9085 13.1517 11.8434 13.3478 11.7132 13.7383L11.5446 14.2425L11.2769 15.0446L11.0267 15.7963C10.9955 15.8905 10.9911 15.9915 11.014 16.0881C11.0368 16.1846 11.0861 16.2729 11.1563 16.3431C11.2265 16.4133 11.3148 16.4626 11.4114 16.4855C11.5079 16.5084 11.6089 16.504 11.7032 16.4727L12.4548 16.2225L13.2569 15.9548L13.7611 15.7862C14.1516 15.656 14.3477 15.5918 14.5311 15.5038C14.7474 15.4003 14.9537 15.2747 15.1425 15.1262ZM20.5022 9.80125C20.6915 9.61835 20.8425 9.3996 20.9464 9.15773C21.0503 8.91587 21.1049 8.65575 21.1072 8.39254C21.1095 8.12933 21.0594 7.8683 20.9597 7.62467C20.8601 7.38104 20.7129 7.1597 20.5268 6.97354C20.3407 6.78739 20.1194 6.64015 19.8758 6.54041C19.6322 6.44068 19.3712 6.39045 19.108 6.39265C18.8448 6.39485 18.5846 6.44943 18.3427 6.55322C18.1008 6.65701 17.882 6.80793 17.6991 6.99717L17.5827 7.1145C17.5272 7.16921 17.4858 7.23661 17.4622 7.31087C17.4385 7.38513 17.4333 7.46403 17.447 7.54075C17.4653 7.63883 17.4974 7.78367 17.557 7.95508C17.6762 8.29883 17.9017 8.74983 18.3261 9.17425C18.6689 9.51977 19.0858 9.78277 19.5452 9.94333C19.7176 10.0029 19.8615 10.035 19.9596 10.0533C20.0363 10.0669 20.1152 10.0617 20.1894 10.038C20.2637 10.0144 20.3311 9.9731 20.3858 9.91767L20.5022 9.80125Z" fill="#BDAB00"/>
<path fill-rule="evenodd" clip-rule="evenodd" d="M6.64575 8.25C6.64575 8.06766 6.71818 7.8928 6.84712 7.76386C6.97605 7.63493 7.15092 7.5625 7.33325 7.5625L13.2916 7.5625C13.4739 7.5625 13.6488 7.63493 13.7777 7.76386C13.9067 7.8928 13.9791 8.06766 13.9791 8.25C13.9791 8.43234 13.9067 8.6072 13.7777 8.73614C13.6488 8.86507 13.4739 8.9375 13.2916 8.9375L7.33325 8.9375C7.15092 8.9375 6.97605 8.86507 6.84712 8.73614C6.71818 8.6072 6.64575 8.43234 6.64575 8.25ZM6.64575 11.9167C6.64575 11.7343 6.71818 11.5595 6.84712 11.4305C6.97605 11.3016 7.15092 11.2292 7.33325 11.2292H10.0833C10.2656 11.2292 10.4405 11.3016 10.5694 11.4305C10.6983 11.5595 10.7708 11.7343 10.7708 11.9167C10.7708 12.099 10.6983 12.2739 10.5694 12.4028C10.4405 12.5317 10.2656 12.6042 10.0833 12.6042H7.33325C7.15092 12.6042 6.97605 12.5317 6.84712 12.4028C6.71818 12.2739 6.64575 12.099 6.64575 11.9167ZM6.64575 15.5833C6.64575 15.401 6.71818 15.2261 6.84712 15.0972C6.97605 14.9683 7.15092 14.8958 7.33325 14.8958H8.70825C8.89059 14.8958 9.06546 14.9683 9.19439 15.0972C9.32332 15.2261 9.39575 15.401 9.39575 15.5833C9.39575 15.7657 9.32332 15.9405 9.19439 16.0695C9.06546 16.1984 8.89059 16.2708 8.70825 16.2708H7.33325C7.15092 16.2708 6.97605 16.1984 6.84712 16.0695C6.71818 15.9405 6.64575 15.7657 6.64575 15.5833Z" fill="#BDAB00"/>
</svg>
