<svg width="20" height="16" viewBox="0 0 20 16" fill="none" xmlns="http://www.w3.org/2000/svg">
<path opacity="0.5" d="M0.833343 8C0.833343 9.50333 1.22293 10.0084 2.00209 11.0213C3.55768 13.0417 6.16651 15.3333 10 15.3333C13.8335 15.3333 16.4423 13.0417 17.9979 11.0213C18.7771 10.0093 19.1667 9.50242 19.1667 8C19.1667 6.49667 18.7771 5.99159 17.9979 4.97867C16.4423 2.95834 13.8335 0.666668 10 0.666668C6.16651 0.666668 3.55768 2.95834 2.00209 4.97867C1.22293 5.9925 0.833343 6.49758 0.833343 8Z" fill="#9999A0"/>
<path fill-rule="evenodd" clip-rule="evenodd" d="M6.5625 8C6.5625 7.08832 6.92466 6.21398 7.56932 5.56932C8.21398 4.92466 9.08832 4.5625 10 4.5625C10.9117 4.5625 11.786 4.92466 12.4307 5.56932C13.0753 6.21398 13.4375 7.08832 13.4375 8C13.4375 8.91168 13.0753 9.78602 12.4307 10.4307C11.786 11.0753 10.9117 11.4375 10 11.4375C9.08832 11.4375 8.21398 11.0753 7.56932 10.4307C6.92466 9.78602 6.5625 8.91168 6.5625 8ZM7.9375 8C7.9375 7.45299 8.1548 6.92839 8.54159 6.54159C8.92839 6.1548 9.45299 5.9375 10 5.9375C10.547 5.9375 11.0716 6.1548 11.4584 6.54159C11.8452 6.92839 12.0625 7.45299 12.0625 8C12.0625 8.54701 11.8452 9.07161 11.4584 9.45841C11.0716 9.8452 10.547 10.0625 10 10.0625C9.45299 10.0625 8.92839 9.8452 8.54159 9.45841C8.1548 9.07161 7.9375 8.54701 7.9375 8Z" fill="#9999A0"/>
</svg>
