<svg width="106" height="28" viewBox="0 0 106 28" fill="none" xmlns="http://www.w3.org/2000/svg">
<path d="M10.8864 2.81348H13.1859C14.5863 2.60703 16.0164 2.78854 17.3209 3.33828C18.9575 4.32362 20.1446 5.90991 20.6289 7.75877C20.9718 8.72764 20.9718 8.72764 21.7988 8.3845H22.4443V0.714252H0.801032V2.06664H1.68855C2.07422 2.06396 2.4556 2.14779 2.80465 2.31196C3.15371 2.47613 3.46157 2.71647 3.70563 3.01533C4.53263 4.34753 4.67383 5.84121 4.67383 13.6124C4.67383 21.868 4.49229 23.8865 3.70563 24.9159C3.51142 25.1805 3.25999 25.3979 2.97009 25.5517C2.6802 25.7054 2.35933 25.7917 2.03145 25.804C0.801032 26.0261 0.801032 26.0059 0.801032 26.5509C0.732989 26.7331 0.732989 26.9338 0.801032 27.116H14.4567C14.547 26.9378 14.5941 26.7407 14.5941 26.5408C14.5941 26.3409 14.547 26.1438 14.4567 25.9655C14.1259 25.8734 13.7888 25.806 13.4481 25.7637C13.0796 25.7198 12.7152 25.6455 12.3589 25.5416C11.8486 25.1688 11.4444 24.6692 11.1861 24.0922C10.9279 23.5152 10.8246 22.8807 10.8864 22.2515C10.6847 20.9193 10.5839 18.4769 10.5839 16.4584V14.8638H11.3907C12.3959 14.8331 13.4006 14.9417 14.376 15.1868C14.8433 15.4758 15.2411 15.8644 15.5409 16.325C15.8408 16.7856 16.0353 17.3067 16.1107 17.8512L16.2922 18.4769H17.5226V9.53504H16.3931L16.2115 10.403C16.1351 10.9598 15.9293 11.491 15.6105 11.9537C15.2917 12.4164 14.8689 12.7979 14.376 13.0674C13.8987 13.2095 13.3958 13.244 12.9035 13.1683H10.5839V10.9883C10.5839 8.72764 10.7049 3.96401 10.7856 3.21717L10.8864 2.81348ZM105.286 18.8201C104.332 17.2844 102.845 16.1557 101.11 15.651C99.7805 15.235 98.5511 14.5478 97.4999 13.6326C97.2633 13.4036 97.0863 13.1202 96.9844 12.8071C96.8824 12.4939 96.8586 12.1606 96.9149 11.8361C96.9165 11.1997 97.1704 10.5898 97.6209 10.1406C97.9262 9.82057 98.3127 9.58956 98.739 9.47225C99.1653 9.35493 99.6155 9.3557 100.041 9.47448C100.923 9.72597 101.721 10.2114 102.349 10.8795C102.978 11.5475 103.414 12.3733 103.612 13.2692C103.934 14.1776 103.975 14.1776 104.56 13.9353L104.923 13.794V8.76801L104.66 8.6469C102.675 7.94897 100.568 7.66059 98.4681 7.79914C96.6595 7.845 94.9331 8.56481 93.6271 9.81762C93.0347 10.3725 92.5708 11.0502 92.2676 11.8033C91.9645 12.5564 91.8296 13.3668 91.8722 14.1776C91.8835 15.4172 92.3753 16.604 93.2438 17.4879C94.2037 18.4325 95.3814 19.1258 96.6729 19.5064C99.7993 20.7376 100.707 21.5248 100.707 22.958C100.72 23.5623 100.528 24.1533 100.162 24.6338C99.795 25.1143 99.276 25.4558 98.6899 25.6022C97.9856 25.757 97.2561 25.757 96.5518 25.6022C95.6297 25.244 94.8064 24.6707 94.1503 23.9299C93.4942 23.1891 93.0244 22.3023 92.7799 21.3432L92.5177 20.6973H92.1546C91.9811 20.7102 91.8108 20.7511 91.6503 20.8184H91.4486V26.5509H91.7915C93.1542 27.0045 94.5602 27.3157 95.987 27.4794H98.0041C98.8789 27.5436 99.7582 27.4618 100.606 27.2372C101.683 27.0384 102.688 26.5612 103.523 25.853C104.359 25.1448 104.994 24.2302 105.366 23.2002C105.607 22.6249 105.731 22.0072 105.73 21.3835C105.809 20.5049 105.656 19.6208 105.286 18.8201ZM86.2849 8.3845C85.0762 7.87667 83.7738 7.63032 82.4633 7.66163C81.1527 7.69294 79.8636 8.00119 78.6805 8.56616C77.5684 9.11051 76.5827 9.88217 75.7871 10.8313C74.9915 11.7805 74.4036 12.886 74.0614 14.0766C73.6251 15.3754 73.4402 16.7455 73.5168 18.1136C73.5023 18.8579 73.5631 19.6018 73.6983 20.3339C74.024 22.134 74.8925 23.7913 76.1869 25.083C77.4814 26.3748 79.1399 27.2392 80.9396 27.5601C82.1116 27.7079 83.2975 27.7079 84.4695 27.5601C85.6857 27.3456 86.8496 26.9003 87.8986 26.2481C88.7662 25.7613 89.5006 25.0681 90.0367 24.2296C90.0023 24.0981 89.9416 23.9748 89.8585 23.8673C89.7753 23.7598 89.6712 23.6702 89.5526 23.6039C89.3223 23.6873 89.105 23.8028 88.9071 23.947C87.9038 24.6087 86.7191 24.9404 85.5184 24.8957C84.7214 24.9496 83.9225 24.8255 83.1794 24.5322C82.4363 24.2389 81.7677 23.784 81.222 23.2002C80.7999 22.8078 80.4515 22.343 80.1933 21.8276C79.5665 20.5728 79.2288 19.1933 79.2049 17.7906V17.0034H90.3796V16.5997C90.4042 16.1964 90.4042 15.792 90.3796 15.3886C90.3756 13.9634 89.9946 12.5646 89.2754 11.3344C88.5562 10.1042 87.5245 9.08643 86.2849 8.3845ZM80.6572 15.3685H79.2453V14.1776C79.7092 11.1296 80.8589 9.313 82.2709 9.313C83.6829 9.313 84.288 11.1095 84.5502 14.3996V15.3281H83.34L80.6572 15.3685ZM51.6516 7.7184C50.9546 7.69135 50.2618 7.83695 49.6345 8.14228C48.2713 8.8048 47.1701 9.9067 46.5081 11.2709L46.2459 11.7554V7.7184H46.145C45.903 7.7184 38.4398 9.21208 38.1977 9.313C37.9557 9.41393 38.0363 9.43411 38.0363 9.79744C38.0363 10.1608 38.0363 10.2213 38.1977 10.2415L38.9844 10.403C39.2047 10.4084 39.4209 10.4639 39.6166 10.5653C39.8123 10.6667 39.9824 10.8114 40.1139 10.9883C40.6182 11.6544 40.7191 12.8252 40.7191 17.8108C40.8187 20.0553 40.7242 22.3042 40.4367 24.5324C40.369 24.8684 40.1987 25.175 39.9494 25.41C39.7001 25.6451 39.3841 25.7968 39.0449 25.8444L38.3591 25.9857H38.0968V26.5509C38.0237 26.7391 38.0237 26.948 38.0968 27.1362H49.3723V26.5509C49.4114 26.3577 49.4114 26.1587 49.3723 25.9655C48.6934 25.939 48.0183 25.8512 47.3552 25.7031C46.9942 25.5141 46.6987 25.2201 46.5079 24.8598C46.3171 24.4995 46.2398 24.0898 46.2862 23.6846C46.1248 22.5139 46.0441 19.0825 46.0845 16.4584C46.1248 13.8344 46.0845 13.6729 46.3064 13.4913C46.9813 12.9734 47.8166 12.7091 48.6663 12.7444C49.4674 12.7619 50.2538 12.9621 50.9658 13.3298C51.2126 13.4669 51.4774 13.5689 51.7525 13.6326C51.7525 13.6326 53.7696 8.74783 53.7696 8.52579C53.5114 8.22563 53.1826 7.99462 52.8128 7.85364C52.443 7.71267 52.0439 7.66618 51.6516 7.7184ZM38.0565 16.196C37.9861 14.7536 37.5723 13.349 36.8495 12.099C36.1267 10.8491 35.1159 9.79007 33.9013 9.01023C32.4579 8.23099 30.852 7.80133 29.2125 7.75576C27.5731 7.71019 25.9458 8.04997 24.4614 8.74783C22.3626 9.85533 20.7779 11.738 20.044 13.9959C19.2859 16.5239 19.2859 19.2189 20.044 21.7469C20.4414 23.1285 21.1842 24.3859 22.2023 25.4003C23.4702 26.6384 25.1051 27.4316 26.8617 27.661C27.9893 27.7554 29.1228 27.7554 30.2504 27.661C30.6653 27.5979 31.0762 27.5102 31.4808 27.3986C33.1227 26.939 34.5997 26.021 35.7392 24.7521C36.8787 23.4831 37.6335 21.9156 37.9153 20.233C38.1167 18.8972 38.1641 17.5427 38.0565 16.196ZM29.6655 26.2885C27.6484 26.894 26.1356 24.9361 25.6313 20.8184C25.4461 18.6626 25.4461 16.4948 25.6313 14.339C26.0347 11.0287 27.0634 9.35337 28.6569 9.35337C28.9784 9.33343 29.3 9.39083 29.5948 9.52077C29.8895 9.6507 30.1489 9.84939 30.3513 10.1002C31.7027 11.4526 32.3683 14.1372 32.3683 18.1742C32.5362 20.4589 32.1773 22.7516 31.3195 24.8755C30.9407 25.495 30.3546 25.9599 29.6655 26.1875V26.2885ZM65.9729 8.1221C65.4037 8.0488 64.8275 8.0488 64.2584 8.1221C63.1658 8.12116 62.0858 8.35521 61.0916 8.80838L60.4663 9.07078V4.69067C60.5755 3.21247 60.5755 1.7282 60.4663 0.25C60.2242 0.25 52.519 1.72349 52.3979 1.78405C52.3385 1.93307 52.3385 2.09928 52.3979 2.2483C52.3979 2.67218 52.3979 2.652 53.3056 2.85385C53.5605 2.91104 53.8053 3.0063 54.0318 3.13643C54.4255 3.50695 54.6876 3.99598 54.7781 4.52919C55.0078 6.0653 55.0821 7.62067 55 9.17171V26.894L55.5446 27.0151C56.3514 27.1968 58.6307 27.5803 59.377 27.661C60.8673 27.7797 62.3647 27.7797 63.855 27.661C65.5091 27.492 67.0858 26.8744 68.4151 25.8749C69.7445 24.8754 70.7761 23.5319 71.3988 21.9891C71.7701 20.9989 72.0272 19.9695 72.1653 18.921C72.2854 17.5007 72.238 16.0712 72.0241 14.662C71.8077 13.0824 71.111 11.6076 70.0285 10.4376C68.946 9.26774 67.5301 8.45933 65.9729 8.1221ZM60.6881 25.9453C60.6881 25.6829 60.4864 16.842 60.5268 13.3096V10.5443L61.1117 10.403C61.5064 10.3464 61.9071 10.3464 62.3018 10.403C62.7383 10.3586 63.1773 10.4578 63.5524 10.6856C64.3057 11.2058 64.9312 11.8903 65.3819 12.6874C65.8326 13.4846 66.0968 14.3736 66.1544 15.2877C66.3014 16.7575 66.3014 18.2384 66.1544 19.7082C66.0337 21.8445 65.2112 23.881 63.8146 25.5013C63.4182 25.878 62.9205 26.1306 62.3825 26.2279C61.9754 26.2988 61.5592 26.2988 61.1521 26.2279C60.7688 26.2279 60.7688 26.1068 60.7688 25.9453H60.6881Z" fill="#181716"/>
</svg>
