<svg width="22" height="22" viewBox="0 0 22 22" fill="none" xmlns="http://www.w3.org/2000/svg">
<path opacity="0.5" fill-rule="evenodd" clip-rule="evenodd" d="M11 20.1663C16.0628 20.1663 20.1667 16.0624 20.1667 10.9997C20.1667 5.93692 16.0628 1.83301 11 1.83301C5.93729 1.83301 1.83337 5.93692 1.83337 10.9997C1.83337 16.0624 5.93729 20.1663 11 20.1663ZM11 14.6663C11.9725 14.6663 12.9051 14.28 13.5928 13.5924C14.2804 12.9048 14.6667 11.9721 14.6667 10.9997C14.6667 10.0272 14.2804 9.09458 13.5928 8.40695C12.9051 7.71932 11.9725 7.33301 11 7.33301C10.0276 7.33301 9.09495 7.71932 8.40732 8.40695C7.71968 9.09458 7.33337 10.0272 7.33337 10.9997C7.33337 11.9721 7.71968 12.9048 8.40732 13.5924C9.09495 14.28 10.0276 14.6663 11 14.6663Z" fill="#9999A0"/>
<path d="M5.02239 17.9501L8.93839 14.0332C8.55645 13.773 8.22684 13.4434 7.96672 13.0615L4.0498 16.9766C4.34955 17.3249 4.67405 17.6494 5.02147 17.9482L5.02239 17.9501ZM4.0498 5.02324L7.96672 8.93924C8.22686 8.55733 8.55647 8.22771 8.93839 7.96758L5.0233 4.04883C4.67497 4.34858 4.35047 4.674 4.05072 5.02141L4.0498 5.02324ZM13.0606 7.96666L16.9766 4.05158C17.3241 4.35041 17.6495 4.67491 17.9483 5.02324L14.0341 8.93924C13.7738 8.55723 13.4438 8.22761 13.0616 7.96758L13.0606 7.96666ZM17.9492 16.9775L14.0323 13.0606C13.7722 13.4425 13.4426 13.7721 13.0606 14.0322L16.9766 17.9501C17.325 17.6503 17.6504 17.3249 17.9492 16.9775Z" fill="#9999A0"/>
</svg>
