<svg width="54" height="48" viewBox="0 0 54 48" fill="none" xmlns="http://www.w3.org/2000/svg">
<circle cx="27" cy="23" r="23" fill="url(#paint0_linear_1078_12206)"/>
<path d="M35 3.68848H3V15.224H35V3.68848Z" fill="url(#paint1_linear_1078_12206)"/>
<path d="M19 2.53516L3 15.1752V47.5236H19H35V15.1752L19 2.53516Z" fill="url(#paint2_linear_1078_12206)"/>
<path d="M35.8109 17.3034L19 4.41536L2.1899 17.3034L1 15.1814L19 1.38184L37 15.1814L35.8109 17.3034Z" fill="url(#paint3_linear_1078_12206)"/>
<path d="M22.7708 31.8555H15.25V47.5234H22.7708V31.8555Z" fill="url(#paint4_linear_1078_12206)"/>
<path d="M12.4254 31.832H8.58472V38.9254H12.4254V31.832Z" fill="url(#paint5_linear_1078_12206)"/>
<path d="M29.2279 31.832H25.3872V38.9254H29.2279V31.832Z" fill="url(#paint6_linear_1078_12206)"/>
<path d="M12.4254 18.666H8.58472V25.7594H12.4254V18.666Z" fill="url(#paint7_linear_1078_12206)"/>
<path d="M29.2279 18.666H25.3872V25.7594H29.2279V18.666Z" fill="url(#paint8_linear_1078_12206)"/>
<path d="M22.7693 18.666H15.2622V25.7594H22.7693V18.666Z" fill="url(#paint9_linear_1078_12206)"/>
<path d="M35 26.7598V47.5237H44.5H54V30.2204L35 26.7598Z" fill="url(#paint10_linear_1078_12206)"/>
<path d="M53 31.9512H36V37.1422H53V31.9512Z" fill="url(#paint11_linear_1078_12206)"/>
<path d="M53 37.1426H36V42.3336H53V37.1426Z" fill="url(#paint12_linear_1078_12206)"/>
<path d="M53 42.333H36V47.524H53V42.333Z" fill="url(#paint13_linear_1078_12206)"/>
<path d="M0 47.5244C0 47.5244 0.562738 43.3243 3.5488 42.9525C6.53485 42.5806 7.63498 44.7812 7.63498 44.7812C7.63498 44.7812 11.3815 42.8184 12 47.5244H0Z" fill="url(#paint14_linear_1078_12206)"/>
<path d="M37 47.5244C37 47.5244 36.4373 43.3243 33.4512 42.9525C30.4651 42.5806 29.365 44.7812 29.365 44.7812C29.365 44.7812 25.6185 42.8184 25 47.5244H37Z" fill="url(#paint15_linear_1078_12206)"/>
<defs>
<linearGradient id="paint0_linear_1078_12206" x1="93" y1="-63.5" x2="-2" y2="59.5" gradientUnits="userSpaceOnUse">
<stop stop-color="white"/>
<stop offset="1" stop-color="#B2CBFB"/>
</linearGradient>
<linearGradient id="paint1_linear_1078_12206" x1="14.9058" y1="-11.3842" x2="25.683" y2="23.9086" gradientUnits="userSpaceOnUse">
<stop stop-color="#FF3862"/>
<stop offset="1" stop-color="#920155"/>
</linearGradient>
<linearGradient id="paint2_linear_1078_12206" x1="32.5689" y1="56.5024" x2="-61.4047" y2="-63.5066" gradientUnits="userSpaceOnUse">
<stop stop-color="white"/>
<stop offset="1" stop-color="#A1C0FB"/>
</linearGradient>
<linearGradient id="paint3_linear_1078_12206" x1="33.3138" y1="40.9316" x2="-36.866" y2="-51.4208" gradientUnits="userSpaceOnUse">
<stop stop-color="#FF3862"/>
<stop offset="1" stop-color="#920155"/>
</linearGradient>
<linearGradient id="paint4_linear_1078_12206" x1="15.3589" y1="22.2573" x2="23.9008" y2="52.0842" gradientUnits="userSpaceOnUse">
<stop stop-color="#FF3862"/>
<stop offset="1" stop-color="#920155"/>
</linearGradient>
<linearGradient id="paint5_linear_1078_12206" x1="-12.5221" y1="-2.62095" x2="21.0655" y2="37.9229" gradientUnits="userSpaceOnUse">
<stop stop-color="white"/>
<stop offset="1" stop-color="#B2CBFB"/>
</linearGradient>
<linearGradient id="paint6_linear_1078_12206" x1="4.28037" y1="-2.62095" x2="37.868" y2="37.9229" gradientUnits="userSpaceOnUse">
<stop stop-color="white"/>
<stop offset="1" stop-color="#B2CBFB"/>
</linearGradient>
<linearGradient id="paint7_linear_1078_12206" x1="-12.5221" y1="-15.787" x2="21.0655" y2="24.7569" gradientUnits="userSpaceOnUse">
<stop stop-color="white"/>
<stop offset="1" stop-color="#B2CBFB"/>
</linearGradient>
<linearGradient id="paint8_linear_1078_12206" x1="4.28037" y1="-15.787" x2="37.868" y2="24.7569" gradientUnits="userSpaceOnUse">
<stop stop-color="white"/>
<stop offset="1" stop-color="#B2CBFB"/>
</linearGradient>
<linearGradient id="paint9_linear_1078_12206" x1="-10.8182" y1="-27.0194" x2="32.6978" y2="25.5092" gradientUnits="userSpaceOnUse">
<stop stop-color="white"/>
<stop offset="1" stop-color="#B2CBFB"/>
</linearGradient>
<linearGradient id="paint10_linear_1078_12206" x1="52.5566" y1="52.6467" x2="-0.512044" y2="-17.8788" gradientUnits="userSpaceOnUse">
<stop stop-color="white"/>
<stop offset="1" stop-color="#A1C0FB"/>
</linearGradient>
<linearGradient id="paint11_linear_1078_12206" x1="36.2461" y1="28.7712" x2="36.6941" y2="39.4449" gradientUnits="userSpaceOnUse">
<stop stop-color="#FF3862"/>
<stop offset="1" stop-color="#920155"/>
</linearGradient>
<linearGradient id="paint12_linear_1078_12206" x1="36.2461" y1="33.9626" x2="36.6941" y2="44.6363" gradientUnits="userSpaceOnUse">
<stop stop-color="#FF3862"/>
<stop offset="1" stop-color="#920155"/>
</linearGradient>
<linearGradient id="paint13_linear_1078_12206" x1="36.2461" y1="39.153" x2="36.6941" y2="49.8267" gradientUnits="userSpaceOnUse">
<stop stop-color="#FF3862"/>
<stop offset="1" stop-color="#920155"/>
</linearGradient>
<linearGradient id="paint14_linear_1078_12206" x1="5.99898" y1="40.3654" x2="5.99898" y2="60.8348" gradientUnits="userSpaceOnUse">
<stop offset="0.13" stop-color="#4D2C89"/>
<stop offset="1" stop-color="#1A0559"/>
</linearGradient>
<linearGradient id="paint15_linear_1078_12206" x1="31.001" y1="40.3654" x2="31.001" y2="60.8348" gradientUnits="userSpaceOnUse">
<stop offset="0.13" stop-color="#4D2C89"/>
<stop offset="1" stop-color="#1A0559"/>
</linearGradient>
</defs>
</svg>
