<svg width="142" height="30" viewBox="0 0 142 30" fill="none" xmlns="http://www.w3.org/2000/svg">
<path fill-rule="evenodd" clip-rule="evenodd" d="M30.9784 7.41488C30.9341 3.29084 27.5657 0 23.5057 0H6.90085C5.75518 0 4.77486 0.834708 4.57481 1.98065L0.0260876 28.0164C-0.154769 29.0498 0.627712 29.9985 1.66118 29.9985H8.73672C9.88313 29.9985 10.8642 29.1623 11.0628 28.0156L14.2768 9.49603L10.7298 12.5596C10.14 13.0696 9.2542 12.9969 8.75296 12.3969C8.251 11.7977 8.3226 10.8977 8.91315 10.3885L15.421 4.76751C15.421 4.76751 15.424 4.76526 15.4255 4.76376C15.4284 4.76076 15.4314 4.75851 15.4351 4.75551C15.4351 4.75551 15.4351 4.75551 15.4358 4.75551C15.4528 4.74126 15.4712 4.72851 15.4889 4.71426L15.5384 4.67677C15.6093 4.62652 15.6838 4.58452 15.7606 4.54927C15.7702 4.54477 15.7798 4.54177 15.7894 4.53727C15.8152 4.52602 15.8418 4.51477 15.8684 4.50502C15.8684 4.50502 15.8691 4.50502 15.8699 4.50502C15.8699 4.50502 15.8699 4.50502 15.8706 4.50502C15.8706 4.50502 15.8713 4.50502 15.8721 4.50502C15.875 4.50427 15.8772 4.50353 15.8802 4.50278C15.9717 4.47128 16.0669 4.44878 16.1644 4.43678C16.1732 4.43603 16.1828 4.43528 16.1917 4.43453C16.2308 4.43078 16.2699 4.42778 16.3091 4.42703C16.3253 4.42703 16.3416 4.42778 16.3578 4.42853C16.3895 4.42853 16.4213 4.43003 16.4538 4.43303C16.4589 4.43303 16.4634 4.43303 16.4685 4.43303C16.487 4.43453 16.5054 4.43903 16.5231 4.44128C16.5416 4.44353 16.5593 4.44503 16.5778 4.44803C16.5829 4.44878 16.5874 4.45028 16.5925 4.45178C16.6176 4.45628 16.642 4.46303 16.6664 4.46903C16.6885 4.47428 16.7099 4.47953 16.7313 4.48553C16.7535 4.49228 16.7756 4.50053 16.7978 4.50803C16.8206 4.51627 16.8435 4.52377 16.8649 4.53277C16.8849 4.54102 16.9048 4.55077 16.9247 4.56052C16.9476 4.57102 16.9705 4.58152 16.9926 4.59352C16.9978 4.59652 17.003 4.59802 17.0081 4.60102H17.0089C17.0259 4.61077 17.0421 4.62202 17.0583 4.63177C17.0738 4.64152 17.0901 4.65052 17.1048 4.66102C17.1262 4.67527 17.1469 4.69177 17.1683 4.70752C17.1831 4.71876 17.1979 4.72926 17.2126 4.74051C17.2318 4.75626 17.2503 4.77351 17.2695 4.79076C17.2842 4.80426 17.299 4.81701 17.313 4.83051C17.3293 4.84701 17.3448 4.86426 17.3603 4.88151C17.375 4.89801 17.3905 4.91375 17.4045 4.931C17.406 4.93325 17.4082 4.93475 17.4097 4.937C17.4127 4.94 17.4156 4.94375 17.4178 4.94675L21.9762 10.5692C22.4685 11.1767 22.3829 12.0744 21.785 12.5754C21.5236 12.7936 21.2077 12.9001 20.894 12.9001C20.4894 12.9001 20.0879 12.7231 19.8103 12.3811L17.1853 9.14354L13.9092 28.0194C13.7298 29.0528 14.5123 30 15.545 30H19.5778C24.6705 30 29.0746 25.7672 29.0576 20.594C29.0495 18.1806 28.1445 15.9825 26.6629 14.325C29.2326 13.1311 31.0101 10.483 30.9769 7.41713L30.9784 7.41488Z" fill="white"/>
<path d="M136.906 22.9565C135.778 22.9565 134.777 22.7192 133.902 22.2447C133.027 21.7554 132.329 21.0881 131.81 20.2428C131.306 19.3976 131.054 18.4338 131.054 17.3513C131.054 16.2836 131.298 15.3346 131.788 14.5042C132.292 13.659 132.975 12.9917 133.835 12.5024C134.695 11.9982 135.652 11.7461 136.705 11.7461C137.744 11.7461 138.656 11.9834 139.442 12.4579C140.243 12.9175 140.866 13.5552 141.311 14.3707C141.771 15.1715 142.001 16.0834 142.001 17.1066C142.001 17.2994 141.986 17.4996 141.956 17.7072C141.942 17.8999 141.905 18.1224 141.845 18.3745L132.811 18.3967V16.2169L140.488 16.1947L139.309 17.1066C139.279 16.469 139.16 15.9352 138.953 15.5051C138.76 15.0751 138.471 14.7489 138.085 14.5264C137.714 14.2892 137.254 14.1706 136.705 14.1706C136.127 14.1706 135.622 14.304 135.192 14.5709C134.762 14.823 134.428 15.1863 134.191 15.6608C133.969 16.1205 133.857 16.6692 133.857 17.3068C133.857 17.9593 133.976 18.5302 134.213 19.0195C134.465 19.494 134.821 19.8647 135.281 20.1316C135.741 20.3837 136.275 20.5098 136.883 20.5098C137.432 20.5098 137.929 20.4208 138.374 20.2428C138.819 20.0501 139.205 19.7683 139.531 19.3976L141.244 21.1103C140.725 21.7183 140.087 22.178 139.331 22.4894C138.589 22.8008 137.781 22.9565 136.906 22.9565Z" fill="white"/>
<path d="M126.503 22.7343V16.573C126.503 15.9354 126.303 15.4164 125.902 15.016C125.502 14.6156 124.982 14.4154 124.345 14.4154C123.929 14.4154 123.558 14.5044 123.232 14.6824C122.906 14.8603 122.646 15.1124 122.453 15.4386C122.275 15.7648 122.186 16.143 122.186 16.573L121.052 15.9947C121.052 15.1495 121.23 14.4154 121.586 13.7927C121.956 13.155 122.461 12.6583 123.099 12.3024C123.751 11.9465 124.486 11.7686 125.301 11.7686C126.088 11.7686 126.792 11.9687 127.415 12.3691C128.038 12.7547 128.528 13.2662 128.884 13.9039C129.24 14.5267 129.418 15.2014 129.418 15.928V22.7343H126.503ZM119.271 22.7343V11.991H122.186V22.7343H119.271Z" fill="white"/>
<path d="M114.197 22.7336V11.9903H117.134V22.7336H114.197ZM115.665 10.2554C115.19 10.2554 114.797 10.0997 114.486 9.78827C114.174 9.46204 114.019 9.06167 114.019 8.58716C114.019 8.12747 114.174 7.73451 114.486 7.40829C114.797 7.08206 115.19 6.91895 115.665 6.91895C116.155 6.91895 116.548 7.08206 116.844 7.40829C117.156 7.73451 117.312 8.12747 117.312 8.58716C117.312 9.06167 117.156 9.46204 116.844 9.78827C116.548 10.0997 116.155 10.2554 115.665 10.2554Z" fill="white"/>
<path d="M106.251 27.4942C105.109 27.4942 104.1 27.2866 103.225 26.8714C102.35 26.471 101.653 25.9002 101.134 25.1587L102.98 23.3126C103.396 23.8019 103.856 24.1726 104.36 24.4247C104.879 24.6916 105.502 24.8251 106.229 24.8251C107.134 24.8251 107.846 24.5952 108.365 24.1356C108.899 23.6759 109.166 23.0382 109.166 22.2227V19.5313L109.656 17.1736L109.188 14.8158V11.991H112.081V22.1782C112.081 23.2458 111.829 24.1726 111.324 24.9585C110.835 25.7593 110.153 26.3821 109.277 26.8269C108.402 27.2718 107.393 27.4942 106.251 27.4942ZM106.118 22.4451C105.154 22.4451 104.286 22.2153 103.514 21.7556C102.743 21.2811 102.135 20.636 101.69 19.8204C101.26 19.0049 101.045 18.0929 101.045 17.0846C101.045 16.0762 101.26 15.1717 101.69 14.371C102.135 13.5702 102.743 12.94 103.514 12.4803C104.286 12.0058 105.154 11.7686 106.118 11.7686C106.919 11.7686 107.623 11.9243 108.232 12.2357C108.855 12.5471 109.344 12.9771 109.7 13.5257C110.056 14.0596 110.249 14.6898 110.279 15.4164V18.7973C110.249 19.5091 110.049 20.1467 109.678 20.7102C109.322 21.2588 108.832 21.6888 108.209 22.0002C107.601 22.2968 106.904 22.4451 106.118 22.4451ZM106.696 19.7982C107.23 19.7982 107.69 19.687 108.076 19.4646C108.476 19.2273 108.788 18.9085 109.01 18.5081C109.233 18.0929 109.344 17.6258 109.344 17.1068C109.344 16.573 109.233 16.1059 109.01 15.7055C108.788 15.3052 108.476 14.9938 108.076 14.7713C107.69 14.5341 107.23 14.4154 106.696 14.4154C106.162 14.4154 105.695 14.5341 105.295 14.7713C104.894 14.9938 104.583 15.3126 104.36 15.7278C104.137 16.1281 104.026 16.5878 104.026 17.1068C104.026 17.611 104.137 18.0707 104.36 18.4859C104.583 18.8863 104.894 19.2051 105.295 19.4423C105.695 19.6796 106.162 19.7982 106.696 19.7982Z" fill="white"/>
<path d="M96.494 22.7343V16.573C96.494 15.9354 96.2937 15.4164 95.8932 15.016C95.4927 14.6156 94.9735 14.4154 94.3357 14.4154C93.9203 14.4154 93.5495 14.5044 93.2232 14.6824C92.8968 14.8603 92.6372 15.1124 92.4444 15.4386C92.2664 15.7648 92.1774 16.143 92.1774 16.573L91.0426 15.9947C91.0426 15.1495 91.2206 14.4154 91.5766 13.7927C91.9475 13.155 92.4518 12.6583 93.0897 12.3024C93.7423 11.9465 94.4766 11.7686 95.2924 11.7686C96.0786 11.7686 96.7832 11.9687 97.4062 12.3691C98.0293 12.7547 98.5188 13.2662 98.8748 13.9039C99.2308 14.5267 99.4088 15.2014 99.4088 15.928V22.7343H96.494ZM89.2626 22.7343V11.991H92.1774V22.7343H89.2626Z" fill="white"/>
<path d="M76.4111 22.7344V7.09766H79.4372V22.7344H76.4111ZM78.6362 22.7344V20.0652H87.2916V22.7344H78.6362ZM78.6362 16.0393V13.4591H86.5128V16.0393H78.6362ZM78.6362 9.76679V7.09766H87.1804V9.76679H78.6362Z" fill="white"/>
<path d="M64.9507 22.9563C63.9569 22.9563 63.0669 22.7117 62.2807 22.2223C61.4945 21.733 60.8715 21.0657 60.4117 20.2205C59.9666 19.3752 59.7441 18.4262 59.7441 17.3734C59.7441 16.3057 59.9666 15.3493 60.4117 14.5041C60.8715 13.6588 61.4871 12.9915 62.2584 12.5022C63.0446 12.0129 63.9421 11.7682 64.9507 11.7682C65.7221 11.7682 66.4119 11.9239 67.02 12.2353C67.6431 12.5467 68.14 12.9841 68.5108 13.5476C68.8965 14.0963 69.1042 14.7191 69.1338 15.416V19.2418C69.1042 19.9387 68.9039 20.5689 68.5331 21.1324C68.1622 21.6959 67.6653 22.1408 67.0423 22.467C66.4193 22.7932 65.7221 22.9563 64.9507 22.9563ZM65.4403 20.2649C65.9891 20.2649 66.4638 20.1463 66.8643 19.9091C67.2796 19.657 67.5986 19.3159 67.8211 18.8859C68.0584 18.441 68.1771 17.9295 68.1771 17.3511C68.1771 16.7877 68.0584 16.2909 67.8211 15.8609C67.5986 15.416 67.2796 15.075 66.8643 14.8377C66.4638 14.5856 65.9965 14.4596 65.4625 14.4596C64.9137 14.4596 64.4316 14.5856 64.0162 14.8377C63.6157 15.0898 63.2968 15.4308 63.0595 15.8609C62.837 16.2909 62.7257 16.7877 62.7257 17.3511C62.7257 17.9295 62.837 18.441 63.0595 18.8859C63.2968 19.3159 63.6231 19.657 64.0385 19.9091C64.4538 20.1463 64.9211 20.2649 65.4403 20.2649ZM70.9139 22.7339H68.0213V19.8423L68.4886 17.2177L67.9991 14.6375V6.65234H70.9139V22.7339Z" fill="white"/>
<path d="M54.8928 22.7336V11.9903H57.8299V22.7336H54.8928ZM56.3614 10.2554C55.8867 10.2554 55.4936 10.0997 55.1821 9.78827C54.8706 9.46204 54.7148 9.06167 54.7148 8.58716C54.7148 8.12747 54.8706 7.73451 55.1821 7.40829C55.4936 7.08206 55.8867 6.91895 56.3614 6.91895C56.8509 6.91895 57.244 7.08206 57.5407 7.40829C57.8522 7.73451 58.0079 8.12747 58.0079 8.58716C58.0079 9.06167 57.8522 9.46204 57.5407 9.78827C57.244 10.0997 56.8509 10.2554 56.3614 10.2554Z" fill="white"/>
<path d="M43.6147 22.7344V20.2654H47.6865C48.4134 20.2654 48.9771 20.043 49.3776 19.5981C49.7929 19.1533 50.0006 18.6268 50.0006 18.0189C50.0006 17.6037 49.9116 17.2255 49.7336 16.8845C49.5556 16.5434 49.2886 16.2765 48.9326 16.0837C48.5914 15.8762 48.176 15.7724 47.6865 15.7724H43.6147V13.3256H47.3528C47.9758 13.3256 48.4727 13.1699 48.8436 12.8585C49.2292 12.5471 49.4221 12.08 49.4221 11.4572C49.4221 10.8196 49.2292 10.3451 48.8436 10.0337C48.4727 9.72231 47.9758 9.56661 47.3528 9.56661H43.6147V7.09766H47.7088C48.7471 7.09766 49.6149 7.29043 50.3121 7.67597C51.0241 8.04668 51.5581 8.54344 51.9141 9.16624C52.2701 9.77421 52.4481 10.4415 52.4481 11.1681C52.4481 12.0578 52.1737 12.8289 51.6249 13.4813C51.0908 14.119 50.3047 14.5935 49.2663 14.9049L49.3998 13.9262C50.5568 14.2524 51.4469 14.7937 52.0699 15.5499C52.7077 16.2914 53.0266 17.1885 53.0266 18.2413C53.0266 19.0717 52.819 19.828 52.4036 20.5101C52.0031 21.1774 51.4098 21.7186 50.6236 22.1338C49.8522 22.5342 48.9103 22.7344 47.7978 22.7344H43.6147ZM41.3896 22.7344V7.09766H44.3935V22.7344H41.3896Z" fill="white"/>
</svg>
