<svg width="31" height="30" viewBox="0 0 31 30" fill="none" xmlns="http://www.w3.org/2000/svg">
<path fill-rule="evenodd" clip-rule="evenodd" d="M30.9784 7.41488C30.9341 3.29084 27.5657 0 23.5057 0H6.90085C5.75518 0 4.77486 0.834708 4.57481 1.98065L0.0260876 28.0164C-0.154769 29.0498 0.627712 29.9985 1.66118 29.9985H8.73672C9.88313 29.9985 10.8642 29.1623 11.0628 28.0156L14.2768 9.49603L10.7298 12.5596C10.14 13.0696 9.2542 12.9969 8.75296 12.3969C8.251 11.7977 8.3226 10.8977 8.91315 10.3885L15.421 4.76751C15.421 4.76751 15.424 4.76526 15.4255 4.76376C15.4284 4.76076 15.4314 4.75851 15.4351 4.75551C15.4351 4.75551 15.4351 4.75551 15.4358 4.75551C15.4528 4.74126 15.4712 4.72851 15.4889 4.71426L15.5384 4.67677C15.6093 4.62652 15.6838 4.58452 15.7606 4.54927C15.7702 4.54477 15.7798 4.54177 15.7894 4.53727C15.8152 4.52602 15.8418 4.51477 15.8684 4.50502C15.8684 4.50502 15.8691 4.50502 15.8699 4.50502C15.8699 4.50502 15.8699 4.50502 15.8706 4.50502C15.8706 4.50502 15.8713 4.50502 15.8721 4.50502C15.875 4.50427 15.8772 4.50353 15.8802 4.50278C15.9717 4.47128 16.0669 4.44878 16.1644 4.43678C16.1732 4.43603 16.1828 4.43528 16.1917 4.43453C16.2308 4.43078 16.2699 4.42778 16.3091 4.42703C16.3253 4.42703 16.3416 4.42778 16.3578 4.42853C16.3895 4.42853 16.4213 4.43003 16.4538 4.43303C16.4589 4.43303 16.4634 4.43303 16.4685 4.43303C16.487 4.43453 16.5054 4.43903 16.5231 4.44128C16.5416 4.44353 16.5593 4.44503 16.5778 4.44803C16.5829 4.44878 16.5874 4.45028 16.5925 4.45178C16.6176 4.45628 16.642 4.46303 16.6664 4.46903C16.6885 4.47428 16.7099 4.47953 16.7313 4.48553C16.7535 4.49228 16.7756 4.50053 16.7978 4.50803C16.8206 4.51627 16.8435 4.52377 16.8649 4.53277C16.8849 4.54102 16.9048 4.55077 16.9247 4.56052C16.9476 4.57102 16.9705 4.58152 16.9926 4.59352C16.9978 4.59652 17.003 4.59802 17.0081 4.60102H17.0089C17.0259 4.61077 17.0421 4.62202 17.0583 4.63177C17.0738 4.64152 17.0901 4.65052 17.1048 4.66102C17.1262 4.67527 17.1469 4.69177 17.1683 4.70752C17.1831 4.71876 17.1979 4.72926 17.2126 4.74051C17.2318 4.75626 17.2503 4.77351 17.2695 4.79076C17.2842 4.80426 17.299 4.81701 17.313 4.83051C17.3293 4.84701 17.3448 4.86426 17.3603 4.88151C17.375 4.89801 17.3905 4.91375 17.4045 4.931C17.406 4.93325 17.4082 4.93475 17.4097 4.937C17.4127 4.94 17.4156 4.94375 17.4178 4.94675L21.9762 10.5692C22.4685 11.1767 22.3829 12.0744 21.785 12.5754C21.5236 12.7936 21.2077 12.9001 20.894 12.9001C20.4894 12.9001 20.0879 12.7231 19.8103 12.3811L17.1853 9.14354L13.9092 28.0194C13.7298 29.0528 14.5123 30 15.545 30H19.5778C24.6705 30 29.0746 25.7672 29.0576 20.594C29.0495 18.1806 28.1445 15.9825 26.6629 14.325C29.2326 13.1311 31.0101 10.483 30.9769 7.41713L30.9784 7.41488Z" fill="url(#paint0_linear_1065_11456)"/>
<defs>
<linearGradient id="paint0_linear_1065_11456" x1="-8" y1="45" x2="57.1051" y2="20.1586" gradientUnits="userSpaceOnUse">
<stop stop-color="#0C4AE3"/>
<stop offset="1" stop-color="#90C5FF"/>
</linearGradient>
</defs>
</svg>
