<svg width="142" height="30" viewBox="0 0 142 30" fill="none" xmlns="http://www.w3.org/2000/svg">
<path fill-rule="evenodd" clip-rule="evenodd" d="M30.9784 7.41488C30.9341 3.29084 27.5657 0 23.5057 0H6.90085C5.75518 0 4.77486 0.834708 4.57481 1.98065L0.0260876 28.0164C-0.154769 29.0498 0.627712 29.9985 1.66118 29.9985H8.73672C9.88313 29.9985 10.8642 29.1623 11.0628 28.0156L14.2768 9.49603L10.7298 12.5596C10.14 13.0696 9.2542 12.9969 8.75296 12.3969C8.251 11.7977 8.3226 10.8977 8.91315 10.3885L15.421 4.76751C15.421 4.76751 15.424 4.76526 15.4255 4.76376C15.4284 4.76076 15.4314 4.75851 15.4351 4.75551C15.4351 4.75551 15.4351 4.75551 15.4358 4.75551C15.4528 4.74126 15.4712 4.72851 15.4889 4.71426L15.5384 4.67677C15.6093 4.62652 15.6838 4.58452 15.7606 4.54927C15.7702 4.54477 15.7798 4.54177 15.7894 4.53727C15.8152 4.52602 15.8418 4.51477 15.8684 4.50502C15.8684 4.50502 15.8691 4.50502 15.8699 4.50502C15.8699 4.50502 15.8699 4.50502 15.8706 4.50502C15.8706 4.50502 15.8713 4.50502 15.8721 4.50502C15.875 4.50427 15.8772 4.50353 15.8802 4.50278C15.9717 4.47128 16.0669 4.44878 16.1644 4.43678C16.1732 4.43603 16.1828 4.43528 16.1917 4.43453C16.2308 4.43078 16.2699 4.42778 16.3091 4.42703C16.3253 4.42703 16.3416 4.42778 16.3578 4.42853C16.3895 4.42853 16.4213 4.43003 16.4538 4.43303C16.4589 4.43303 16.4634 4.43303 16.4685 4.43303C16.487 4.43453 16.5054 4.43903 16.5231 4.44128C16.5416 4.44353 16.5593 4.44503 16.5778 4.44803C16.5829 4.44878 16.5874 4.45028 16.5925 4.45178C16.6176 4.45628 16.642 4.46303 16.6664 4.46903C16.6885 4.47428 16.7099 4.47953 16.7313 4.48553C16.7535 4.49228 16.7756 4.50053 16.7978 4.50803C16.8206 4.51627 16.8435 4.52377 16.8649 4.53277C16.8849 4.54102 16.9048 4.55077 16.9247 4.56052C16.9476 4.57102 16.9705 4.58152 16.9926 4.59352C16.9978 4.59652 17.003 4.59802 17.0081 4.60102H17.0089C17.0259 4.61077 17.0421 4.62202 17.0583 4.63177C17.0738 4.64152 17.0901 4.65052 17.1048 4.66102C17.1262 4.67527 17.1469 4.69177 17.1683 4.70752C17.1831 4.71876 17.1979 4.72926 17.2126 4.74051C17.2318 4.75626 17.2503 4.77351 17.2695 4.79076C17.2842 4.80426 17.299 4.81701 17.313 4.83051C17.3293 4.84701 17.3448 4.86426 17.3603 4.88151C17.375 4.89801 17.3905 4.91375 17.4045 4.931C17.406 4.93325 17.4082 4.93475 17.4097 4.937C17.4127 4.94 17.4156 4.94375 17.4178 4.94675L21.9762 10.5692C22.4685 11.1767 22.3829 12.0744 21.785 12.5754C21.5236 12.7936 21.2077 12.9001 20.894 12.9001C20.4894 12.9001 20.0879 12.7231 19.8103 12.3811L17.1853 9.14354L13.9092 28.0194C13.7298 29.0528 14.5123 30 15.545 30H19.5778C24.6705 30 29.0746 25.7672 29.0576 20.594C29.0495 18.1806 28.1445 15.9825 26.6629 14.325C29.2326 13.1311 31.0101 10.483 30.9769 7.41713L30.9784 7.41488Z" fill="url(#paint0_linear_1065_11455)"/>
<path d="M136.905 22.9565C135.777 22.9565 134.776 22.7192 133.901 22.2447C133.026 21.7554 132.328 21.0881 131.809 20.2428C131.305 19.3976 131.053 18.4338 131.053 17.3513C131.053 16.2836 131.297 15.3346 131.787 14.5042C132.291 13.659 132.974 12.9917 133.834 12.5024C134.694 11.9982 135.651 11.7461 136.704 11.7461C137.743 11.7461 138.655 11.9834 139.441 12.4579C140.242 12.9175 140.865 13.5552 141.31 14.3707C141.77 15.1715 142 16.0834 142 17.1066C142 17.2994 141.985 17.4996 141.955 17.7072C141.941 17.8999 141.904 18.1224 141.844 18.3745L132.811 18.3967V16.2169L140.487 16.1947L139.308 17.1066C139.278 16.469 139.159 15.9352 138.952 15.5051C138.759 15.0751 138.47 14.7489 138.084 14.5264C137.713 14.2892 137.253 14.1706 136.704 14.1706C136.126 14.1706 135.621 14.304 135.191 14.5709C134.761 14.823 134.427 15.1863 134.19 15.6608C133.968 16.1205 133.856 16.6692 133.856 17.3068C133.856 17.9593 133.975 18.5302 134.212 19.0195C134.464 19.494 134.82 19.8647 135.28 20.1316C135.74 20.3837 136.274 20.5098 136.882 20.5098C137.431 20.5098 137.928 20.4208 138.373 20.2428C138.818 20.0501 139.204 19.7683 139.53 19.3976L141.243 21.1103C140.724 21.7183 140.086 22.178 139.33 22.4894C138.588 22.8008 137.78 22.9565 136.905 22.9565Z" fill="#121330"/>
<path d="M126.502 22.7343V16.573C126.502 15.9354 126.302 15.4164 125.901 15.016C125.501 14.6156 124.982 14.4154 124.344 14.4154C123.928 14.4154 123.558 14.5044 123.231 14.6824C122.905 14.8603 122.645 15.1124 122.452 15.4386C122.274 15.7648 122.185 16.143 122.185 16.573L121.051 15.9947C121.051 15.1495 121.229 14.4154 121.585 13.7927C121.956 13.155 122.46 12.6583 123.098 12.3024C123.75 11.9465 124.485 11.7686 125.3 11.7686C126.087 11.7686 126.791 11.9687 127.414 12.3691C128.037 12.7547 128.527 13.2662 128.883 13.9039C129.239 14.5267 129.417 15.2014 129.417 15.928V22.7343H126.502ZM119.271 22.7343V11.991H122.185V22.7343H119.271Z" fill="#121330"/>
<path d="M114.196 22.7336V11.9903H117.133V22.7336H114.196ZM115.665 10.2554C115.19 10.2554 114.797 10.0997 114.486 9.78827C114.174 9.46204 114.018 9.06167 114.018 8.58716C114.018 8.12747 114.174 7.73451 114.486 7.40829C114.797 7.08206 115.19 6.91895 115.665 6.91895C116.154 6.91895 116.548 7.08206 116.844 7.40829C117.156 7.73451 117.312 8.12747 117.312 8.58716C117.312 9.06167 117.156 9.46204 116.844 9.78827C116.548 10.0997 116.154 10.2554 115.665 10.2554Z" fill="#121330"/>
<path d="M106.251 27.4942C105.109 27.4942 104.1 27.2866 103.225 26.8714C102.35 26.471 101.652 25.9002 101.133 25.1587L102.98 23.3126C103.395 23.8019 103.855 24.1726 104.36 24.4247C104.879 24.6916 105.502 24.8251 106.229 24.8251C107.133 24.8251 107.845 24.5952 108.365 24.1356C108.899 23.6759 109.166 23.0382 109.166 22.2227V19.5313L109.655 17.1736L109.188 14.8158V11.991H112.08V22.1782C112.08 23.2458 111.828 24.1726 111.324 24.9585C110.834 25.7593 110.152 26.3821 109.277 26.8269C108.402 27.2718 107.393 27.4942 106.251 27.4942ZM106.117 22.4451C105.153 22.4451 104.285 22.2153 103.514 21.7556C102.743 21.2811 102.134 20.636 101.689 19.8204C101.259 19.0049 101.044 18.0929 101.044 17.0846C101.044 16.0762 101.259 15.1717 101.689 14.371C102.134 13.5702 102.743 12.94 103.514 12.4803C104.285 12.0058 105.153 11.7686 106.117 11.7686C106.918 11.7686 107.623 11.9243 108.231 12.2357C108.854 12.5471 109.344 12.9771 109.7 13.5257C110.056 14.0596 110.248 14.6898 110.278 15.4164V18.7973C110.248 19.5091 110.048 20.1467 109.677 20.7102C109.321 21.2588 108.832 21.6888 108.209 22.0002C107.601 22.2968 106.903 22.4451 106.117 22.4451ZM106.696 19.7982C107.23 19.7982 107.69 19.687 108.075 19.4646C108.476 19.2273 108.787 18.9085 109.01 18.5081C109.232 18.0929 109.344 17.6258 109.344 17.1068C109.344 16.573 109.232 16.1059 109.01 15.7055C108.787 15.3052 108.476 14.9938 108.075 14.7713C107.69 14.5341 107.23 14.4154 106.696 14.4154C106.162 14.4154 105.695 14.5341 105.294 14.7713C104.894 14.9938 104.582 15.3126 104.36 15.7278C104.137 16.1281 104.026 16.5878 104.026 17.1068C104.026 17.611 104.137 18.0707 104.36 18.4859C104.582 18.8863 104.894 19.2051 105.294 19.4423C105.695 19.6796 106.162 19.7982 106.696 19.7982Z" fill="#121330"/>
<path d="M96.4935 22.7343V16.573C96.4935 15.9354 96.2932 15.4164 95.8927 15.016C95.4922 14.6156 94.973 14.4154 94.3352 14.4154C93.9198 14.4154 93.549 14.5044 93.2227 14.6824C92.8963 14.8603 92.6367 15.1124 92.4439 15.4386C92.2659 15.7648 92.1769 16.143 92.1769 16.573L91.0421 15.9947C91.0421 15.1495 91.2201 14.4154 91.5761 13.7927C91.947 13.155 92.4513 12.6583 93.0892 12.3024C93.7418 11.9465 94.4761 11.7686 95.292 11.7686C96.0781 11.7686 96.7827 11.9687 97.4058 12.3691C98.0288 12.7547 98.5183 13.2662 98.8743 13.9039C99.2303 14.5267 99.4083 15.2014 99.4083 15.928V22.7343H96.4935ZM89.2621 22.7343V11.991H92.1769V22.7343H89.2621Z" fill="#121330"/>
<path d="M76.411 22.7344V7.09766H79.4371V22.7344H76.411ZM78.6361 22.7344V20.0652H87.2915V22.7344H78.6361ZM78.6361 16.0393V13.4591H86.5127V16.0393H78.6361ZM78.6361 9.76679V7.09766H87.1802V9.76679H78.6361Z" fill="#121330"/>
<path d="M64.9503 22.9563C63.9564 22.9563 63.0664 22.7117 62.2802 22.2223C61.494 21.733 60.871 21.0657 60.4112 20.2205C59.9662 19.3752 59.7437 18.4262 59.7437 17.3734C59.7437 16.3057 59.9662 15.3493 60.4112 14.5041C60.871 13.6588 61.4866 12.9915 62.258 12.5022C63.0441 12.0129 63.9416 11.7682 64.9503 11.7682C65.7216 11.7682 66.4114 11.9239 67.0196 12.2353C67.6426 12.5467 68.1395 12.9841 68.5103 13.5476C68.896 14.0963 69.1037 14.7191 69.1333 15.416V19.2418C69.1037 19.9387 68.9034 20.5689 68.5326 21.1324C68.1617 21.6959 67.6648 22.1408 67.0418 22.467C66.4188 22.7932 65.7216 22.9563 64.9503 22.9563ZM65.4398 20.2649C65.9886 20.2649 66.4633 20.1463 66.8638 19.9091C67.2791 19.657 67.5981 19.3159 67.8206 18.8859C68.0579 18.441 68.1766 17.9295 68.1766 17.3511C68.1766 16.7877 68.0579 16.2909 67.8206 15.8609C67.5981 15.416 67.2791 15.075 66.8638 14.8377C66.4633 14.5856 65.996 14.4596 65.462 14.4596C64.9132 14.4596 64.4311 14.5856 64.0157 14.8377C63.6152 15.0898 63.2963 15.4308 63.059 15.8609C62.8365 16.2909 62.7252 16.7877 62.7252 17.3511C62.7252 17.9295 62.8365 18.441 63.059 18.8859C63.2963 19.3159 63.6227 19.657 64.038 19.9091C64.4533 20.1463 64.9206 20.2649 65.4398 20.2649ZM70.9134 22.7339H68.0208V19.8423L68.4881 17.2177L67.9986 14.6375V6.65234H70.9134V22.7339Z" fill="#121330"/>
<path d="M54.8921 22.7336V11.9903H57.8292V22.7336H54.8921ZM56.3606 10.2554C55.886 10.2554 55.4929 10.0997 55.1814 9.78827C54.8699 9.46204 54.7141 9.06167 54.7141 8.58716C54.7141 8.12747 54.8699 7.73451 55.1814 7.40829C55.4929 7.08206 55.886 6.91895 56.3606 6.91895C56.8502 6.91895 57.2432 7.08206 57.5399 7.40829C57.8514 7.73451 58.0072 8.12747 58.0072 8.58716C58.0072 9.06167 57.8514 9.46204 57.5399 9.78827C57.2432 10.0997 56.8502 10.2554 56.3606 10.2554Z" fill="#121330"/>
<path d="M43.6142 22.7344V20.2654H47.686C48.4129 20.2654 48.9766 20.043 49.3771 19.5981C49.7924 19.1533 50.0001 18.6268 50.0001 18.0189C50.0001 17.6037 49.9111 17.2255 49.7331 16.8845C49.5551 16.5434 49.2881 16.2765 48.9321 16.0837C48.5909 15.8762 48.1755 15.7724 47.686 15.7724H43.6142V13.3256H47.3523C47.9753 13.3256 48.4722 13.1699 48.8431 12.8585C49.2287 12.5471 49.4216 12.08 49.4216 11.4572C49.4216 10.8196 49.2287 10.3451 48.8431 10.0337C48.4722 9.72231 47.9753 9.56661 47.3523 9.56661H43.6142V7.09766H47.7083C48.7466 7.09766 49.6144 7.29043 50.3116 7.67597C51.0236 8.04668 51.5576 8.54344 51.9136 9.16624C52.2696 9.77421 52.4476 10.4415 52.4476 11.1681C52.4476 12.0578 52.1732 12.8289 51.6244 13.4813C51.0904 14.119 50.3042 14.5935 49.2658 14.9049L49.3993 13.9262C50.5563 14.2524 51.4464 14.7937 52.0694 15.5499C52.7072 16.2914 53.0261 17.1885 53.0261 18.2413C53.0261 19.0717 52.8185 19.828 52.4031 20.5101C52.0026 21.1774 51.4093 21.7186 50.6231 22.1338C49.8518 22.5342 48.9098 22.7344 47.7973 22.7344H43.6142ZM41.3892 22.7344V7.09766H44.393V22.7344H41.3892Z" fill="#121330"/>
<defs>
<linearGradient id="paint0_linear_1065_11455" x1="-8" y1="45" x2="57.1051" y2="20.1586" gradientUnits="userSpaceOnUse">
<stop stop-color="#0C4AE3"/>
<stop offset="1" stop-color="#90C5FF"/>
</linearGradient>
</defs>
</svg>
