<svg width="468" height="360" viewBox="0 0 468 360" fill="none" xmlns="http://www.w3.org/2000/svg">
<g clip-path="url(#clip0_1_8)">
<path d="M101.261 276.479C66.5689 255.443 40.4324 223.573 36.1389 180.937C31.3002 134.346 50.818 88.9074 86.4127 60.7554C118.203 36.008 155.891 29.0985 194.951 38.0143C227.299 45.4003 258.5 57.5765 290.171 67.1946C317.894 75.6151 347.916 65.7588 375.413 75.5712C393.828 82.1421 408.488 97.3593 416.554 115.178C463.613 219.14 332.754 289.909 249.913 303.903C241.659 305.295 233.335 306.305 224.98 306.762C184.716 308.969 138.153 298.85 101.267 276.485L101.261 276.479Z" fill="url(#paint0_linear_1_8)"/>
<path d="M219.91 324.687C182.172 333.12 143.167 328.455 112.092 301.958C78.0327 273.104 61.4795 228.97 67.39 186.109C72.9244 148.101 94.2912 118.469 127.04 98.8192C154.161 82.5424 183.651 70.3224 211.78 56.0332C236.407 43.5247 250.547 16.9215 275.937 5.52275C292.942 -2.11401 313.055 -1.324 330.36 5.60426C431.309 46.0452 387.986 181.106 340.245 245.416C335.487 251.824 330.429 258.012 324.983 263.843C298.746 291.939 260.042 315.721 219.916 324.687H219.91Z" fill="url(#paint1_linear_1_8)"/>
<path d="M219.001 224.852H168V329.954H219.001V224.852Z" fill="url(#paint2_linear_1_8)"/>
<path d="M250.878 329.96V155.989L327.527 79.3076V329.96H250.878Z" fill="url(#paint3_linear_1_8)"/>
<path d="M400.828 329.961V203.427L342.394 147.65V329.961H400.828Z" fill="url(#paint4_linear_1_8)"/>
<path d="M293.725 171.357H200.316V329.961H293.725V171.357Z" fill="url(#paint5_linear_1_8)"/>
<path d="M293.719 204.129H200.31V204.568H293.719V204.129Z" fill="url(#paint6_linear_1_8)"/>
<path d="M293.719 224.827H200.31V225.266H293.719V224.827Z" fill="url(#paint7_linear_1_8)"/>
<path d="M293.719 245.53H200.31V245.969H293.719V245.53Z" fill="url(#paint8_linear_1_8)"/>
<path d="M293.719 266.083H200.31V266.522H293.719V266.083Z" fill="url(#paint9_linear_1_8)"/>
<path d="M293.719 286.78H200.31V287.219H293.719V286.78Z" fill="url(#paint10_linear_1_8)"/>
<path d="M293.719 307.483H200.31V307.922H293.719V307.483Z" fill="url(#paint11_linear_1_8)"/>
<path d="M261.183 329.96H384.758V239.724H261.183V329.96Z" fill="url(#paint12_linear_1_8)"/>
<path d="M360.169 239.724H359.731V329.961H360.169V239.724Z" fill="url(#paint13_linear_1_8)"/>
<path d="M335.544 239.724H335.105V329.961H335.544V239.724Z" fill="url(#paint14_linear_1_8)"/>
<path d="M310.774 239.724H310.335V329.961H310.774V239.724Z" fill="url(#paint15_linear_1_8)"/>
<path d="M286.141 239.724H285.702V329.961H286.141V239.724Z" fill="url(#paint16_linear_1_8)"/>
<path d="M51.4262 290.761C50.4545 290.761 49.6583 289.971 49.6583 288.993C49.6583 288.015 50.4482 287.225 51.4262 287.225C52.4042 287.225 53.1942 288.015 53.1942 288.993C53.1942 289.971 52.4042 290.761 51.4262 290.761ZM51.4262 288.335C51.0626 288.335 50.7617 288.63 50.7617 288.999C50.7617 289.369 51.0564 289.664 51.4262 289.664C51.7961 289.664 52.0908 289.369 52.0908 288.999C52.0908 288.63 51.7961 288.335 51.4262 288.335Z" fill="url(#paint17_linear_1_8)"/>
<path d="M434.837 285.275C433.865 285.275 433.069 284.485 433.069 283.507C433.069 282.529 433.859 281.739 434.837 281.739C435.815 281.739 436.605 282.529 436.605 283.507C436.605 284.485 435.815 285.275 434.837 285.275ZM434.837 282.849C434.473 282.849 434.173 283.144 434.173 283.513C434.173 283.883 434.467 284.178 434.837 284.178C435.207 284.178 435.502 283.883 435.502 283.513C435.502 283.144 435.207 282.849 434.837 282.849Z" fill="url(#paint18_linear_1_8)"/>
<path d="M439.117 78.9124C438.146 78.9124 437.349 78.1225 437.349 77.1445C437.349 76.1665 438.139 75.3765 439.117 75.3765C440.095 75.3765 440.885 76.1665 440.885 77.1445C440.885 78.1225 440.095 78.9124 439.117 78.9124ZM439.117 76.4862C438.754 76.4862 438.453 76.7808 438.453 77.1507C438.453 77.5206 438.747 77.8153 439.117 77.8153C439.487 77.8153 439.782 77.5206 439.782 77.1507C439.782 76.7808 439.487 76.4862 439.117 76.4862Z" fill="url(#paint19_linear_1_8)"/>
<path d="M188.119 19.7296C187.147 19.7296 186.351 18.9396 186.351 17.9616C186.351 16.9836 187.141 16.1937 188.119 16.1937C189.097 16.1937 189.886 16.9836 189.886 17.9616C189.886 18.9396 189.097 19.7296 188.119 19.7296ZM188.119 17.3034C187.755 17.3034 187.454 17.598 187.454 17.9679C187.454 18.3378 187.749 18.6325 188.119 18.6325C188.488 18.6325 188.783 18.3378 188.783 17.9679C188.783 17.598 188.488 17.3034 188.119 17.3034Z" fill="url(#paint20_linear_1_8)"/>
<path d="M207.036 129.241C206.064 129.241 205.268 128.451 205.268 127.473C205.268 126.495 206.058 125.705 207.036 125.705C208.014 125.705 208.804 126.495 208.804 127.473C208.804 128.451 208.014 129.241 207.036 129.241ZM207.036 126.815C206.672 126.815 206.371 127.11 206.371 127.48C206.371 127.849 206.666 128.144 207.036 128.144C207.406 128.144 207.7 127.849 207.7 127.48C207.7 127.11 207.406 126.815 207.036 126.815Z" fill="url(#paint21_linear_1_8)"/>
<path d="M1.76701 205.797C0.795277 205.797 -0.000915527 205.007 -0.000915527 204.029C-0.000915527 203.051 0.789008 202.261 1.76701 202.261C2.74501 202.261 3.53493 203.051 3.53493 204.029C3.53493 205.007 2.74501 205.797 1.76701 205.797ZM1.76701 203.371C1.40339 203.371 1.10247 203.665 1.10247 204.035C1.10247 204.405 1.39712 204.7 1.76701 204.7C2.13689 204.7 2.43155 204.405 2.43155 204.035C2.43155 203.665 2.13689 203.371 1.76701 203.371Z" fill="url(#paint22_linear_1_8)"/>
<path d="M298.84 42.7222C297.868 42.7222 297.072 41.9323 297.072 40.9543C297.072 39.9763 297.862 39.1864 298.84 39.1864C299.818 39.1864 300.608 39.9763 300.608 40.9543C300.608 41.9323 299.818 42.7222 298.84 42.7222ZM298.84 40.296C298.476 40.296 298.175 40.5907 298.175 40.9606C298.175 41.3304 298.47 41.6251 298.84 41.6251C299.21 41.6251 299.203 40.3023 298.84 40.3023V40.296Z" fill="url(#paint23_linear_1_8)"/>
<path d="M466.232 172.573C465.26 172.573 464.464 171.783 464.464 170.805C464.464 169.827 465.254 169.037 466.232 169.037C467.21 169.037 468 169.827 468 170.805C468 171.783 467.21 172.573 466.232 172.573ZM466.232 170.147C465.869 170.147 465.568 170.442 465.568 170.811C465.568 171.181 465.862 171.476 466.232 171.476C466.602 171.476 466.897 171.181 466.897 170.811C466.897 170.442 466.602 170.147 466.232 170.147Z" fill="url(#paint24_linear_1_8)"/>
<path d="M359.643 112.513C358.671 112.513 357.875 111.723 357.875 110.745C357.875 109.767 358.665 108.978 359.643 108.978C360.621 108.978 361.411 109.767 361.411 110.745C361.411 111.723 360.621 112.513 359.643 112.513ZM359.643 110.087C359.279 110.087 358.979 110.382 358.979 110.752C358.979 111.122 359.273 111.416 359.643 111.416C360.013 111.416 360.308 111.122 360.308 110.752C360.308 110.382 360.013 110.087 359.643 110.087Z" fill="url(#paint25_linear_1_8)"/>
<path d="M109.867 205.183C108.895 205.183 108.099 204.393 108.099 203.415C108.099 202.437 108.889 201.647 109.867 201.647C110.845 201.647 111.635 202.437 111.635 203.415C111.635 204.393 110.845 205.183 109.867 205.183ZM109.867 202.757C109.503 202.757 109.203 203.051 109.203 203.421C109.203 203.791 109.497 204.086 109.867 204.086C110.237 204.086 110.532 203.791 110.532 203.421C110.532 203.051 110.237 202.757 109.867 202.757Z" fill="url(#paint26_linear_1_8)"/>
<path d="M82.2325 105.177C81.2608 105.177 80.4646 104.387 80.4646 103.409C80.4646 102.431 81.2545 101.641 82.2325 101.641C83.2105 101.641 84.0004 102.431 84.0004 103.409C84.0004 104.387 83.2105 105.177 82.2325 105.177ZM82.2325 102.75C81.8689 102.75 81.568 103.045 81.568 103.415C81.568 103.785 81.8626 104.08 82.2325 104.08C82.6024 104.08 82.8971 103.785 82.8971 103.415C82.8971 103.045 82.6024 102.75 82.2325 102.75Z" fill="url(#paint27_linear_1_8)"/>
<path d="M150.757 214.864V163.538C160.053 163.5 167.574 155.958 167.574 146.653H240.493C240.493 155.926 247.964 163.457 257.215 163.538V214.864L257.297 214.795C257.297 237.893 240.556 258.038 215.648 268.81C215.196 269.004 206.315 273.268 204.033 276.917C201.727 273.218 192.758 268.992 192.331 268.81C167.423 258.038 150.682 237.893 150.682 214.795L150.764 214.864H150.757Z" fill="url(#paint28_linear_1_8)"/>
<path d="M204.052 262.509C204.29 262.358 204.535 262.208 204.786 262.057C207.637 260.333 210.414 258.973 211.235 258.615C221.991 253.963 230.928 247.373 237.09 239.548C242.499 232.677 245.595 224.983 246.115 217.165V172.253C239.684 169.4 234.507 164.196 231.699 157.745H176.361C173.541 164.234 168.326 169.463 161.845 172.303V217.165C162.365 224.99 165.462 232.683 170.871 239.548C177.032 247.367 185.97 253.963 196.725 258.609C197.358 258.885 200.524 260.289 204.046 262.503L204.052 262.509Z" fill="url(#paint29_linear_1_8)"/>
<path d="M197.91 224.952L183.425 210.462C181.877 208.913 181.877 206.405 183.425 204.857C184.973 203.308 187.48 203.308 189.028 204.857L197.91 213.741L218.48 193.163C220.029 191.615 222.536 191.615 224.084 193.163C225.632 194.712 225.632 197.22 224.084 198.769L197.91 224.952Z" fill="url(#paint30_linear_1_8)"/>
<path d="M282.756 314.957C282.794 314.957 282.838 314.957 282.875 314.957H290.096C302.475 315.026 312.49 325.083 312.49 337.479C312.49 349.874 302.475 359.931 290.096 360H282.875C282.838 360 282.794 360 282.756 360C270.321 360 260.242 349.918 260.242 337.479C260.242 325.039 270.321 314.957 282.756 314.957Z" fill="url(#paint31_linear_1_8)"/>
<path d="M286.378 359.694C298.652 357.701 306.986 346.133 304.994 333.855C303.002 321.577 291.437 313.24 279.164 315.233C266.89 317.226 258.556 328.794 260.548 341.072C262.54 353.35 274.105 361.687 286.378 359.694Z" fill="url(#paint32_linear_1_8)"/>
<path d="M165.556 314.957C165.593 314.957 165.637 314.957 165.675 314.957H172.895C185.274 315.026 195.29 325.083 195.29 337.479C195.29 349.874 185.274 359.931 172.895 360H165.675C165.637 360 165.593 360 165.556 360C153.12 360 143.042 349.918 143.042 337.479C143.042 325.039 153.12 314.957 165.556 314.957Z" fill="url(#paint33_linear_1_8)"/>
<path d="M181.478 353.406C190.27 344.611 190.27 330.351 181.478 321.556C172.686 312.761 158.431 312.761 149.639 321.556C140.847 330.351 140.847 344.611 149.639 353.406C158.431 362.201 172.686 362.201 181.478 353.406Z" fill="url(#paint34_linear_1_8)"/>
<path d="M194.851 253.294C210.113 253.294 227.726 263.702 235.949 270.429C244.166 277.163 249.45 282.06 249.45 282.06C249.45 282.06 276.457 285.183 296.414 290.261C316.377 295.34 327.527 309.535 327.527 309.535C327.527 309.535 325.766 324.376 324.594 332.213C323.422 340.051 316.96 342.853 306.981 342.853H76.8478C64.5191 342.853 60.9966 338.935 61.5858 326.056C62.175 313.178 63.9362 290.882 69.8028 283.54C78.0951 273.169 102.677 253.294 122.051 253.294H194.851Z" fill="url(#paint35_linear_1_8)"/>
<path d="M209.731 314.957C209.768 314.957 209.812 314.957 209.85 314.957H217.07C229.449 315.026 239.465 325.083 239.465 337.479C239.465 349.874 229.449 359.931 217.07 360H209.85C209.812 360 209.768 360 209.731 360C197.296 360 187.217 349.918 187.217 337.479C187.217 325.039 197.296 314.957 209.731 314.957Z" fill="url(#paint36_linear_1_8)"/>
<path d="M214.892 359.407C226.993 356.55 234.488 344.42 231.632 332.314C228.775 320.208 216.65 312.711 204.548 315.568C192.447 318.426 184.952 330.555 187.808 342.661C190.664 354.767 202.79 362.264 214.892 359.407Z" fill="url(#paint37_linear_1_8)"/>
<path d="M209.731 350.608C216.979 350.608 222.855 344.729 222.855 337.478C222.855 330.227 216.979 324.349 209.731 324.349C202.482 324.349 196.606 330.227 196.606 337.478C196.606 344.729 202.482 350.608 209.731 350.608Z" fill="url(#paint38_linear_1_8)"/>
<path d="M92.53 314.957C92.5676 314.957 92.6115 314.957 92.6491 314.957H99.8696C112.248 315.026 122.264 325.083 122.264 337.479C122.264 349.874 112.248 359.931 99.8696 360H92.6491C92.6115 360 92.5676 360 92.53 360C80.0948 360 70.0162 349.918 70.0162 337.479C70.0162 325.039 80.0948 314.957 92.53 314.957Z" fill="url(#paint39_linear_1_8)"/>
<path d="M96.1523 359.699C108.426 357.706 116.76 346.138 114.768 333.86C112.776 321.583 101.211 313.245 88.9378 315.238C76.6644 317.231 68.3299 328.8 70.3221 341.077C72.3144 353.355 83.879 361.692 96.1523 359.699Z" fill="url(#paint40_linear_1_8)"/>
<path d="M92.53 350.608C99.7786 350.608 105.655 344.729 105.655 337.478C105.655 330.227 99.7786 324.349 92.53 324.349C85.2815 324.349 79.4053 330.227 79.4053 337.478C79.4053 344.729 85.2815 350.608 92.53 350.608Z" fill="url(#paint41_linear_1_8)"/>
<path d="M61.5794 326.056C62.1686 313.178 63.9298 290.882 69.7964 283.54C78.0887 273.169 102.671 253.294 122.044 253.294H194.844C210.106 253.294 227.719 263.702 235.942 270.429C244.159 277.163 249.443 282.06 249.443 282.06C249.443 282.06 276.45 285.183 296.407 290.261C316.37 295.34 327.52 309.535 327.52 309.535C327.52 309.535 325.759 324.376 324.587 332.213C323.415 340.051 316.953 342.853 306.974 342.853H234.983C235.353 341.117 235.547 339.323 235.547 337.48C235.547 323.235 223.964 311.648 209.724 311.648C195.484 311.648 183.901 323.235 183.901 337.48C183.901 339.323 184.095 341.123 184.465 342.853H117.782C118.19 341.035 118.409 339.142 118.409 337.204C118.409 322.959 106.826 311.372 92.586 311.372C78.3456 311.372 66.7628 322.959 66.7628 337.204C66.7628 338.59 66.8757 339.944 67.0825 341.267C62.5885 339.11 61.1971 334.514 61.5857 326.056H61.5794Z" fill="url(#paint42_linear_1_8)"/>
<path d="M226.547 307.909C189.856 300.273 185.161 314.367 157.564 314.367C129.967 314.367 124.245 298.072 103.404 298.072C82.5641 298.072 68.0104 286.447 68.0104 286.447C68.5557 285.319 69.1511 284.334 69.7904 283.532C78.0827 273.161 102.665 253.286 122.038 253.286H194.838C210.1 253.286 227.713 263.694 235.936 270.421C244.153 277.155 249.437 282.052 249.437 282.052C249.437 282.052 276.445 285.175 296.401 290.253C316.364 295.332 327.514 309.527 327.514 309.527C327.514 309.527 327.339 311 327.063 313.264C320.062 315.584 310.265 317.471 296.84 317.446C279.102 317.415 258.086 314.468 226.534 307.903L226.547 307.909Z" fill="url(#paint43_linear_1_8)"/>
<path d="M165.098 258.026C164.22 257.505 164.615 256.226 165.662 256.226H190.883C206.753 256.226 224.748 267.004 232.043 272.697C237.133 276.673 241.163 280.021 243.57 282.065H195.402C192.688 282.065 190.106 280.967 188.326 279.049C187.586 278.253 186.796 277.412 186 276.553C184.352 274.792 182.654 272.967 181.262 271.45C179.501 269.525 173.007 262.728 165.091 258.02L165.098 258.026Z" fill="url(#paint44_linear_1_8)"/>
<path d="M153.314 256.226C161.212 256.226 169.893 265.456 175.966 273.362C177.138 274.886 178.573 276.717 179.959 278.491C179.971 278.503 179.977 278.516 179.99 278.529C181.081 279.92 180.178 282.071 178.511 282.071H134.762L138.284 256.233H153.321L153.314 256.226Z" fill="url(#paint45_linear_1_8)"/>
<path d="M92.2226 273.732C101.75 264.898 114.755 256.226 125.291 256.226H135.602L132.079 282.065H99.4368C98.8539 282.065 98.2773 281.908 97.7633 281.613L92.724 278.704C91.0004 277.707 90.7309 275.111 92.2164 273.732H92.2226Z" fill="url(#paint46_linear_1_8)"/>
<path d="M238.13 304.706L262.254 311.195C265.683 312.117 267.977 311.352 267.043 309.414L262.511 300.016C261.577 298.078 258.067 296.323 254.99 296.128L233.341 294.78C232.106 294.705 231.586 295.552 232.119 296.655L234.707 302.022C235.24 303.132 236.744 304.323 238.117 304.693L238.13 304.706Z" fill="url(#paint47_linear_1_8)"/>
<path d="M327.17 309.101L321.397 311.201C318.859 312.123 315.831 311.358 314.891 309.42L310.359 300.022C309.695 298.642 310.428 297.363 311.939 296.667C320.563 301.708 325.803 307.495 327.17 309.101Z" fill="url(#paint48_linear_1_8)"/>
<path d="M283.483 332.187H309.551C310.579 332.187 311.638 331.071 311.914 329.61L312.741 325.246C313.117 323.271 312.352 321.515 311.017 321.515H277.146C275.805 321.515 275.849 323.271 277.121 325.246L279.942 329.61C280.888 331.071 282.449 332.187 283.483 332.187Z" fill="url(#paint49_linear_1_8)"/>
</g>
<defs>
<linearGradient id="paint0_linear_1_8" x1="354.507" y1="16.3784" x2="-95.7772" y2="521.528" gradientUnits="userSpaceOnUse">
<stop stop-color="white"/>
<stop offset="1" stop-color="#B2CBFB"/>
</linearGradient>
<linearGradient id="paint1_linear_1_8" x1="569.916" y1="411.488" x2="212.417" y2="144.69" gradientUnits="userSpaceOnUse">
<stop stop-color="white"/>
<stop offset="1" stop-color="#B2CBFB"/>
</linearGradient>
<linearGradient id="paint2_linear_1_8" x1="130.832" y1="215.666" x2="415.78" y2="496.184" gradientUnits="userSpaceOnUse">
<stop stop-color="#E3ECFE"/>
<stop offset="1" stop-color="#B2CBFB"/>
</linearGradient>
<linearGradient id="paint3_linear_1_8" x1="207.781" y1="124.426" x2="665.094" y2="574.624" gradientUnits="userSpaceOnUse">
<stop stop-color="#E3ECFE"/>
<stop offset="1" stop-color="#B2CBFB"/>
</linearGradient>
<linearGradient id="paint4_linear_1_8" x1="431.916" y1="179.395" x2="94.345" y2="511.715" gradientUnits="userSpaceOnUse">
<stop stop-color="#E3ECFE"/>
<stop offset="1" stop-color="#B2CBFB"/>
</linearGradient>
<linearGradient id="paint5_linear_1_8" x1="467.398" y1="452.3" x2="51.9718" y2="72.4477" gradientUnits="userSpaceOnUse">
<stop stop-color="#E3ECFE"/>
<stop offset="1" stop-color="#B2CBFB"/>
</linearGradient>
<linearGradient id="paint6_linear_1_8" x1="246.905" y1="205.101" x2="293.002" y2="-104.451" gradientUnits="userSpaceOnUse">
<stop stop-color="#E3ECFE"/>
<stop offset="1" stop-color="#B2CBFB"/>
</linearGradient>
<linearGradient id="paint7_linear_1_8" x1="249.544" y1="208.057" x2="295.643" y2="-101.482" gradientUnits="userSpaceOnUse">
<stop stop-color="#E3ECFE"/>
<stop offset="1" stop-color="#B2CBFB"/>
</linearGradient>
<linearGradient id="paint8_linear_1_8" x1="252.182" y1="211.011" x2="298.286" y2="-98.5409" gradientUnits="userSpaceOnUse">
<stop stop-color="#E3ECFE"/>
<stop offset="1" stop-color="#B2CBFB"/>
</linearGradient>
<linearGradient id="paint9_linear_1_8" x1="254.827" y1="213.821" x2="300.931" y2="-95.7305" gradientUnits="userSpaceOnUse">
<stop stop-color="#E3ECFE"/>
<stop offset="1" stop-color="#B2CBFB"/>
</linearGradient>
<linearGradient id="paint10_linear_1_8" x1="257.466" y1="216.773" x2="303.566" y2="-92.7662" gradientUnits="userSpaceOnUse">
<stop stop-color="#E3ECFE"/>
<stop offset="1" stop-color="#B2CBFB"/>
</linearGradient>
<linearGradient id="paint11_linear_1_8" x1="260.111" y1="219.725" x2="306.214" y2="-89.8274" gradientUnits="userSpaceOnUse">
<stop stop-color="#E3ECFE"/>
<stop offset="1" stop-color="#B2CBFB"/>
</linearGradient>
<linearGradient id="paint12_linear_1_8" x1="617.723" y1="419.094" x2="248.973" y2="251.257" gradientUnits="userSpaceOnUse">
<stop stop-color="#E3ECFE"/>
<stop offset="1" stop-color="#B2CBFB"/>
</linearGradient>
<linearGradient id="paint13_linear_1_8" x1="370.069" y1="216.87" x2="416.132" y2="-92.4684" gradientUnits="userSpaceOnUse">
<stop stop-color="#E3ECFE"/>
<stop offset="1" stop-color="#B2CBFB"/>
</linearGradient>
<linearGradient id="paint14_linear_1_8" x1="345.981" y1="213.265" x2="392.048" y2="-96.0725" gradientUnits="userSpaceOnUse">
<stop stop-color="#E3ECFE"/>
<stop offset="1" stop-color="#B2CBFB"/>
</linearGradient>
<linearGradient id="paint15_linear_1_8" x1="321.744" y1="209.66" x2="367.809" y2="-99.6782" gradientUnits="userSpaceOnUse">
<stop stop-color="#E3ECFE"/>
<stop offset="1" stop-color="#B2CBFB"/>
</linearGradient>
<linearGradient id="paint16_linear_1_8" x1="297.652" y1="206.054" x2="343.715" y2="-103.284" gradientUnits="userSpaceOnUse">
<stop stop-color="#E3ECFE"/>
<stop offset="1" stop-color="#B2CBFB"/>
</linearGradient>
<linearGradient id="paint17_linear_1_8" x1="-113.273" y1="456.877" x2="506.289" y2="-174.655" gradientUnits="userSpaceOnUse">
<stop stop-color="#90C5FF"/>
<stop offset="1" stop-color="#0C4AE3"/>
</linearGradient>
<linearGradient id="paint18_linear_1_8" x1="120.905" y1="603.513" x2="740.466" y2="-28.0195" gradientUnits="userSpaceOnUse">
<stop stop-color="#90C5FF"/>
<stop offset="1" stop-color="#0C4AE3"/>
</linearGradient>
<linearGradient id="paint19_linear_1_8" x1="65.5516" y1="457.938" x2="685.108" y2="-173.595" gradientUnits="userSpaceOnUse">
<stop stop-color="#90C5FF"/>
<stop offset="1" stop-color="#0C4AE3"/>
</linearGradient>
<linearGradient id="paint20_linear_1_8" x1="-126.057" y1="338.207" x2="493.512" y2="-293.323" gradientUnits="userSpaceOnUse">
<stop stop-color="#90C5FF"/>
<stop offset="1" stop-color="#0C4AE3"/>
</linearGradient>
<linearGradient id="paint21_linear_1_8" x1="-107.135" y1="447.718" x2="512.428" y2="-183.821" gradientUnits="userSpaceOnUse">
<stop stop-color="#90C5FF"/>
<stop offset="1" stop-color="#0C4AE3"/>
</linearGradient>
<linearGradient id="paint22_linear_1_8" x1="-261.014" y1="471.895" x2="358.544" y2="-159.636" gradientUnits="userSpaceOnUse">
<stop stop-color="#90C5FF"/>
<stop offset="1" stop-color="#0C4AE3"/>
</linearGradient>
<linearGradient id="paint23_linear_1_8" x1="-69.8968" y1="416.826" x2="549.666" y2="-214.71" gradientUnits="userSpaceOnUse">
<stop stop-color="#90C5FF"/>
<stop offset="1" stop-color="#0C4AE3"/>
</linearGradient>
<linearGradient id="paint24_linear_1_8" x1="73.0351" y1="571.615" x2="692.59" y2="-59.9179" gradientUnits="userSpaceOnUse">
<stop stop-color="#90C5FF"/>
<stop offset="1" stop-color="#0C4AE3"/>
</linearGradient>
<linearGradient id="paint25_linear_1_8" x1="26.7148" y1="450.112" x2="646.292" y2="-181.439" gradientUnits="userSpaceOnUse">
<stop stop-color="#90C5FF"/>
<stop offset="1" stop-color="#0C4AE3"/>
</linearGradient>
<linearGradient id="paint26_linear_1_8" x1="-108.177" y1="425.671" x2="511.385" y2="-205.86" gradientUnits="userSpaceOnUse">
<stop stop-color="#90C5FF"/>
<stop offset="1" stop-color="#0C4AE3"/>
</linearGradient>
<linearGradient id="paint27_linear_1_8" x1="-146.726" y1="336.793" x2="472.843" y2="-294.75" gradientUnits="userSpaceOnUse">
<stop stop-color="#90C5FF"/>
<stop offset="1" stop-color="#0C4AE3"/>
</linearGradient>
<linearGradient id="paint28_linear_1_8" x1="107.309" y1="305.909" x2="283.651" y2="110.599" gradientUnits="userSpaceOnUse">
<stop stop-color="#920155"/>
<stop offset="1" stop-color="#FF3862"/>
</linearGradient>
<linearGradient id="paint29_linear_1_8" x1="66.0363" y1="353.899" x2="242.384" y2="158.589" gradientUnits="userSpaceOnUse">
<stop stop-color="#920155"/>
<stop offset="1" stop-color="#FF3862"/>
</linearGradient>
<linearGradient id="paint30_linear_1_8" x1="187.38" y1="178.73" x2="271.124" y2="296.684" gradientUnits="userSpaceOnUse">
<stop stop-color="#ECF1FD"/>
<stop offset="0.13" stop-color="#F1F4FD"/>
<stop offset="0.53" stop-color="#FBFCFE"/>
<stop offset="1" stop-color="white"/>
</linearGradient>
<linearGradient id="paint31_linear_1_8" x1="286.366" y1="438.205" x2="286.366" y2="282.209" gradientUnits="userSpaceOnUse">
<stop offset="0.13" stop-color="#4D2C89"/>
<stop offset="1" stop-color="#1A0559"/>
</linearGradient>
<linearGradient id="paint32_linear_1_8" x1="282.75" y1="478.974" x2="282.75" y2="360.504" gradientUnits="userSpaceOnUse">
<stop offset="0.13" stop-color="#4D2C89"/>
<stop offset="1" stop-color="#1A0559"/>
</linearGradient>
<linearGradient id="paint33_linear_1_8" x1="169.166" y1="-1.80027" x2="169.166" y2="-1.80027" gradientUnits="userSpaceOnUse">
<stop offset="0.13" stop-color="#4D2C89"/>
<stop offset="1" stop-color="#1A0559"/>
</linearGradient>
<linearGradient id="paint34_linear_1_8" x1="165.557" y1="478.855" x2="165.557" y2="360.385" gradientUnits="userSpaceOnUse">
<stop offset="0.13" stop-color="#4D2C89"/>
<stop offset="1" stop-color="#1A0559"/>
</linearGradient>
<linearGradient id="paint35_linear_1_8" x1="194.519" y1="191.654" x2="194.519" y2="476.653" gradientUnits="userSpaceOnUse">
<stop offset="0.13" stop-color="#4D2C89"/>
<stop offset="1" stop-color="#1A0559"/>
</linearGradient>
<linearGradient id="paint36_linear_1_8" x1="213.341" y1="221.698" x2="213.341" y2="445.278" gradientUnits="userSpaceOnUse">
<stop offset="0.13" stop-color="#4D2C89"/>
<stop offset="1" stop-color="#1A0559"/>
</linearGradient>
<linearGradient id="paint37_linear_1_8" x1="209.729" y1="279.898" x2="209.729" y2="553.035" gradientUnits="userSpaceOnUse">
<stop offset="0.13" stop-color="#4D2C89"/>
<stop offset="1" stop-color="#1A0559"/>
</linearGradient>
<linearGradient id="paint38_linear_1_8" x1="209.724" y1="221.698" x2="209.724" y2="445.277" gradientUnits="userSpaceOnUse">
<stop offset="0.13" stop-color="#4D2C89"/>
<stop offset="1" stop-color="#1A0559"/>
</linearGradient>
<linearGradient id="paint39_linear_1_8" x1="96.1403" y1="221.698" x2="96.1403" y2="445.278" gradientUnits="userSpaceOnUse">
<stop offset="0.13" stop-color="#4D2C89"/>
<stop offset="1" stop-color="#1A0559"/>
</linearGradient>
<linearGradient id="paint40_linear_1_8" x1="92.5355" y1="280.135" x2="92.5356" y2="553.272" gradientUnits="userSpaceOnUse">
<stop offset="0.13" stop-color="#4D2C89"/>
<stop offset="1" stop-color="#1A0559"/>
</linearGradient>
<linearGradient id="paint41_linear_1_8" x1="92.53" y1="221.698" x2="92.53" y2="445.277" gradientUnits="userSpaceOnUse">
<stop offset="0.13" stop-color="#4D2C89"/>
<stop offset="1" stop-color="#1A0559"/>
</linearGradient>
<linearGradient id="paint42_linear_1_8" x1="125.542" y1="424.757" x2="393.779" y2="-9.05057" gradientUnits="userSpaceOnUse">
<stop stop-color="#0C4AE3"/>
<stop offset="1" stop-color="#90C5FF"/>
</linearGradient>
<linearGradient id="paint43_linear_1_8" x1="160.46" y1="439.741" x2="241.341" y2="134.886" gradientUnits="userSpaceOnUse">
<stop stop-color="#0C4AE3"/>
<stop offset="1" stop-color="#90C5FF"/>
</linearGradient>
<linearGradient id="paint44_linear_1_8" x1="206.057" y1="248.094" x2="193.682" y2="383.298" gradientUnits="userSpaceOnUse">
<stop stop-color="#0C4AE3"/>
<stop offset="1" stop-color="#90C5FF"/>
</linearGradient>
<linearGradient id="paint45_linear_1_8" x1="160.999" y1="243.969" x2="148.624" y2="379.173" gradientUnits="userSpaceOnUse">
<stop stop-color="#0C4AE3"/>
<stop offset="1" stop-color="#90C5FF"/>
</linearGradient>
<linearGradient id="paint46_linear_1_8" x1="115.821" y1="239.837" x2="103.446" y2="375.041" gradientUnits="userSpaceOnUse">
<stop stop-color="#0C4AE3"/>
<stop offset="1" stop-color="#90C5FF"/>
</linearGradient>
<linearGradient id="paint47_linear_1_8" x1="249.587" y1="394.905" x2="249.587" y2="293.257" gradientUnits="userSpaceOnUse">
<stop stop-color="#5597EA"/>
<stop offset="1" stop-color="#B2CBFB"/>
</linearGradient>
<linearGradient id="paint48_linear_1_8" x1="318.639" y1="394.904" x2="318.639" y2="293.256" gradientUnits="userSpaceOnUse">
<stop stop-color="#5597EA"/>
<stop offset="1" stop-color="#B2CBFB"/>
</linearGradient>
<linearGradient id="paint49_linear_1_8" x1="294.496" y1="264.114" x2="294.496" y2="397.996" gradientUnits="userSpaceOnUse">
<stop offset="0.13" stop-color="#4D2C89"/>
<stop offset="1" stop-color="#1A0559"/>
</linearGradient>
<clipPath id="clip0_1_8">
<rect width="468" height="360" fill="white"/>
</clipPath>
</defs>
</svg>
