<svg width="12" height="12" viewBox="0 0 12 12" fill="none" xmlns="http://www.w3.org/2000/svg">
<path d="M5 7.7885L7.7885 6L5 4.2115V7.7885ZM6.0015 10.5C5.3795 10.5 4.7945 10.382 4.2465 10.146C3.69883 9.90967 3.22233 9.589 2.817 9.184C2.41167 8.77933 2.09083 8.30333 1.8545 7.756C1.61817 7.20867 1.5 6.62383 1.5 6.0015C1.5 5.3795 1.618 4.7945 1.854 4.2465C2.09033 3.69883 2.411 3.22233 2.816 2.817C3.22067 2.41167 3.69667 2.09083 4.244 1.8545C4.79133 1.61817 5.37617 1.5 5.9985 1.5C6.6205 1.5 7.2055 1.618 7.7535 1.854C8.30117 2.09033 8.77767 2.411 9.183 2.816C9.58833 3.22067 9.90917 3.69667 10.1455 4.244C10.3818 4.79133 10.5 5.37617 10.5 5.9985C10.5 6.6205 10.382 7.2055 10.146 7.7535C9.90967 8.30117 9.589 8.77767 9.184 9.183C8.77933 9.58833 8.30333 9.90917 7.756 10.1455C7.20867 10.3818 6.62383 10.5 6.0015 10.5Z" fill="white"/>
</svg>
