<svg width="112" height="40" viewBox="0 0 112 40" fill="none" xmlns="http://www.w3.org/2000/svg">
<g clip-path="url(#clip0_1_72)">
<path d="M20.7179 40C31.7459 40 40.6859 31.0457 40.6859 20C40.6859 8.95431 31.7459 0 20.7179 0C9.68995 0 0.75 8.95431 0.75 20C0.75 31.0457 9.68995 40 20.7179 40Z" fill="#009BFF"/>
<path d="M52.096 15.3572C52.4061 15.3761 52.7166 15.3286 53.0068 15.2178C53.2971 15.1069 53.5603 14.9353 53.779 14.7143C54.1915 14.1881 54.3856 13.523 54.321 12.8571V4.90001H57.9295V12.8571C57.9743 13.6075 57.8588 14.3588 57.5907 15.0609C57.3226 15.7629 56.9081 16.3997 56.3749 16.9286C55.1822 17.9331 53.6519 18.4441 52.096 18.3572C50.54 18.4455 49.0091 17.9344 47.8172 16.9286C47.2659 16.4086 46.8328 15.7758 46.5473 15.0733C46.2618 14.3708 46.1307 13.615 46.1627 12.8571V4.90001H49.7712V12.8571C49.7285 13.5212 49.9431 14.1761 50.3702 14.6857C50.5905 14.9183 50.8596 15.0991 51.158 15.2152C51.4563 15.3313 51.7767 15.3798 52.096 15.3572ZM65.1322 18.3714C64.0897 18.3707 63.0558 18.182 62.08 17.8143C61.1259 17.4653 60.2524 16.9258 59.5127 16.2286L61.2527 14.0286C61.7646 14.4937 62.3534 14.866 62.9928 15.1286C63.6726 15.4021 64.3997 15.538 65.1322 15.5286C65.5582 15.5518 65.9823 15.458 66.3588 15.2571C66.4993 15.1744 66.6147 15.0548 66.6926 14.9114C66.7705 14.768 66.808 14.606 66.801 14.4429C66.7986 14.2674 66.7481 14.096 66.655 13.9474C66.562 13.7987 66.4299 13.6786 66.2733 13.6C65.6904 13.2721 65.067 13.0223 64.4191 12.8571L63.6061 12.6429C62.5897 12.4229 61.6526 11.9289 60.8962 11.2143C60.5864 10.8899 60.3448 10.5065 60.1856 10.0869C60.0263 9.66734 59.9527 9.22002 59.9691 8.77143C59.9752 8.00416 60.214 7.25687 60.6537 6.62858C61.1195 5.9933 61.7512 5.49899 62.4793 5.20001C63.3322 4.84182 64.2505 4.66662 65.175 4.68572C66.1526 4.68774 67.1208 4.87684 68.0276 5.24286C68.9191 5.58899 69.7442 6.08678 70.4665 6.71429L68.6694 8.98572C68.172 8.56579 67.6203 8.215 67.0292 7.94286C66.4479 7.65538 65.809 7.50395 65.1608 7.50001C64.7453 7.47324 64.3307 7.56225 63.9627 7.75715C63.8161 7.83415 63.695 7.95205 63.614 8.09657C63.533 8.24109 63.4956 8.40604 63.5063 8.57143C63.5111 8.73039 63.5538 8.88588 63.6307 9.02502C63.7076 9.16415 63.8165 9.28291 63.9484 9.37144C64.4183 9.67516 64.9408 9.88834 65.4888 10L66.4729 10.2714C67.6082 10.5056 68.6526 11.0609 69.4824 11.8714C70.0625 12.5179 70.3782 13.3595 70.3667 14.2286C70.3806 15.0123 70.1514 15.781 69.7106 16.4286C69.2409 17.0659 68.604 17.5604 67.8707 17.8572C67.0035 18.2176 66.0708 18.3927 65.1322 18.3714ZM81.2777 18.1143L80.4362 15.7143H75.5013L74.6741 18.1857H71.1084L75.9434 4.97143H80.1367L84.9005 18.1143H81.2777ZM76.3428 12.9714H79.4664L77.983 8.34286L76.3428 12.9714ZM50.085 35.0429V24.7429H46.1627V21.8857H57.5729V24.7429H53.6934V35.0429H50.085ZM65.1608 35.3C63.9305 35.3239 62.7155 35.0234 61.6378 34.4286C60.6295 33.8528 59.7963 33.0134 59.2274 32C58.618 30.9204 58.3077 29.6972 58.3289 28.4571C58.3147 27.5203 58.4792 26.5893 58.8138 25.7143C59.1359 24.9004 59.6214 24.1613 60.2401 23.5429C60.8608 22.9271 61.5978 22.4415 62.408 22.1143C64.1673 21.4431 66.1115 21.4431 67.8707 22.1143C68.6807 22.4418 69.4177 22.9274 70.0386 23.5429C70.6577 24.1611 71.1432 24.9002 71.4649 25.7143C71.8392 26.5814 72.0426 27.5127 72.064 28.4571C72.0894 29.6959 71.7841 30.919 71.1797 32C70.6009 33.0119 69.7577 33.8466 68.7407 34.4143C67.6476 35.0239 66.4116 35.3297 65.1608 35.3ZM65.1608 32.3143C65.7491 32.3272 66.327 32.1575 66.8152 31.8286C67.3021 31.4857 67.6867 31.0165 67.9277 30.4714C68.2137 29.8393 68.3551 29.1511 68.3414 28.4571C68.3527 27.7635 68.2115 27.0758 67.9277 26.4429C67.6946 25.8736 67.3098 25.3794 66.8152 25.0143C66.3218 24.6892 65.7442 24.516 65.1536 24.516C64.5631 24.516 63.9854 24.6892 63.492 25.0143C62.9975 25.3794 62.6126 25.8736 62.3795 26.4429C62.0958 27.0758 61.9546 27.7635 61.9659 28.4571C61.9522 29.1511 62.0935 29.8393 62.3795 30.4714C62.6205 31.0165 63.0051 31.4857 63.492 31.8286C63.9859 32.1553 64.5691 32.3201 65.1608 32.3V32.3143ZM74.075 35.0429V21.8286H79.2809C80.4897 21.8033 81.6842 22.0938 82.7468 22.6714C83.729 23.2177 84.5429 24.023 85.1002 25C85.6596 26.056 85.9522 27.2332 85.9522 28.4286C85.9522 29.624 85.6596 30.8012 85.1002 31.8571C84.5429 32.8341 83.729 33.6395 82.7468 34.1857C81.6842 34.7634 80.4897 35.0539 79.2809 35.0286L74.075 35.0429ZM77.6265 32.1857H79.2809C79.7086 32.2025 80.1342 32.1181 80.5233 31.9394C80.9123 31.7607 81.2539 31.4927 81.5202 31.1571C82.0957 30.3727 82.3875 29.4155 82.3475 28.4429C82.3875 27.4703 82.0957 26.513 81.5202 25.7286C81.2539 25.393 80.9123 25.125 80.5233 24.9463C80.1342 24.7676 79.7086 24.6832 79.2809 24.7H77.6265V32.1857ZM96.596 35.0429L95.7688 32.5714H90.8196L89.9923 35.0429H86.4266L91.2617 21.8286H95.455L100.29 35.0429H96.596ZM91.7324 29.9H94.8845L93.3298 25.2714L91.7324 29.9ZM107.25 30.2857V35.0429H103.585V30.2857L98.9066 21.8286H102.986L105.425 27.1429L107.849 21.9H111.929L107.25 30.2857Z" fill="#404040"/>
</g>
<defs>
<clipPath id="clip0_1_72">
<rect width="111.25" height="40" fill="white" transform="translate(0.75)"/>
</clipPath>
</defs>
</svg>
