<?xml version="1.0" standalone="no"?>
<!DOCTYPE svg PUBLIC "-//W3C//DTD SVG 20010904//EN"
 "http://www.w3.org/TR/2001/REC-SVG-20010904/DTD/svg10.dtd">
<svg version="1.0" xmlns="http://www.w3.org/2000/svg"
 width="992.000000pt" height="992.000000pt" viewBox="0 0 992.000000 992.000000"
 preserveAspectRatio="xMidYMid meet">
<metadata>
Created by potrace 1.14, written by Peter Selinger 2001-2017
</metadata>
<g transform="translate(0.000000,992.000000) scale(0.100000,-0.100000)"
fill="#000000" stroke="none">
<path d="M2109 9756 c-2 -2 -24 -7 -49 -11 -24 -4 -49 -10 -55 -13 -5 -4 -12
-7 -15 -7 -37 -5 -200 -83 -200 -97 0 -4 -6 -8 -13 -8 -15 0 -143 -123 -167
-159 -8 -13 -20 -29 -26 -35 -15 -16 -84 -160 -100 -211 -5 -13 -23 -102 -30
-140 -2 -16 -13 -82 -24 -145 -11 -63 -22 -126 -24 -140 -3 -14 -5 -25 -6 -25
-1 0 -3 -16 -6 -35 -2 -19 -12 -73 -20 -120 -9 -47 -17 -94 -19 -105 -1 -11
-6 -38 -10 -60 -4 -22 -9 -49 -11 -60 -2 -11 -9 -47 -15 -80 -7 -33 -13 -73
-14 -90 -1 -16 -4 -30 -5 -30 -1 0 -4 -13 -5 -30 -2 -16 -4 -30 -5 -30 -2 0
-10 -36 -14 -70 -5 -31 -15 -92 -22 -128 -2 -12 -6 -37 -9 -57 -3 -20 -7 -47
-10 -60 -10 -49 -26 -142 -30 -168 -2 -15 -6 -38 -9 -52 -3 -14 -9 -52 -15
-85 -6 -33 -13 -73 -16 -90 -3 -16 -8 -41 -10 -55 -2 -14 -6 -38 -9 -55 -3
-16 -8 -47 -11 -69 -4 -21 -9 -48 -11 -60 -3 -11 -7 -34 -10 -51 -3 -16 -7
-41 -10 -55 -3 -14 -7 -43 -10 -65 -2 -22 -7 -46 -10 -54 -2 -8 -7 -37 -10
-65 -3 -28 -10 -59 -16 -69 -5 -10 -8 -21 -5 -23 3 -3 1 -22 -3 -42 -5 -20
-11 -57 -15 -82 -4 -25 -10 -63 -15 -84 -5 -22 -7 -43 -4 -47 2 -4 0 -10 -5
-14 -5 -3 -8 -15 -6 -27 3 -12 1 -26 -4 -32 -5 -6 -11 -33 -15 -61 -7 -65 -15
-113 -25 -150 -4 -16 -7 -38 -5 -47 1 -10 -1 -18 -4 -18 -4 0 -7 -10 -8 -22 0
-26 -9 -79 -24 -158 -6 -30 -13 -70 -16 -89 -3 -18 -8 -43 -10 -55 -3 -11 -7
-34 -9 -51 -2 -16 -8 -48 -12 -70 -4 -22 -8 -44 -9 -50 -3 -28 -20 -119 -24
-132 -1 -5 -2 -11 -1 -16 1 -4 -3 -27 -9 -52 -6 -25 -12 -62 -15 -83 -3 -20
-8 -53 -12 -72 -4 -19 -8 -42 -9 -50 -1 -8 -5 -31 -8 -50 -8 -39 -43 -238 -50
-285 -3 -16 -10 -52 -15 -80 -5 -27 -9 -57 -10 -65 0 -8 -9 -60 -20 -115 -18
-94 -26 -137 -37 -210 -3 -16 -7 -39 -9 -50 -13 -68 -25 -134 -29 -160 -3 -16
-7 -39 -9 -50 -2 -11 -8 -42 -12 -70 -5 -27 -9 -52 -10 -55 -1 -3 -5 -30 -10
-60 -5 -30 -9 -57 -10 -60 0 -3 -4 -27 -9 -53 -4 -27 -10 -59 -12 -70 -3 -12
-7 -35 -10 -52 -2 -16 -7 -41 -11 -55 -3 -14 -7 -36 -9 -50 -7 -60 -13 -97
-18 -120 -4 -14 -8 -38 -11 -55 -2 -16 -6 -41 -9 -55 -3 -13 -8 -42 -12 -65
-3 -22 -10 -62 -15 -90 -6 -27 -12 -63 -15 -80 -2 -16 -6 -41 -9 -55 -3 -14
-12 -65 -21 -115 -21 -123 -21 -125 -29 -165 -3 -19 -8 -48 -10 -65 -2 -16 -4
-30 -5 -30 -1 0 -3 -11 -5 -25 -1 -14 -5 -40 -9 -57 -3 -18 -8 -45 -11 -60 -3
-16 -7 -39 -10 -53 -2 -13 -7 -42 -10 -63 -6 -40 -31 -178 -38 -212 -3 -11 -8
-40 -11 -65 -3 -25 -8 -56 -11 -70 -3 -14 -7 -36 -10 -50 -13 -82 -23 -135
-25 -135 -1 0 -3 -13 -5 -30 -2 -16 -6 -42 -9 -57 -4 -16 -8 -40 -11 -55 -11
-78 -25 -158 -39 -229 -2 -12 -7 -39 -10 -60 -3 -22 -8 -50 -11 -64 -3 -14 -7
-38 -9 -55 -2 -16 -7 -41 -10 -55 -6 -27 -12 -58 -21 -124 -8 -56 -13 -81 -15
-81 -1 0 -3 -11 -5 -25 -1 -14 -5 -38 -9 -55 -3 -16 -8 -47 -11 -69 -4 -21 -9
-48 -11 -60 -2 -11 -7 -37 -10 -56 -3 -19 -12 -66 -19 -105 -21 -107 -10 -277
21 -327 5 -7 9 -19 10 -26 5 -30 62 -112 120 -170 34 -34 65 -62 69 -62 4 0
20 -9 36 -21 16 -11 29 -17 29 -13 0 3 6 2 13 -4 7 -6 42 -20 77 -31 63 -20
90 -20 1295 -18 676 1 1239 5 1250 9 35 10 110 30 110 29 0 -2 135 67 160 82
102 60 246 236 288 352 8 22 18 49 23 60 4 11 8 25 9 30 1 6 3 12 4 15 4 8 8
32 16 80 3 25 9 59 12 75 3 17 6 37 8 45 2 19 16 99 21 125 3 11 7 36 10 55 3
19 7 46 10 60 8 44 26 144 30 170 2 14 8 48 13 75 14 73 25 138 36 220 4 22 9
47 12 55 3 8 7 26 8 40 1 14 5 39 8 55 4 17 9 46 12 65 3 19 7 46 10 60 3 14
7 40 10 58 6 40 13 79 20 112 2 13 7 42 10 65 3 22 8 47 10 55 2 8 7 31 10 50
3 19 10 60 15 90 5 30 12 72 16 94 3 21 8 48 10 60 14 75 27 145 29 166 2 14
6 41 10 60 10 54 45 252 50 282 2 15 9 53 15 85 5 32 12 69 15 83 2 14 7 39
10 55 3 17 7 48 10 70 6 45 13 80 15 80 2 0 10 44 11 65 1 8 17 101 36 205 18
105 36 206 38 225 3 19 7 46 10 60 3 14 8 37 10 53 3 15 7 37 9 50 2 12 7 38
10 57 3 19 9 49 12 65 3 17 7 41 9 55 1 14 6 41 9 60 4 19 11 60 16 90 15 87
21 122 31 175 11 59 16 91 24 148 4 23 8 44 10 47 2 3 6 26 9 50 4 25 9 56 11
70 11 55 15 76 21 115 4 22 8 49 9 60 1 11 5 31 9 45 3 14 8 36 10 50 3 14 5
25 6 25 1 0 3 16 5 35 3 36 9 71 20 130 4 19 8 44 10 55 1 11 5 38 9 60 10 54
44 243 50 280 3 17 10 54 16 83 5 29 9 56 8 60 -1 4 2 18 6 32 3 14 9 41 11
60 3 19 8 51 11 70 3 19 7 44 9 55 1 11 3 20 5 20 1 0 3 9 4 20 2 11 6 37 10
58 3 20 9 53 12 73 3 20 8 46 10 58 2 11 6 35 9 51 3 17 10 53 15 80 6 28 11
64 12 80 1 17 4 35 7 40 3 6 6 19 7 30 2 26 13 85 20 108 3 9 1 17 -5 17 -6 0
-11 -5 -11 -12 0 -6 -3 -9 -6 -5 -3 3 -16 -4 -28 -16 -13 -12 -47 -42 -76 -67
-29 -25 -62 -54 -74 -65 -13 -11 -36 -31 -53 -45 -48 -40 -155 -133 -180 -157
-13 -13 -26 -23 -29 -23 -3 0 -15 -10 -28 -22 -12 -13 -49 -45 -81 -73 -33
-27 -80 -68 -105 -90 -25 -22 -70 -60 -99 -85 -29 -25 -71 -62 -93 -82 -22
-21 -43 -38 -47 -38 -3 0 -14 -8 -22 -17 -9 -10 -38 -37 -65 -60 -27 -23 -60
-52 -74 -64 -69 -59 -108 -89 -119 -89 -6 0 -11 -3 -11 -7 0 -12 -78 -41 -133
-52 -69 -13 -175 -5 -232 18 -69 27 -113 54 -158 99 -40 40 -97 114 -97 127 0
2 -5 16 -12 32 -33 80 -42 183 -22 268 14 61 53 155 65 155 5 0 9 5 9 12 0 13
70 82 160 160 30 26 66 56 80 68 14 12 47 41 73 64 27 22 59 50 71 61 13 11
47 40 76 65 29 25 68 59 86 75 18 17 43 39 56 49 72 60 173 150 176 158 2 4 8
8 12 8 5 0 23 12 39 28 27 25 91 81 151 132 43 36 104 90 132 115 15 14 32 25
37 25 6 0 11 7 11 15 0 8 4 15 8 15 5 0 33 21 63 46 54 46 162 140 183 159 6
6 40 35 76 65 36 30 67 57 70 60 3 3 39 34 80 70 41 36 80 70 86 75 6 6 32 28
58 49 26 21 61 52 79 68 47 43 66 59 132 113 33 28 65 55 70 61 25 27 133 113
165 130 61 35 146 58 205 57 75 -2 115 -7 115 -15 0 -5 4 -6 10 -3 17 11 141
-57 190 -104 26 -25 114 -129 196 -231 82 -102 153 -190 159 -196 5 -6 21 -26
35 -44 14 -18 30 -38 35 -44 6 -6 58 -69 115 -141 57 -71 109 -135 115 -141 5
-6 21 -26 35 -44 14 -18 32 -41 40 -50 33 -39 82 -99 142 -175 35 -44 70 -87
78 -95 8 -9 26 -31 40 -50 14 -18 30 -38 35 -44 6 -6 40 -47 75 -91 36 -44 68
-82 72 -83 5 -2 6 -8 2 -13 -3 -5 -1 -9 4 -9 5 0 29 -26 54 -57 25 -32 99
-123 163 -203 153 -188 182 -237 201 -332 7 -33 7 -149 1 -178 -26 -119 -111
-245 -199 -296 -88 -51 -134 -65 -231 -68 -157 -6 -284 63 -408 223 -19 25
-44 55 -56 68 -13 13 -23 27 -23 31 0 4 -13 21 -28 37 -15 17 -46 53 -68 80
-21 28 -47 59 -56 70 -10 11 -51 63 -93 115 -42 52 -84 104 -93 115 -10 11
-44 54 -77 95 -33 41 -64 80 -70 86 -5 6 -23 28 -40 48 -16 21 -37 46 -45 56
-8 9 -26 32 -40 50 -14 18 -30 38 -35 44 -6 6 -22 26 -37 44 -30 36 -30 37
-42 -43 -3 -16 -7 -41 -10 -55 -3 -13 -8 -40 -11 -60 -3 -20 -8 -47 -10 -60
-3 -14 -7 -41 -10 -60 -2 -19 -11 -71 -19 -115 -9 -44 -18 -96 -21 -115 -3
-19 -12 -71 -20 -115 -13 -75 -17 -95 -30 -177 -3 -18 -10 -55 -15 -83 -17
-89 -20 -109 -26 -155 -3 -24 -7 -48 -10 -51 -2 -4 -7 -28 -9 -52 -3 -25 -8
-56 -10 -68 -3 -13 -8 -37 -10 -54 -3 -16 -10 -57 -16 -90 -6 -33 -12 -69 -14
-80 -2 -11 -8 -42 -13 -70 -6 -27 -13 -68 -16 -90 -4 -23 -9 -52 -11 -65 -3
-14 -8 -41 -11 -60 -2 -19 -9 -57 -14 -85 -6 -27 -12 -66 -14 -85 -3 -19 -14
-82 -25 -140 -10 -58 -22 -125 -26 -150 -3 -25 -11 -64 -16 -87 -5 -24 -9 -46
-8 -50 1 -5 0 -10 -1 -13 -3 -9 -10 -45 -14 -75 -3 -16 -7 -39 -9 -50 -7 -28
-20 -116 -21 -137 0 -10 -3 -18 -6 -18 -3 0 -6 -12 -6 -27 -1 -27 -11 -78 -14
-78 -1 0 -3 -16 -5 -35 -1 -19 -3 -35 -5 -35 -1 0 -3 -11 -5 -25 -1 -14 -6
-41 -10 -60 -4 -19 -8 -46 -10 -60 -1 -14 -5 -38 -8 -55 -8 -35 -18 -92 -22
-120 -6 -36 -15 -89 -26 -142 -6 -29 -8 -57 -4 -63 3 -5 2 -10 -2 -10 -5 0
-15 -42 -23 -92 -8 -51 -15 -100 -16 -108 -2 -8 -5 -26 -9 -40 -3 -14 -8 -38
-10 -55 -7 -53 -15 -99 -20 -125 -3 -14 -8 -36 -10 -50 -2 -14 -13 -77 -24
-140 -11 -63 -22 -131 -26 -150 -3 -19 -8 -48 -12 -65 -3 -16 -8 -43 -9 -60
-2 -16 -11 -66 -19 -110 -8 -44 -17 -93 -19 -110 -3 -16 -10 -55 -16 -85 -6
-30 -13 -68 -15 -85 -1 -16 -10 -70 -19 -120 -9 -49 -19 -105 -22 -124 -3 -18
-8 -43 -10 -55 -2 -11 -6 -34 -9 -51 -3 -16 -7 -41 -10 -55 -6 -30 -15 -85
-20 -120 -2 -14 -6 -34 -8 -45 -3 -11 -8 -42 -12 -70 -5 -27 -9 -52 -10 -55 0
-3 -4 -26 -8 -51 -12 -75 -17 -101 -27 -154 -5 -27 -12 -65 -15 -82 -11 -68
-17 -101 -35 -203 -11 -58 -22 -121 -24 -140 -3 -19 -8 -46 -11 -60 -10 -42
-12 -200 -3 -200 5 0 6 -5 3 -10 -11 -17 48 -180 68 -188 4 -2 7 -10 7 -17 0
-26 137 -151 201 -184 123 -63 102 -62 989 -57 443 2 819 6 835 9 37 6 129 18
170 22 17 2 30 4 30 5 0 1 11 3 25 6 14 2 36 7 50 10 14 4 32 8 40 9 55 9 96
17 101 21 3 2 19 5 35 8 50 9 305 95 322 108 13 11 14 11 7 -2 -6 -11 -3 -10
12 2 11 10 25 18 32 18 49 0 534 258 549 293 2 4 8 7 14 7 5 0 20 8 33 18 12
9 33 24 45 32 32 21 230 178 260 206 110 101 255 252 337 351 10 12 26 31 36
42 9 12 17 26 17 31 0 6 4 10 9 10 5 0 19 16 31 35 12 20 27 41 34 48 6 6 42
59 78 117 37 58 71 110 75 115 13 15 174 341 177 357 1 7 8 23 14 36 7 12 10
22 6 22 -3 0 -2 6 3 13 24 30 124 355 139 452 1 11 7 34 12 50 5 17 8 42 7 58
-1 15 1 27 4 27 5 0 12 46 14 103 1 9 4 17 7 17 14 0 19 456 6 600 -13 150
-15 165 -16 165 -2 0 -7 29 -15 95 -3 25 -8 52 -12 60 -3 8 -8 26 -10 40 -5
38 -24 123 -30 140 -3 8 -8 24 -10 35 -6 31 -44 157 -58 190 -7 17 -18 48 -25
70 -7 22 -16 45 -20 50 -5 6 -9 15 -10 20 -7 34 -63 159 -124 275 -27 52 -54
105 -60 117 -6 13 -14 23 -18 23 -5 0 -8 5 -8 11 0 18 -151 236 -242 351 -80
99 -106 140 -78 123 6 -3 10 -1 10 4 0 6 3 10 8 9 14 -4 234 119 240 134 2 5
8 8 12 8 26 0 229 159 345 269 114 109 305 334 323 380 3 7 16 25 28 39 13 14
24 31 24 38 0 7 3 14 7 16 11 4 45 65 101 178 26 52 52 98 57 102 6 4 7 8 3 8
-4 0 4 25 18 55 50 115 121 340 127 407 1 16 5 28 9 28 3 0 5 8 3 18 -1 9 0
22 4 27 3 6 6 18 7 28 1 9 2 18 3 20 1 1 4 16 6 32 8 79 18 163 21 190 5 44 5
322 -1 380 -7 81 -15 151 -20 176 -3 13 -7 38 -10 54 -10 59 -15 88 -30 155
-2 8 -4 16 -5 18 -2 1 -4 7 -5 12 -1 6 -4 13 -5 18 -1 4 -2 11 -1 16 1 4 -3
14 -9 21 -6 7 -10 17 -9 21 1 5 0 16 -3 24 -3 8 -13 38 -23 65 -16 47 -22 65
-44 118 -6 12 -20 47 -32 77 -13 30 -41 89 -63 130 -22 41 -45 85 -50 97 -6
13 -14 23 -18 23 -5 0 -8 5 -8 11 0 15 -161 249 -171 249 -5 0 -9 4 -9 10 0
21 -192 226 -296 315 -32 28 -66 58 -76 68 -10 9 -22 17 -26 17 -5 0 -19 11
-32 25 -13 14 -29 25 -37 25 -7 0 -13 3 -13 8 0 4 -28 25 -63 47 -34 22 -63
43 -65 47 -2 5 -8 8 -13 8 -5 0 -27 11 -49 25 -50 32 -261 137 -280 140 -3 1
-21 8 -40 17 -29 12 -101 38 -120 43 -3 1 -13 5 -22 9 -9 4 -22 9 -30 10 -7 1
-33 9 -58 16 -25 7 -49 14 -55 16 -5 1 -53 11 -105 22 -52 11 -117 23 -145 27
-27 3 -81 10 -120 15 -68 8 -5627 14 -5636 6z"/>
</g>
</svg>
